<?xml version="1.0" standalone="no"?>
 <!DOCTYPE svg PUBLIC "-//W3C//DTD SVG 1.1//EN" 
 "http://www.w3.org/Graphics/SVG/1.1/DTD/svg11.dtd"> 
<svg xmlns="http://www.w3.org/2000/svg" version="1.1" 
    width="29.7002cm" height="21.0007cm" viewBox="0 0 116930 82680 ">
<title>SVG Picture created as 120-channel pogo pin board-F.Mask.svg date 2017/04/12 12:45:55 </title>
  <desc>Picture generated by PCBNEW </desc>
<g style="fill:#000000; fill-opacity:1;stroke:#000000; stroke-opacity:1;
stroke-linecap:round; stroke-linejoin:round; "
 transform="translate(0 0) scale(1 1)">
</g>
<g style="fill:#000000; fill-opacity:0.0; 
stroke:#000000; stroke-width:-0.000393701; stroke-opacity:1; 
stroke-linecap:round; stroke-linejoin:round;">
</g>
<g style="fill:#000000; fill-opacity:0.0; 
stroke:#000000; stroke-width:39.3701; stroke-opacity:1; 
stroke-linecap:round; stroke-linejoin:round;">
</g>
<g style="fill:#000000; fill-opacity:0.0; 
stroke:#000000; stroke-width:59.0551; stroke-opacity:1; 
stroke-linecap:round; stroke-linejoin:round;">
<rect x="69685.9" y="65357.2" width="42519.7" height="12598.4" rx="0" />
</g>
<g style="fill:#000000; fill-opacity:0.0; 
stroke:#000000; stroke-width:39.3701; stroke-opacity:1; 
stroke-linecap:round; stroke-linejoin:round;">
</g>
<g style="fill:#000000; fill-opacity:0.0; 
stroke:#000000; stroke-width:59.0551; stroke-opacity:1; 
stroke-linecap:round; stroke-linejoin:round;">
<rect x="3937.01" y="3937.01" width="109056" height="74806" rx="0" />
</g>
<g style="fill:#000000; fill-opacity:0.0; 
stroke:#000000; stroke-width:39.3701; stroke-opacity:1; 
stroke-linecap:round; stroke-linejoin:round;">
</g>
<g style="fill:#000000; fill-opacity:0.0; 
stroke:#000000; stroke-width:59.0551; stroke-opacity:1; 
stroke-linecap:round; stroke-linejoin:round;">
<rect x="4724.41" y="4724.41" width="107481" height="73231.2" rx="0" />
</g>
<g style="fill:#000000; fill-opacity:0.0; 
stroke:#000000; stroke-width:39.3701; stroke-opacity:1; 
stroke-linecap:round; stroke-linejoin:round;">
</g>
<g style="fill:#000000; fill-opacity:0.0; 
stroke:#000000; stroke-width:59.0551; stroke-opacity:1; 
stroke-linecap:round; stroke-linejoin:round;">
<path d="M23622 4724
L23622 3937
" />
</g>
<g style="fill:#000000; fill-opacity:0.0; 
stroke:#000000; stroke-width:39.3701; stroke-opacity:1; 
stroke-linecap:round; stroke-linejoin:round;">
</g>
<g style="fill:#000000; fill-opacity:0.0; 
stroke:#000000; stroke-width:59.0551; stroke-opacity:1; 
stroke-linecap:round; stroke-linejoin:round;">
<path d="M43307 4724
L43307 3937
" />
</g>
<g style="fill:#000000; fill-opacity:0.0; 
stroke:#000000; stroke-width:39.3701; stroke-opacity:1; 
stroke-linecap:round; stroke-linejoin:round;">
</g>
<g style="fill:#000000; fill-opacity:0.0; 
stroke:#000000; stroke-width:59.0551; stroke-opacity:1; 
stroke-linecap:round; stroke-linejoin:round;">
<path d="M62992 4724
L62992 3937
" />
</g>
<g style="fill:#000000; fill-opacity:0.0; 
stroke:#000000; stroke-width:39.3701; stroke-opacity:1; 
stroke-linecap:round; stroke-linejoin:round;">
</g>
<g style="fill:#000000; fill-opacity:0.0; 
stroke:#000000; stroke-width:59.0551; stroke-opacity:1; 
stroke-linecap:round; stroke-linejoin:round;">
<path d="M82677 4724
L82677 3937
" />
</g>
<g style="fill:#000000; fill-opacity:0.0; 
stroke:#000000; stroke-width:39.3701; stroke-opacity:1; 
stroke-linecap:round; stroke-linejoin:round;">
</g>
<g style="fill:#000000; fill-opacity:0.0; 
stroke:#000000; stroke-width:59.0551; stroke-opacity:1; 
stroke-linecap:round; stroke-linejoin:round;">
<path d="M102362 4724
L102362 3937
" />
</g>
<g style="fill:#000000; fill-opacity:0.0; 
stroke:#000000; stroke-width:39.3701; stroke-opacity:1; 
stroke-linecap:round; stroke-linejoin:round;">
</g>
<g style="fill:#000000; fill-opacity:0.0; 
stroke:#000000; stroke-width:59.0551; stroke-opacity:1; 
stroke-linecap:round; stroke-linejoin:round;">
<path d="M14169 4562
L13877 4562
" />
<path d="M14023 4562
L14023 4050
L13974 4123
L13925 4172
L13877 4196
" />
</g>
<g style="fill:#000000; fill-opacity:0.0; 
stroke:#000000; stroke-width:39.3701; stroke-opacity:1; 
stroke-linecap:round; stroke-linejoin:round;">
</g>
<g style="fill:#000000; fill-opacity:0.0; 
stroke:#000000; stroke-width:59.0551; stroke-opacity:1; 
stroke-linecap:round; stroke-linejoin:round;">
<path d="M33562 4099
L33586 4074
L33635 4050
L33757 4050
L33805 4074
L33830 4099
L33854 4147
L33854 4196
L33830 4269
L33537 4562
L33854 4562
" />
</g>
<g style="fill:#000000; fill-opacity:0.0; 
stroke:#000000; stroke-width:39.3701; stroke-opacity:1; 
stroke-linecap:round; stroke-linejoin:round;">
</g>
<g style="fill:#000000; fill-opacity:0.0; 
stroke:#000000; stroke-width:59.0551; stroke-opacity:1; 
stroke-linecap:round; stroke-linejoin:round;">
<path d="M53222 4050
L53539 4050
L53368 4245
L53442 4245
L53490 4269
L53515 4294
L53539 4342
L53539 4464
L53515 4513
L53490 4537
L53442 4562
L53295 4562
L53247 4537
L53222 4513
" />
</g>
<g style="fill:#000000; fill-opacity:0.0; 
stroke:#000000; stroke-width:39.3701; stroke-opacity:1; 
stroke-linecap:round; stroke-linejoin:round;">
</g>
<g style="fill:#000000; fill-opacity:0.0; 
stroke:#000000; stroke-width:59.0551; stroke-opacity:1; 
stroke-linecap:round; stroke-linejoin:round;">
<path d="M73175 4221
L73175 4562
" />
<path d="M73053 4026
L72932 4391
L73248 4391
" />
</g>
<g style="fill:#000000; fill-opacity:0.0; 
stroke:#000000; stroke-width:39.3701; stroke-opacity:1; 
stroke-linecap:round; stroke-linejoin:round;">
</g>
<g style="fill:#000000; fill-opacity:0.0; 
stroke:#000000; stroke-width:59.0551; stroke-opacity:1; 
stroke-linecap:round; stroke-linejoin:round;">
<path d="M92885 4050
L92641 4050
L92617 4294
L92641 4269
L92690 4245
L92812 4245
L92860 4269
L92885 4294
L92909 4342
L92909 4464
L92885 4513
L92860 4537
L92812 4562
L92690 4562
L92641 4537
L92617 4513
" />
</g>
<g style="fill:#000000; fill-opacity:0.0; 
stroke:#000000; stroke-width:39.3701; stroke-opacity:1; 
stroke-linecap:round; stroke-linejoin:round;">
</g>
<g style="fill:#000000; fill-opacity:0.0; 
stroke:#000000; stroke-width:59.0551; stroke-opacity:1; 
stroke-linecap:round; stroke-linejoin:round;">
<path d="M112545 4050
L112448 4050
L112399 4074
L112375 4099
L112326 4172
L112302 4269
L112302 4464
L112326 4513
L112350 4537
L112399 4562
L112497 4562
L112545 4537
L112570 4513
L112594 4464
L112594 4342
L112570 4294
L112545 4269
L112497 4245
L112399 4245
L112350 4269
L112326 4294
L112302 4342
" />
</g>
<g style="fill:#000000; fill-opacity:0.0; 
stroke:#000000; stroke-width:39.3701; stroke-opacity:1; 
stroke-linecap:round; stroke-linejoin:round;">
</g>
<g style="fill:#000000; fill-opacity:0.0; 
stroke:#000000; stroke-width:59.0551; stroke-opacity:1; 
stroke-linecap:round; stroke-linejoin:round;">
<path d="M23622 77955
L23622 78742
" />
</g>
<g style="fill:#000000; fill-opacity:0.0; 
stroke:#000000; stroke-width:39.3701; stroke-opacity:1; 
stroke-linecap:round; stroke-linejoin:round;">
</g>
<g style="fill:#000000; fill-opacity:0.0; 
stroke:#000000; stroke-width:59.0551; stroke-opacity:1; 
stroke-linecap:round; stroke-linejoin:round;">
<path d="M43307 77955
L43307 78742
" />
</g>
<g style="fill:#000000; fill-opacity:0.0; 
stroke:#000000; stroke-width:39.3701; stroke-opacity:1; 
stroke-linecap:round; stroke-linejoin:round;">
</g>
<g style="fill:#000000; fill-opacity:0.0; 
stroke:#000000; stroke-width:59.0551; stroke-opacity:1; 
stroke-linecap:round; stroke-linejoin:round;">
<path d="M62992 77955
L62992 78742
" />
</g>
<g style="fill:#000000; fill-opacity:0.0; 
stroke:#000000; stroke-width:39.3701; stroke-opacity:1; 
stroke-linecap:round; stroke-linejoin:round;">
</g>
<g style="fill:#000000; fill-opacity:0.0; 
stroke:#000000; stroke-width:59.0551; stroke-opacity:1; 
stroke-linecap:round; stroke-linejoin:round;">
<path d="M82677 77955
L82677 78742
" />
</g>
<g style="fill:#000000; fill-opacity:0.0; 
stroke:#000000; stroke-width:39.3701; stroke-opacity:1; 
stroke-linecap:round; stroke-linejoin:round;">
</g>
<g style="fill:#000000; fill-opacity:0.0; 
stroke:#000000; stroke-width:59.0551; stroke-opacity:1; 
stroke-linecap:round; stroke-linejoin:round;">
<path d="M102362 77955
L102362 78742
" />
</g>
<g style="fill:#000000; fill-opacity:0.0; 
stroke:#000000; stroke-width:39.3701; stroke-opacity:1; 
stroke-linecap:round; stroke-linejoin:round;">
</g>
<g style="fill:#000000; fill-opacity:0.0; 
stroke:#000000; stroke-width:59.0551; stroke-opacity:1; 
stroke-linecap:round; stroke-linejoin:round;">
<path d="M14169 78580
L13877 78580
" />
<path d="M14023 78580
L14023 78069
L13974 78142
L13925 78190
L13877 78215
" />
</g>
<g style="fill:#000000; fill-opacity:0.0; 
stroke:#000000; stroke-width:39.3701; stroke-opacity:1; 
stroke-linecap:round; stroke-linejoin:round;">
</g>
<g style="fill:#000000; fill-opacity:0.0; 
stroke:#000000; stroke-width:59.0551; stroke-opacity:1; 
stroke-linecap:round; stroke-linejoin:round;">
<path d="M33562 78117
L33586 78093
L33635 78069
L33757 78069
L33805 78093
L33830 78117
L33854 78166
L33854 78215
L33830 78288
L33537 78580
L33854 78580
" />
</g>
<g style="fill:#000000; fill-opacity:0.0; 
stroke:#000000; stroke-width:39.3701; stroke-opacity:1; 
stroke-linecap:round; stroke-linejoin:round;">
</g>
<g style="fill:#000000; fill-opacity:0.0; 
stroke:#000000; stroke-width:59.0551; stroke-opacity:1; 
stroke-linecap:round; stroke-linejoin:round;">
<path d="M53222 78069
L53539 78069
L53368 78263
L53442 78263
L53490 78288
L53515 78312
L53539 78361
L53539 78483
L53515 78532
L53490 78556
L53442 78580
L53295 78580
L53247 78556
L53222 78532
" />
</g>
<g style="fill:#000000; fill-opacity:0.0; 
stroke:#000000; stroke-width:39.3701; stroke-opacity:1; 
stroke-linecap:round; stroke-linejoin:round;">
</g>
<g style="fill:#000000; fill-opacity:0.0; 
stroke:#000000; stroke-width:59.0551; stroke-opacity:1; 
stroke-linecap:round; stroke-linejoin:round;">
<path d="M73175 78239
L73175 78580
" />
<path d="M73053 78044
L72932 78410
L73248 78410
" />
</g>
<g style="fill:#000000; fill-opacity:0.0; 
stroke:#000000; stroke-width:39.3701; stroke-opacity:1; 
stroke-linecap:round; stroke-linejoin:round;">
</g>
<g style="fill:#000000; fill-opacity:0.0; 
stroke:#000000; stroke-width:59.0551; stroke-opacity:1; 
stroke-linecap:round; stroke-linejoin:round;">
<path d="M92885 78069
L92641 78069
L92617 78312
L92641 78288
L92690 78263
L92812 78263
L92860 78288
L92885 78312
L92909 78361
L92909 78483
L92885 78532
L92860 78556
L92812 78580
L92690 78580
L92641 78556
L92617 78532
" />
</g>
<g style="fill:#000000; fill-opacity:0.0; 
stroke:#000000; stroke-width:39.3701; stroke-opacity:1; 
stroke-linecap:round; stroke-linejoin:round;">
</g>
<g style="fill:#000000; fill-opacity:0.0; 
stroke:#000000; stroke-width:59.0551; stroke-opacity:1; 
stroke-linecap:round; stroke-linejoin:round;">
<path d="M112545 78069
L112448 78069
L112399 78093
L112375 78117
L112326 78190
L112302 78288
L112302 78483
L112326 78532
L112350 78556
L112399 78580
L112497 78580
L112545 78556
L112570 78532
L112594 78483
L112594 78361
L112570 78312
L112545 78288
L112497 78263
L112399 78263
L112350 78288
L112326 78312
L112302 78361
" />
</g>
<g style="fill:#000000; fill-opacity:0.0; 
stroke:#000000; stroke-width:39.3701; stroke-opacity:1; 
stroke-linecap:round; stroke-linejoin:round;">
</g>
<g style="fill:#000000; fill-opacity:0.0; 
stroke:#000000; stroke-width:59.0551; stroke-opacity:1; 
stroke-linecap:round; stroke-linejoin:round;">
<path d="M3937 23622
L4724 23622
" />
</g>
<g style="fill:#000000; fill-opacity:0.0; 
stroke:#000000; stroke-width:39.3701; stroke-opacity:1; 
stroke-linecap:round; stroke-linejoin:round;">
</g>
<g style="fill:#000000; fill-opacity:0.0; 
stroke:#000000; stroke-width:59.0551; stroke-opacity:1; 
stroke-linecap:round; stroke-linejoin:round;">
<path d="M3937 43307
L4724 43307
" />
</g>
<g style="fill:#000000; fill-opacity:0.0; 
stroke:#000000; stroke-width:39.3701; stroke-opacity:1; 
stroke-linecap:round; stroke-linejoin:round;">
</g>
<g style="fill:#000000; fill-opacity:0.0; 
stroke:#000000; stroke-width:59.0551; stroke-opacity:1; 
stroke-linecap:round; stroke-linejoin:round;">
<path d="M3937 62992
L4724 62992
" />
</g>
<g style="fill:#000000; fill-opacity:0.0; 
stroke:#000000; stroke-width:39.3701; stroke-opacity:1; 
stroke-linecap:round; stroke-linejoin:round;">
</g>
<g style="fill:#000000; fill-opacity:0.0; 
stroke:#000000; stroke-width:59.0551; stroke-opacity:1; 
stroke-linecap:round; stroke-linejoin:round;">
<path d="M4208 13864
L4452 13864
" />
<path d="M4160 14011
L4330 13499
L4501 14011
" />
</g>
<g style="fill:#000000; fill-opacity:0.0; 
stroke:#000000; stroke-width:39.3701; stroke-opacity:1; 
stroke-linecap:round; stroke-linejoin:round;">
</g>
<g style="fill:#000000; fill-opacity:0.0; 
stroke:#000000; stroke-width:59.0551; stroke-opacity:1; 
stroke-linecap:round; stroke-linejoin:round;">
<path d="M4367 33428
L4440 33452
L4464 33476
L4489 33525
L4489 33598
L4464 33647
L4440 33671
L4391 33696
L4196 33696
L4196 33184
L4367 33184
L4416 33208
L4440 33233
L4464 33281
L4464 33330
L4440 33379
L4416 33403
L4367 33428
L4196 33428
" />
</g>
<g style="fill:#000000; fill-opacity:0.0; 
stroke:#000000; stroke-width:39.3701; stroke-opacity:1; 
stroke-linecap:round; stroke-linejoin:round;">
</g>
<g style="fill:#000000; fill-opacity:0.0; 
stroke:#000000; stroke-width:59.0551; stroke-opacity:1; 
stroke-linecap:round; stroke-linejoin:round;">
<path d="M4489 53332
L4464 53356
L4391 53381
L4342 53381
L4269 53356
L4221 53308
L4196 53259
L4172 53161
L4172 53088
L4196 52991
L4221 52942
L4269 52893
L4342 52869
L4391 52869
L4464 52893
L4489 52918
" />
</g>
<g style="fill:#000000; fill-opacity:0.0; 
stroke:#000000; stroke-width:39.3701; stroke-opacity:1; 
stroke-linecap:round; stroke-linejoin:round;">
</g>
<g style="fill:#000000; fill-opacity:0.0; 
stroke:#000000; stroke-width:59.0551; stroke-opacity:1; 
stroke-linecap:round; stroke-linejoin:round;">
<path d="M4196 73066
L4196 72554
L4318 72554
L4391 72578
L4440 72627
L4464 72676
L4489 72773
L4489 72846
L4464 72944
L4440 72993
L4391 73041
L4318 73066
L4196 73066
" />
</g>
<g style="fill:#000000; fill-opacity:0.0; 
stroke:#000000; stroke-width:39.3701; stroke-opacity:1; 
stroke-linecap:round; stroke-linejoin:round;">
</g>
<g style="fill:#000000; fill-opacity:0.0; 
stroke:#000000; stroke-width:59.0551; stroke-opacity:1; 
stroke-linecap:round; stroke-linejoin:round;">
<path d="M112992 23622
L112205 23622
" />
</g>
<g style="fill:#000000; fill-opacity:0.0; 
stroke:#000000; stroke-width:39.3701; stroke-opacity:1; 
stroke-linecap:round; stroke-linejoin:round;">
</g>
<g style="fill:#000000; fill-opacity:0.0; 
stroke:#000000; stroke-width:59.0551; stroke-opacity:1; 
stroke-linecap:round; stroke-linejoin:round;">
<path d="M112992 43307
L112205 43307
" />
</g>
<g style="fill:#000000; fill-opacity:0.0; 
stroke:#000000; stroke-width:39.3701; stroke-opacity:1; 
stroke-linecap:round; stroke-linejoin:round;">
</g>
<g style="fill:#000000; fill-opacity:0.0; 
stroke:#000000; stroke-width:59.0551; stroke-opacity:1; 
stroke-linecap:round; stroke-linejoin:round;">
<path d="M112992 62992
L112205 62992
" />
</g>
<g style="fill:#000000; fill-opacity:0.0; 
stroke:#000000; stroke-width:39.3701; stroke-opacity:1; 
stroke-linecap:round; stroke-linejoin:round;">
</g>
<g style="fill:#000000; fill-opacity:0.0; 
stroke:#000000; stroke-width:59.0551; stroke-opacity:1; 
stroke-linecap:round; stroke-linejoin:round;">
<path d="M112477 13864
L112721 13864
" />
<path d="M112428 14011
L112599 13499
L112769 14011
" />
</g>
<g style="fill:#000000; fill-opacity:0.0; 
stroke:#000000; stroke-width:39.3701; stroke-opacity:1; 
stroke-linecap:round; stroke-linejoin:round;">
</g>
<g style="fill:#000000; fill-opacity:0.0; 
stroke:#000000; stroke-width:59.0551; stroke-opacity:1; 
stroke-linecap:round; stroke-linejoin:round;">
<path d="M112635 33428
L112708 33452
L112733 33476
L112757 33525
L112757 33598
L112733 33647
L112708 33671
L112660 33696
L112465 33696
L112465 33184
L112635 33184
L112684 33208
L112708 33233
L112733 33281
L112733 33330
L112708 33379
L112684 33403
L112635 33428
L112465 33428
" />
</g>
<g style="fill:#000000; fill-opacity:0.0; 
stroke:#000000; stroke-width:39.3701; stroke-opacity:1; 
stroke-linecap:round; stroke-linejoin:round;">
</g>
<g style="fill:#000000; fill-opacity:0.0; 
stroke:#000000; stroke-width:59.0551; stroke-opacity:1; 
stroke-linecap:round; stroke-linejoin:round;">
<path d="M112757 53332
L112733 53356
L112660 53381
L112611 53381
L112538 53356
L112489 53308
L112465 53259
L112440 53161
L112440 53088
L112465 52991
L112489 52942
L112538 52893
L112611 52869
L112660 52869
L112733 52893
L112757 52918
" />
</g>
<g style="fill:#000000; fill-opacity:0.0; 
stroke:#000000; stroke-width:39.3701; stroke-opacity:1; 
stroke-linecap:round; stroke-linejoin:round;">
</g>
<g style="fill:#000000; fill-opacity:0.0; 
stroke:#000000; stroke-width:59.0551; stroke-opacity:1; 
stroke-linecap:round; stroke-linejoin:round;">
<path d="M112465 73066
L112465 72554
L112587 72554
L112660 72578
L112708 72627
L112733 72676
L112757 72773
L112757 72846
L112733 72944
L112708 72993
L112660 73041
L112587 73066
L112465 73066
" />
</g>
<g style="fill:#000000; fill-opacity:0.0; 
stroke:#000000; stroke-width:39.3701; stroke-opacity:1; 
stroke-linecap:round; stroke-linejoin:round;">
</g>
<g style="fill:#000000; fill-opacity:0.0; 
stroke:#000000; stroke-width:59.0551; stroke-opacity:1; 
stroke-linecap:round; stroke-linejoin:round;">
<path d="M78881 76293
L78881 75703
L79022 75703
L79106 75731
L79162 75787
L79190 75843
L79219 75956
L79219 76040
L79190 76153
L79162 76209
L79106 76265
L79022 76293
L78881 76293
" />
<path d="M79725 76293
L79725 75984
L79697 75928
L79640 75899
L79528 75899
L79472 75928
" />
<path d="M79725 76265
L79669 76293
L79528 76293
L79472 76265
L79444 76209
L79444 76153
L79472 76096
L79528 76068
L79669 76068
L79725 76040
" />
<path d="M79922 75899
L80147 75899
" />
<path d="M80006 75703
L80006 76209
L80034 76265
L80090 76293
L80147 76293
" />
<path d="M80568 76265
L80512 76293
L80400 76293
L80343 76265
L80315 76209
L80315 75984
L80343 75928
L80400 75899
L80512 75899
L80568 75928
L80597 75984
L80597 76040
L80315 76096
" />
<path d="M80850 76237
L80878 76265
L80850 76293
L80822 76265
L80850 76237
L80850 76293
" />
<path d="M80850 75928
L80878 75956
L80850 75984
L80822 75956
L80850 75928
L80850 75984
" />
<path d="M81553 75759
L81581 75731
L81637 75703
L81778 75703
L81834 75731
L81862 75759
L81890 75815
L81890 75871
L81862 75956
L81525 76293
L81890 76293
" />
<path d="M82256 75703
L82312 75703
L82368 75731
L82396 75759
L82424 75815
L82453 75928
L82453 76068
L82424 76181
L82396 76237
L82368 76265
L82312 76293
L82256 76293
L82199 76265
L82171 76237
L82143 76181
L82115 76068
L82115 75928
L82143 75815
L82171 75759
L82199 75731
L82256 75703
" />
<path d="M83015 76293
L82678 76293
" />
<path d="M82846 76293
L82846 75703
L82790 75787
L82734 75843
L82678 75871
" />
<path d="M83212 75703
L83606 75703
L83352 76293
" />
<path d="M83831 76068
L84280 76068
" />
<path d="M84674 75703
L84730 75703
L84787 75731
L84815 75759
L84843 75815
L84871 75928
L84871 76068
L84843 76181
L84815 76237
L84787 76265
L84730 76293
L84674 76293
L84618 76265
L84590 76237
L84562 76181
L84534 76068
L84534 75928
L84562 75815
L84590 75759
L84618 75731
L84674 75703
" />
<path d="M85377 75899
L85377 76293
" />
<path d="M85237 75674
L85096 76096
L85462 76096
" />
<path d="M85687 76068
L86136 76068
" />
<path d="M86727 76293
L86390 76293
" />
<path d="M86558 76293
L86558 75703
L86502 75787
L86446 75843
L86390 75871
" />
<path d="M86952 75759
L86980 75731
L87036 75703
L87177 75703
L87233 75731
L87261 75759
L87289 75815
L87289 75871
L87261 75956
L86924 76293
L87289 76293
" />
</g>
<g style="fill:#000000; fill-opacity:0.0; 
stroke:#000000; stroke-width:39.3701; stroke-opacity:1; 
stroke-linecap:round; stroke-linejoin:round;">
</g>
<g style="fill:#000000; fill-opacity:0.0; 
stroke:#000000; stroke-width:59.0551; stroke-opacity:1; 
stroke-linecap:round; stroke-linejoin:round;">
<path d="M69685 76577
L112205 76577
" />
</g>
<g style="fill:#000000; fill-opacity:0.0; 
stroke:#000000; stroke-width:39.3701; stroke-opacity:1; 
stroke-linecap:round; stroke-linejoin:round;">
</g>
<g style="fill:#000000; fill-opacity:0.0; 
stroke:#000000; stroke-width:59.0551; stroke-opacity:1; 
stroke-linecap:round; stroke-linejoin:round;">
<path d="M70220 77395
L70220 76805
" />
<path d="M70557 77395
L70304 77058
" />
<path d="M70557 76805
L70220 77142
" />
<path d="M70810 77395
L70810 77002
" />
<path d="M70810 76805
L70782 76833
L70810 76861
L70838 76833
L70810 76805
L70810 76861
" />
<path d="M71429 77339
L71401 77367
L71316 77395
L71260 77395
L71176 77367
L71120 77311
L71091 77255
L71063 77142
L71063 77058
L71091 76946
L71120 76889
L71176 76833
L71260 76805
L71316 76805
L71401 76833
L71429 76861
" />
<path d="M71935 77395
L71935 77086
L71907 77030
L71851 77002
L71738 77002
L71682 77030
" />
<path d="M71935 77367
L71879 77395
L71738 77395
L71682 77367
L71654 77311
L71654 77255
L71682 77199
L71738 77171
L71879 77171
L71935 77142
" />
<path d="M72469 77395
L72469 76805
" />
<path d="M72469 77367
L72413 77395
L72301 77395
L72244 77367
L72216 77339
L72188 77283
L72188 77114
L72216 77058
L72244 77030
L72301 77002
L72413 77002
L72469 77030
" />
<path d="M73201 77086
L73397 77086
" />
<path d="M73482 77395
L73201 77395
L73201 76805
L73482 76805
" />
<path d="M73735 77339
L73763 77367
L73735 77395
L73707 77367
L73735 77339
L73735 77395
" />
<path d="M74016 77395
L74016 76805
L74157 76805
L74241 76833
L74297 76889
L74325 76946
L74354 77058
L74354 77142
L74325 77255
L74297 77311
L74241 77367
L74157 77395
L74016 77395
" />
<path d="M74607 77339
L74635 77367
L74607 77395
L74579 77367
L74607 77339
L74607 77395
" />
<path d="M74860 77227
L75141 77227
" />
<path d="M74804 77395
L75000 76805
L75197 77395
" />
<path d="M75394 77339
L75422 77367
L75394 77395
L75366 77367
L75394 77339
L75394 77395
" />
<path d="M76575 77395
L76575 76805
" />
<path d="M76631 77171
L76800 77395
" />
<path d="M76800 77002
L76575 77227
" />
<path d="M77053 77395
L77053 77002
" />
<path d="M77053 76805
L77025 76833
L77053 76861
L77081 76833
L77053 76805
L77053 76861
" />
<path d="M77588 77367
L77531 77395
L77419 77395
L77363 77367
L77334 77339
L77306 77283
L77306 77114
L77334 77058
L77363 77030
L77419 77002
L77531 77002
L77588 77030
" />
<path d="M78094 77395
L78094 77086
L78066 77030
L78009 77002
L77897 77002
L77841 77030
" />
<path d="M78094 77367
L78037 77395
L77897 77395
L77841 77367
L77813 77311
L77813 77255
L77841 77199
L77897 77171
L78037 77171
L78094 77142
" />
<path d="M78628 77395
L78628 76805
" />
<path d="M78628 77367
L78572 77395
L78459 77395
L78403 77367
L78375 77339
L78347 77283
L78347 77114
L78375 77058
L78403 77030
L78459 77002
L78572 77002
L78628 77030
" />
<path d="M79612 77002
L79612 77395
" />
<path d="M79472 76777
L79331 77199
L79697 77199
" />
<path d="M79922 77339
L79950 77367
L79922 77395
L79894 77367
L79922 77339
L79922 77395
" />
<path d="M80315 76805
L80372 76805
L80428 76833
L80456 76861
L80484 76917
L80512 77030
L80512 77171
L80484 77283
L80456 77339
L80428 77367
L80372 77395
L80315 77395
L80259 77367
L80231 77339
L80203 77283
L80175 77171
L80175 77030
L80203 76917
L80231 76861
L80259 76833
L80315 76805
" />
<path d="M80765 77339
L80793 77367
L80765 77395
L80737 77367
L80765 77339
L80765 77395
" />
<path d="M81356 77395
L81018 77395
" />
<path d="M81187 77395
L81187 76805
L81131 76889
L81075 76946
L81018 76974
" />
<path d="M81609 77171
L82059 77171
" />
<path d="M82312 77367
L82368 77395
L82481 77395
L82537 77367
L82565 77311
L82565 77283
L82537 77227
L82481 77199
L82396 77199
L82340 77171
L82312 77114
L82312 77086
L82340 77030
L82396 77002
L82481 77002
L82537 77030
" />
<path d="M82734 77002
L82959 77002
" />
<path d="M82818 76805
L82818 77311
L82846 77367
L82903 77395
L82959 77395
" />
<path d="M83409 77395
L83409 77086
L83381 77030
L83324 77002
L83212 77002
L83156 77030
" />
<path d="M83409 77367
L83352 77395
L83212 77395
L83156 77367
L83127 77311
L83127 77255
L83156 77199
L83212 77171
L83352 77171
L83409 77142
" />
<path d="M83690 77395
L83690 76805
" />
<path d="M83690 77030
L83746 77002
L83859 77002
L83915 77030
L83943 77058
L83971 77114
L83971 77283
L83943 77339
L83915 77367
L83859 77395
L83746 77395
L83690 77367
" />
<path d="M84309 77395
L84252 77367
L84224 77311
L84224 76805
" />
<path d="M84759 77367
L84702 77395
L84590 77395
L84534 77367
L84505 77311
L84505 77086
L84534 77030
L84590 77002
L84702 77002
L84759 77030
L84787 77086
L84787 77142
L84505 77199
" />
</g>
<g style="fill:#000000; fill-opacity:0.0; 
stroke:#000000; stroke-width:39.3701; stroke-opacity:1; 
stroke-linecap:round; stroke-linejoin:round;">
</g>
<g style="fill:#000000; fill-opacity:0.0; 
stroke:#000000; stroke-width:59.0551; stroke-opacity:1; 
stroke-linecap:round; stroke-linejoin:round;">
<path d="M69685 75396
L112205 75396
" />
</g>
<g style="fill:#000000; fill-opacity:0.0; 
stroke:#000000; stroke-width:39.3701; stroke-opacity:1; 
stroke-linecap:round; stroke-linejoin:round;">
</g>
<g style="fill:#000000; fill-opacity:0.0; 
stroke:#000000; stroke-width:118.11; stroke-opacity:1; 
stroke-linecap:round; stroke-linejoin:round;">
<path d="M104022 76293
L103825 76012
" />
<path d="M103684 76293
L103684 75703
L103909 75703
L103965 75731
L103994 75759
L104022 75815
L104022 75899
L103994 75956
L103965 75984
L103909 76012
L103684 76012
" />
<path d="M104500 76265
L104444 76293
L104331 76293
L104275 76265
L104247 76209
L104247 75984
L104275 75928
L104331 75899
L104444 75899
L104500 75928
L104528 75984
L104528 76040
L104247 76096
" />
<path d="M104725 75899
L104865 76293
L105006 75899
" />
<path d="M105231 76237
L105259 76265
L105231 76293
L105203 76265
L105231 76237
L105231 76293
" />
<path d="M105231 75928
L105259 75956
L105231 75984
L105203 75956
L105231 75928
L105231 75984
" />
<path d="M105906 75899
L106046 76293
L106187 75899
" />
<path d="M106721 76293
L106384 76293
" />
<path d="M106553 76293
L106553 75703
L106496 75787
L106440 75843
L106384 75871
" />
<path d="M106974 76237
L107003 76265
L106974 76293
L106946 76265
L106974 76237
L106974 76293
" />
<path d="M107565 76293
L107228 76293
" />
<path d="M107396 76293
L107396 75703
L107340 75787
L107284 75843
L107228 75871
" />
</g>
<g style="fill:#000000; fill-opacity:0.0; 
stroke:#000000; stroke-width:39.3701; stroke-opacity:1; 
stroke-linecap:round; stroke-linejoin:round;">
</g>
<g style="fill:#000000; fill-opacity:0.0; 
stroke:#000000; stroke-width:59.0551; stroke-opacity:1; 
stroke-linecap:round; stroke-linejoin:round;">
<path d="M70192 76265
L70276 76293
L70417 76293
L70473 76265
L70501 76237
L70529 76181
L70529 76124
L70501 76068
L70473 76040
L70417 76012
L70304 75984
L70248 75956
L70220 75928
L70192 75871
L70192 75815
L70220 75759
L70248 75731
L70304 75703
L70445 75703
L70529 75731
" />
<path d="M70782 76293
L70782 75899
" />
<path d="M70782 75703
L70754 75731
L70782 75759
L70810 75731
L70782 75703
L70782 75759
" />
<path d="M71007 75899
L71316 75899
L71007 76293
L71316 76293
" />
<path d="M71766 76265
L71710 76293
L71598 76293
L71541 76265
L71513 76209
L71513 75984
L71541 75928
L71598 75899
L71710 75899
L71766 75928
L71795 75984
L71795 76040
L71513 76096
" />
<path d="M72048 76237
L72076 76265
L72048 76293
L72019 76265
L72048 76237
L72048 76293
" />
<path d="M72048 75928
L72076 75956
L72048 75984
L72019 75956
L72048 75928
L72048 75984
" />
<path d="M72751 76124
L73032 76124
" />
<path d="M72694 76293
L72891 75703
L73088 76293
" />
<path d="M73538 75899
L73538 76293
" />
<path d="M73397 75674
L73257 76096
L73622 76096
" />
</g>
<g style="fill:#000000; fill-opacity:0.0; 
stroke:#000000; stroke-width:39.3701; stroke-opacity:1; 
stroke-linecap:round; stroke-linejoin:round;">
</g>
<g style="fill:#000000; fill-opacity:0.0; 
stroke:#000000; stroke-width:59.0551; stroke-opacity:1; 
stroke-linecap:round; stroke-linejoin:round;">
<path d="M103684 77395
L103684 76805
" />
<path d="M104219 77395
L104219 76805
" />
<path d="M104219 77367
L104162 77395
L104050 77395
L103994 77367
L103965 77339
L103937 77283
L103937 77114
L103965 77058
L103994 77030
L104050 77002
L104162 77002
L104219 77030
" />
<path d="M104500 77339
L104528 77367
L104500 77395
L104472 77367
L104500 77339
L104500 77395
" />
<path d="M104500 77030
L104528 77058
L104500 77086
L104472 77058
L104500 77030
L104500 77086
" />
<path d="M105540 77395
L105203 77395
" />
<path d="M105372 77395
L105372 76805
L105315 76889
L105259 76946
L105203 76974
" />
<path d="M106215 76777
L105709 77536
" />
<path d="M106721 77395
L106384 77395
" />
<path d="M106553 77395
L106553 76805
L106496 76889
L106440 76946
L106384 76974
" />
</g>
<g style="fill:#000000; fill-opacity:0.0; 
stroke:#000000; stroke-width:39.3701; stroke-opacity:1; 
stroke-linecap:round; stroke-linejoin:round;">
</g>
<g style="fill:#000000; fill-opacity:0.0; 
stroke:#000000; stroke-width:59.0551; stroke-opacity:1; 
stroke-linecap:round; stroke-linejoin:round;">
<path d="M69685 73821
L112205 73821
" />
</g>
<g style="fill:#000000; fill-opacity:0.0; 
stroke:#000000; stroke-width:39.3701; stroke-opacity:1; 
stroke-linecap:round; stroke-linejoin:round;">
</g>
<g style="fill:#000000; fill-opacity:0.0; 
stroke:#000000; stroke-width:157.48; stroke-opacity:1; 
stroke-linecap:round; stroke-linejoin:round;">
<path d="M70257 74099
L70707 74099
" />
<path d="M70384 74886
L70482 74099
" />
<path d="M70871 74886
L70937 74361
" />
<path d="M70970 74099
L70927 74136
L70960 74174
L71002 74136
L70970 74099
L70960 74174
" />
<path d="M71199 74361
L71499 74361
" />
<path d="M71345 74099
L71260 74774
L71288 74849
L71359 74886
L71434 74886
" />
<path d="M71809 74886
L71738 74849
L71710 74774
L71795 74099
" />
<path d="M72413 74849
L72334 74886
L72184 74886
L72113 74849
L72085 74774
L72123 74474
L72169 74399
L72249 74361
L72399 74361
L72469 74399
L72498 74474
L72488 74549
L72104 74624
" />
<path d="M72793 74811
L72826 74849
L72783 74886
L72751 74849
L72793 74811
L72783 74886
" />
<path d="M72844 74399
L72877 74436
L72835 74474
L72802 74436
L72844 74399
L72835 74474
" />
<path d="M74171 74886
L73721 74886
" />
<path d="M73946 74886
L74044 74099
L73955 74211
L73871 74286
L73791 74324
" />
<path d="M74560 74174
L74602 74136
L74682 74099
L74869 74099
L74939 74136
L74972 74174
L75000 74249
L74991 74324
L74939 74436
L74433 74886
L74921 74886
" />
<path d="M75507 74099
L75582 74099
L75652 74136
L75685 74174
L75713 74249
L75732 74399
L75708 74586
L75652 74736
L75605 74811
L75563 74849
L75483 74886
L75408 74886
L75338 74849
L75305 74811
L75277 74736
L75258 74586
L75282 74399
L75338 74249
L75385 74174
L75427 74136
L75507 74099
" />
<path d="M76046 74586
L76645 74586
" />
<path d="M77325 74849
L77245 74886
L77095 74886
L77025 74849
L76992 74811
L76964 74736
L76992 74511
L77039 74436
L77081 74399
L77161 74361
L77311 74361
L77381 74399
" />
<path d="M77658 74886
L77756 74099
" />
<path d="M77995 74886
L78047 74474
L78019 74399
L77948 74361
L77836 74361
L77756 74399
L77714 74436
" />
<path d="M78708 74886
L78759 74474
L78731 74399
L78661 74361
L78511 74361
L78431 74399
" />
<path d="M78712 74849
L78633 74886
L78445 74886
L78375 74849
L78347 74774
L78356 74699
L78403 74624
L78483 74586
L78670 74586
L78750 74549
" />
<path d="M79148 74361
L79083 74886
" />
<path d="M79139 74436
L79181 74399
L79261 74361
L79373 74361
L79444 74399
L79472 74474
L79420 74886
" />
<path d="M79861 74361
L79795 74886
" />
<path d="M79851 74436
L79894 74399
L79973 74361
L80086 74361
L80156 74399
L80184 74474
L80133 74886
" />
<path d="M80812 74849
L80732 74886
L80582 74886
L80512 74849
L80484 74774
L80522 74474
L80568 74399
L80648 74361
L80798 74361
L80868 74399
L80897 74474
L80887 74549
L80503 74624
" />
<path d="M81295 74886
L81225 74849
L81196 74774
L81281 74099
" />
<path d="M82148 74361
L82448 74361
" />
<path d="M82293 74099
L82209 74774
L82237 74849
L82307 74886
L82382 74886
" />
<path d="M82949 74849
L82870 74886
L82720 74886
L82649 74849
L82621 74774
L82659 74474
L82706 74399
L82785 74361
L82935 74361
L83006 74399
L83034 74474
L83024 74549
L82640 74624
" />
<path d="M83287 74849
L83357 74886
L83507 74886
L83587 74849
L83634 74774
L83638 74736
L83610 74661
L83540 74624
L83427 74624
L83357 74586
L83329 74511
L83334 74474
L83381 74399
L83460 74361
L83573 74361
L83643 74399
" />
<path d="M83910 74361
L84210 74361
" />
<path d="M84055 74099
L83971 74774
L83999 74849
L84070 74886
L84145 74886
" />
<path d="M85007 74886
L85105 74099
" />
<path d="M85068 74399
L85148 74361
L85298 74361
L85368 74399
L85401 74436
L85429 74511
L85401 74736
L85354 74811
L85312 74849
L85232 74886
L85082 74886
L85012 74849
" />
<path d="M85832 74886
L85762 74849
L85729 74811
L85701 74736
L85729 74511
L85776 74436
L85818 74399
L85897 74361
L86010 74361
L86080 74399
L86113 74436
L86141 74511
L86113 74736
L86066 74811
L86024 74849
L85944 74886
L85832 74886
" />
<path d="M86769 74886
L86821 74474
L86793 74399
L86722 74361
L86572 74361
L86493 74399
" />
<path d="M86774 74849
L86694 74886
L86507 74886
L86436 74849
L86408 74774
L86418 74699
L86465 74624
L86544 74586
L86732 74586
L86811 74549
" />
<path d="M87144 74886
L87210 74361
" />
<path d="M87191 74511
L87238 74436
L87280 74399
L87360 74361
L87435 74361
" />
<path d="M87969 74886
L88067 74099
" />
<path d="M87974 74849
L87894 74886
L87744 74886
L87674 74849
L87641 74811
L87613 74736
L87641 74511
L87688 74436
L87730 74399
L87810 74361
L87960 74361
L88030 74399
" />
</g>
<g style="fill:#000000; fill-opacity:0.0; 
stroke:#000000; stroke-width:39.3701; stroke-opacity:1; 
stroke-linecap:round; stroke-linejoin:round;">
</g>
<g style="fill:#000000; fill-opacity:0.0; 
stroke:#000000; stroke-width:59.0551; stroke-opacity:1; 
stroke-linecap:round; stroke-linejoin:round;">
<path d="M70417 73070
L70220 73070
" />
<path d="M70220 73380
L70220 72789
L70501 72789
" />
<path d="M70726 73380
L70726 72986
" />
<path d="M70726 72789
L70698 72817
L70726 72845
L70754 72817
L70726 72789
L70726 72845
" />
<path d="M71091 73380
L71035 73352
L71007 73295
L71007 72789
" />
<path d="M71541 73352
L71485 73380
L71373 73380
L71316 73352
L71288 73295
L71288 73070
L71316 73014
L71373 72986
L71485 72986
L71541 73014
L71570 73070
L71570 73127
L71288 73183
" />
<path d="M71823 73323
L71851 73352
L71823 73380
L71795 73352
L71823 73323
L71823 73380
" />
<path d="M71823 73014
L71851 73042
L71823 73070
L71795 73042
L71823 73014
L71823 73070
" />
<path d="M72863 73380
L72526 73380
" />
<path d="M72694 73380
L72694 72789
L72638 72874
L72582 72930
L72526 72958
" />
<path d="M73088 72845
L73116 72817
L73172 72789
L73313 72789
L73369 72817
L73397 72845
L73426 72902
L73426 72958
L73397 73042
L73060 73380
L73426 73380
" />
<path d="M73791 72789
L73847 72789
L73904 72817
L73932 72845
L73960 72902
L73988 73014
L73988 73155
L73960 73267
L73932 73323
L73904 73352
L73847 73380
L73791 73380
L73735 73352
L73707 73323
L73679 73267
L73651 73155
L73651 73014
L73679 72902
L73707 72845
L73735 72817
L73791 72789
" />
<path d="M74241 73155
L74691 73155
" />
<path d="M75225 73352
L75169 73380
L75057 73380
L75000 73352
L74972 73323
L74944 73267
L74944 73099
L74972 73042
L75000 73014
L75057 72986
L75169 72986
L75225 73014
" />
<path d="M75478 73380
L75478 72789
" />
<path d="M75732 73380
L75732 73070
L75703 73014
L75647 72986
L75563 72986
L75507 73014
L75478 73042
" />
<path d="M76266 73380
L76266 73070
L76238 73014
L76181 72986
L76069 72986
L76013 73014
" />
<path d="M76266 73352
L76210 73380
L76069 73380
L76013 73352
L75985 73295
L75985 73239
L76013 73183
L76069 73155
L76210 73155
L76266 73127
" />
<path d="M76547 72986
L76547 73380
" />
<path d="M76547 73042
L76575 73014
L76631 72986
L76716 72986
L76772 73014
L76800 73070
L76800 73380
" />
<path d="M77081 72986
L77081 73380
" />
<path d="M77081 73042
L77109 73014
L77166 72986
L77250 72986
L77306 73014
L77334 73070
L77334 73380
" />
<path d="M77841 73352
L77784 73380
L77672 73380
L77616 73352
L77588 73295
L77588 73070
L77616 73014
L77672 72986
L77784 72986
L77841 73014
L77869 73070
L77869 73127
L77588 73183
" />
<path d="M78206 73380
L78150 73352
L78122 73295
L78122 72789
" />
<path d="M78881 72986
L78881 73577
" />
<path d="M78881 73014
L78937 72986
L79050 72986
L79106 73014
L79134 73042
L79162 73099
L79162 73267
L79134 73323
L79106 73352
L79050 73380
L78937 73380
L78881 73352
" />
<path d="M79500 73380
L79444 73352
L79415 73323
L79387 73267
L79387 73099
L79415 73042
L79444 73014
L79500 72986
L79584 72986
L79640 73014
L79669 73042
L79697 73099
L79697 73267
L79669 73323
L79640 73352
L79584 73380
L79500 73380
" />
<path d="M80203 72986
L80203 73464
L80175 73520
L80147 73548
L80090 73577
L80006 73577
L79950 73548
" />
<path d="M80203 73352
L80147 73380
L80034 73380
L79978 73352
L79950 73323
L79922 73267
L79922 73099
L79950 73042
L79978 73014
L80034 72986
L80147 72986
L80203 73014
" />
<path d="M80568 73380
L80512 73352
L80484 73323
L80456 73267
L80456 73099
L80484 73042
L80512 73014
L80568 72986
L80653 72986
L80709 73014
L80737 73042
L80765 73099
L80765 73267
L80737 73323
L80709 73352
L80653 73380
L80568 73380
" />
<path d="M81468 72986
L81468 73577
" />
<path d="M81468 73014
L81525 72986
L81637 72986
L81693 73014
L81721 73042
L81750 73099
L81750 73267
L81721 73323
L81693 73352
L81637 73380
L81525 73380
L81468 73352
" />
<path d="M82003 73380
L82003 72986
" />
<path d="M82003 72789
L81974 72817
L82003 72845
L82031 72817
L82003 72789
L82003 72845
" />
<path d="M82284 72986
L82284 73380
" />
<path d="M82284 73042
L82312 73014
L82368 72986
L82453 72986
L82509 73014
L82537 73070
L82537 73380
" />
<path d="M83268 73380
L83268 72789
" />
<path d="M83268 73014
L83324 72986
L83437 72986
L83493 73014
L83521 73042
L83549 73099
L83549 73267
L83521 73323
L83493 73352
L83437 73380
L83324 73380
L83268 73352
" />
<path d="M83887 73380
L83831 73352
L83802 73323
L83774 73267
L83774 73099
L83802 73042
L83831 73014
L83887 72986
L83971 72986
L84027 73014
L84055 73042
L84084 73099
L84084 73267
L84055 73323
L84027 73352
L83971 73380
L83887 73380
" />
<path d="M84590 73380
L84590 73070
L84562 73014
L84505 72986
L84393 72986
L84337 73014
" />
<path d="M84590 73352
L84534 73380
L84393 73380
L84337 73352
L84309 73295
L84309 73239
L84337 73183
L84393 73155
L84534 73155
L84590 73127
" />
<path d="M84871 73380
L84871 72986
" />
<path d="M84871 73099
L84899 73042
L84927 73014
L84983 72986
L85040 72986
" />
<path d="M85490 73380
L85490 72789
" />
<path d="M85490 73352
L85433 73380
L85321 73380
L85265 73352
L85237 73323
L85208 73267
L85208 73099
L85237 73042
L85265 73014
L85321 72986
L85433 72986
L85490 73014
" />
<path d="M85771 73323
L85799 73352
L85771 73380
L85743 73352
L85771 73323
L85771 73380
" />
<path d="M86052 73380
L86052 72789
" />
<path d="M86108 73155
L86277 73380
" />
<path d="M86277 72986
L86052 73211
" />
<path d="M86530 73380
L86530 72986
" />
<path d="M86530 72789
L86502 72817
L86530 72845
L86558 72817
L86530 72789
L86530 72845
" />
<path d="M87064 73352
L87008 73380
L86896 73380
L86840 73352
L86811 73323
L86783 73267
L86783 73099
L86811 73042
L86840 73014
L86896 72986
L87008 72986
L87064 73014
" />
<path d="M87571 73380
L87571 73070
L87543 73014
L87486 72986
L87374 72986
L87318 73014
" />
<path d="M87571 73352
L87514 73380
L87374 73380
L87318 73352
L87289 73295
L87289 73239
L87318 73183
L87374 73155
L87514 73155
L87571 73127
" />
<path d="M88105 73380
L88105 72789
" />
<path d="M88105 73352
L88049 73380
L87936 73380
L87880 73352
L87852 73323
L87824 73267
L87824 73099
L87852 73042
L87880 73014
L87936 72986
L88049 72986
L88105 73014
" />
<path d="M88246 73436
L88696 73436
" />
<path d="M88836 72986
L88836 73577
" />
<path d="M88836 73014
L88892 72986
L89005 72986
L89061 73014
L89089 73042
L89117 73099
L89117 73267
L89089 73323
L89061 73352
L89005 73380
L88892 73380
L88836 73352
" />
<path d="M89624 73352
L89567 73380
L89455 73380
L89399 73352
L89370 73323
L89342 73267
L89342 73099
L89370 73042
L89399 73014
L89455 72986
L89567 72986
L89624 73014
" />
<path d="M89877 73380
L89877 72789
" />
<path d="M89877 73014
L89933 72986
L90045 72986
L90102 73014
L90130 73042
L90158 73099
L90158 73267
L90130 73323
L90102 73352
L90045 73380
L89933 73380
L89877 73352
" />
</g>
<g style="fill:#000000; fill-opacity:0.0; 
stroke:#000000; stroke-width:39.3701; stroke-opacity:1; 
stroke-linecap:round; stroke-linejoin:round;">
</g>
<g style="fill:#000000; fill-opacity:0.0; 
stroke:#000000; stroke-width:59.0551; stroke-opacity:1; 
stroke-linecap:round; stroke-linejoin:round;">
<path d="M69685 71459
L112205 71459
" />
</g>
<g style="fill:#000000; fill-opacity:0.0; 
stroke:#000000; stroke-width:39.3701; stroke-opacity:1; 
stroke-linecap:round; stroke-linejoin:round;">
</g>
<g style="fill:#000000; fill-opacity:0.0; 
stroke:#000000; stroke-width:59.0551; stroke-opacity:1; 
stroke-linecap:round; stroke-linejoin:round;">
<path d="M70192 72289
L70276 72317
L70417 72317
L70473 72289
L70501 72260
L70529 72204
L70529 72148
L70501 72092
L70473 72064
L70417 72036
L70304 72007
L70248 71979
L70220 71951
L70192 71895
L70192 71839
L70220 71782
L70248 71754
L70304 71726
L70445 71726
L70529 71754
" />
<path d="M70782 72317
L70782 71726
" />
<path d="M71035 72317
L71035 72007
L71007 71951
L70951 71923
L70867 71923
L70810 71951
L70782 71979
" />
<path d="M71541 72289
L71485 72317
L71373 72317
L71316 72289
L71288 72232
L71288 72007
L71316 71951
L71373 71923
L71485 71923
L71541 71951
L71570 72007
L71570 72064
L71288 72120
" />
<path d="M72048 72289
L71991 72317
L71879 72317
L71823 72289
L71795 72232
L71795 72007
L71823 71951
L71879 71923
L71991 71923
L72048 71951
L72076 72007
L72076 72064
L71795 72120
" />
<path d="M72244 71923
L72469 71923
" />
<path d="M72329 71726
L72329 72232
L72357 72289
L72413 72317
L72469 72317
" />
<path d="M72666 72260
L72694 72289
L72666 72317
L72638 72289
L72666 72260
L72666 72317
" />
<path d="M72666 71951
L72694 71979
L72666 72007
L72638 71979
L72666 71951
L72666 72007
" />
</g>
<g style="fill:#000000; fill-opacity:0.0; 
stroke:#000000; stroke-width:39.3701; stroke-opacity:1; 
stroke-linecap:round; stroke-linejoin:round;">
</g>
<g style="fill:#000000; fill-opacity:0.0; 
stroke:#000000; stroke-width:118.11; stroke-opacity:1; 
stroke-linecap:round; stroke-linejoin:round;">
<path d="M70192 71108
L70276 71136
L70417 71136
L70473 71108
L70501 71079
L70529 71023
L70529 70967
L70501 70911
L70473 70883
L70417 70854
L70304 70826
L70248 70798
L70220 70770
L70192 70714
L70192 70658
L70220 70601
L70248 70573
L70304 70545
L70445 70545
L70529 70573
" />
<path d="M71035 71108
L70979 71136
L70867 71136
L70810 71108
L70782 71079
L70754 71023
L70754 70854
L70782 70798
L70810 70770
L70867 70742
L70979 70742
L71035 70770
" />
<path d="M71288 71136
L71288 70742
" />
<path d="M71288 70545
L71260 70573
L71288 70601
L71316 70573
L71288 70545
L71288 70601
" />
<path d="M71570 70911
L72019 70911
" />
<path d="M72498 70826
L72582 70854
L72610 70883
L72638 70939
L72638 71023
L72610 71079
L72582 71108
L72526 71136
L72301 71136
L72301 70545
L72498 70545
L72554 70573
L72582 70601
L72610 70658
L72610 70714
L72582 70770
L72554 70798
L72498 70826
L72301 70826
" />
<path d="M72976 71136
L72919 71108
L72891 71079
L72863 71023
L72863 70854
L72891 70798
L72919 70770
L72976 70742
L73060 70742
L73116 70770
L73144 70798
L73172 70854
L73172 71023
L73144 71079
L73116 71108
L73060 71136
L72976 71136
" />
<path d="M73341 70742
L73566 70742
" />
<path d="M73426 70545
L73426 71051
L73454 71108
L73510 71136
L73566 71136
" />
<path d="M73735 71108
L73791 71136
L73904 71136
L73960 71108
L73988 71051
L73988 71023
L73960 70967
L73904 70939
L73819 70939
L73763 70911
L73735 70854
L73735 70826
L73763 70770
L73819 70742
L73904 70742
L73960 70770
" />
<path d="M74691 71136
L74691 70545
" />
<path d="M74972 70742
L74972 71136
" />
<path d="M74972 70798
L75000 70770
L75057 70742
L75141 70742
L75197 70770
L75225 70826
L75225 71136
" />
<path d="M75760 71108
L75703 71136
L75591 71136
L75535 71108
L75507 71079
L75478 71023
L75478 70854
L75507 70798
L75535 70770
L75591 70742
L75703 70742
L75760 70770
" />
<path d="M76013 71079
L76041 71108
L76013 71136
L75985 71108
L76013 71079
L76013 71136
" />
</g>
<g style="fill:#000000; fill-opacity:0.0; 
stroke:#000000; stroke-width:39.3701; stroke-opacity:1; 
stroke-linecap:round; stroke-linejoin:round;">
</g>
<g style="fill:#000000; fill-opacity:0.0; 
stroke:#000000; stroke-width:59.0551; stroke-opacity:1; 
stroke-linecap:round; stroke-linejoin:round;">
<path d="M77559 75396
L77559 76577
" />
</g>
<g style="fill:#000000; fill-opacity:0.0; 
stroke:#000000; stroke-width:39.3701; stroke-opacity:1; 
stroke-linecap:round; stroke-linejoin:round;">
</g>
<g style="fill:#000000; fill-opacity:0.0; 
stroke:#000000; stroke-width:59.0551; stroke-opacity:1; 
stroke-linecap:round; stroke-linejoin:round;">
<path d="M102756 75396
L102756 77955
" />
</g>
<g style="fill:#000000; fill-opacity:0.0; 
stroke:#000000; stroke-width:150; stroke-opacity:1; 
stroke-linecap:round; stroke-linejoin:round;">
<path d="M44961 13963
L15038 13963
" />
<path d="M44961 34036
L44961 13963
" />
<path d="M15038 34036
L44961 34036
" />
<path d="M15038 13963
L15038 34036
" />
</g>
<g style="fill:#000000; fill-opacity:0.0; 
stroke:#000000; stroke-width:0; stroke-opacity:1; 
stroke-linecap:round; stroke-linejoin:round;">
</g>
<g style="fill:#000000; fill-opacity:1.0; 
stroke:#000000; stroke-width:0; stroke-opacity:1; 
stroke-linecap:round; stroke-linejoin:round;">
<polyline style="fill-rule:evenodd;"
points="30362,17414
30362,16585
30956,16585
30956,17414
30362,17414
" /> 
<polyline style="fill-rule:evenodd;"
points="31543,17414
31543,16585
32137,16585
32137,17414
31543,17414
" /> 
<polyline style="fill-rule:evenodd;"
points="32862,17414
32862,16585
33456,16585
33456,17414
32862,17414
" /> 
<polyline style="fill-rule:evenodd;"
points="34043,17414
34043,16585
34637,16585
34637,17414
34043,17414
" /> 
<polyline style="fill-rule:evenodd;"
points="35362,17414
35362,16585
35956,16585
35956,17414
35362,17414
" /> 
<polyline style="fill-rule:evenodd;"
points="36543,17414
36543,16585
37137,16585
37137,17414
36543,17414
" /> 
<polyline style="fill-rule:evenodd;"
points="37862,17414
37862,16585
38456,16585
38456,17414
37862,17414
" /> 
<polyline style="fill-rule:evenodd;"
points="39043,17414
39043,16585
39637,16585
39637,17414
39043,17414
" /> 
<polyline style="fill-rule:evenodd;"
points="30362,18414
30362,17585
30956,17585
30956,18414
30362,18414
" /> 
<polyline style="fill-rule:evenodd;"
points="31543,18414
31543,17585
32137,17585
32137,18414
31543,18414
" /> 
<polyline style="fill-rule:evenodd;"
points="32862,18414
32862,17585
33456,17585
33456,18414
32862,18414
" /> 
<polyline style="fill-rule:evenodd;"
points="34043,18414
34043,17585
34637,17585
34637,18414
34043,18414
" /> 
<polyline style="fill-rule:evenodd;"
points="35362,18414
35362,17585
35956,17585
35956,18414
35362,18414
" /> 
<polyline style="fill-rule:evenodd;"
points="36543,18414
36543,17585
37137,17585
37137,18414
36543,18414
" /> 
<polyline style="fill-rule:evenodd;"
points="37862,18414
37862,17585
38456,17585
38456,18414
37862,18414
" /> 
<polyline style="fill-rule:evenodd;"
points="39043,18414
39043,17585
39637,17585
39637,18414
39043,18414
" /> 
<polyline style="fill-rule:evenodd;"
points="30362,19414
30362,18585
30956,18585
30956,19414
30362,19414
" /> 
<polyline style="fill-rule:evenodd;"
points="31543,19414
31543,18585
32137,18585
32137,19414
31543,19414
" /> 
<polyline style="fill-rule:evenodd;"
points="32862,19414
32862,18585
33456,18585
33456,19414
32862,19414
" /> 
<polyline style="fill-rule:evenodd;"
points="34043,19414
34043,18585
34637,18585
34637,19414
34043,19414
" /> 
<polyline style="fill-rule:evenodd;"
points="35362,19414
35362,18585
35956,18585
35956,19414
35362,19414
" /> 
<polyline style="fill-rule:evenodd;"
points="36543,19414
36543,18585
37137,18585
37137,19414
36543,19414
" /> 
<polyline style="fill-rule:evenodd;"
points="37862,19414
37862,18585
38456,18585
38456,19414
37862,19414
" /> 
<polyline style="fill-rule:evenodd;"
points="39043,19414
39043,18585
39637,18585
39637,19414
39043,19414
" /> 
<polyline style="fill-rule:evenodd;"
points="30362,20414
30362,19585
30956,19585
30956,20414
30362,20414
" /> 
<polyline style="fill-rule:evenodd;"
points="31543,20414
31543,19585
32137,19585
32137,20414
31543,20414
" /> 
<polyline style="fill-rule:evenodd;"
points="32862,20414
32862,19585
33456,19585
33456,20414
32862,20414
" /> 
<polyline style="fill-rule:evenodd;"
points="34043,20414
34043,19585
34637,19585
34637,20414
34043,20414
" /> 
<polyline style="fill-rule:evenodd;"
points="35362,20414
35362,19585
35956,19585
35956,20414
35362,20414
" /> 
<polyline style="fill-rule:evenodd;"
points="36543,20414
36543,19585
37137,19585
37137,20414
36543,20414
" /> 
<polyline style="fill-rule:evenodd;"
points="37862,20414
37862,19585
38456,19585
38456,20414
37862,20414
" /> 
<polyline style="fill-rule:evenodd;"
points="39043,20414
39043,19585
39637,19585
39637,20414
39043,20414
" /> 
<polyline style="fill-rule:evenodd;"
points="30362,21414
30362,20585
30956,20585
30956,21414
30362,21414
" /> 
<polyline style="fill-rule:evenodd;"
points="31543,21414
31543,20585
32137,20585
32137,21414
31543,21414
" /> 
<polyline style="fill-rule:evenodd;"
points="32862,21414
32862,20585
33456,20585
33456,21414
32862,21414
" /> 
<polyline style="fill-rule:evenodd;"
points="34043,21414
34043,20585
34637,20585
34637,21414
34043,21414
" /> 
<polyline style="fill-rule:evenodd;"
points="35362,21414
35362,20585
35956,20585
35956,21414
35362,21414
" /> 
<polyline style="fill-rule:evenodd;"
points="36543,21414
36543,20585
37137,20585
37137,21414
36543,21414
" /> 
<polyline style="fill-rule:evenodd;"
points="37862,21414
37862,20585
38456,20585
38456,21414
37862,21414
" /> 
<polyline style="fill-rule:evenodd;"
points="39043,21414
39043,20585
39637,20585
39637,21414
39043,21414
" /> 
<polyline style="fill-rule:evenodd;"
points="30362,22414
30362,21585
30956,21585
30956,22414
30362,22414
" /> 
<polyline style="fill-rule:evenodd;"
points="31543,22414
31543,21585
32137,21585
32137,22414
31543,22414
" /> 
<polyline style="fill-rule:evenodd;"
points="32862,22414
32862,21585
33456,21585
33456,22414
32862,22414
" /> 
<polyline style="fill-rule:evenodd;"
points="34043,22414
34043,21585
34637,21585
34637,22414
34043,22414
" /> 
<polyline style="fill-rule:evenodd;"
points="35362,22414
35362,21585
35956,21585
35956,22414
35362,22414
" /> 
<polyline style="fill-rule:evenodd;"
points="36543,22414
36543,21585
37137,21585
37137,22414
36543,22414
" /> 
<polyline style="fill-rule:evenodd;"
points="37862,22414
37862,21585
38456,21585
38456,22414
37862,22414
" /> 
<polyline style="fill-rule:evenodd;"
points="39043,22414
39043,21585
39637,21585
39637,22414
39043,22414
" /> 
<polyline style="fill-rule:evenodd;"
points="30362,23414
30362,22585
30956,22585
30956,23414
30362,23414
" /> 
<polyline style="fill-rule:evenodd;"
points="31543,23414
31543,22585
32137,22585
32137,23414
31543,23414
" /> 
<polyline style="fill-rule:evenodd;"
points="32862,23414
32862,22585
33456,22585
33456,23414
32862,23414
" /> 
<polyline style="fill-rule:evenodd;"
points="34043,23414
34043,22585
34637,22585
34637,23414
34043,23414
" /> 
<polyline style="fill-rule:evenodd;"
points="35362,23414
35362,22585
35956,22585
35956,23414
35362,23414
" /> 
<polyline style="fill-rule:evenodd;"
points="36543,23414
36543,22585
37137,22585
37137,23414
36543,23414
" /> 
<polyline style="fill-rule:evenodd;"
points="37862,23414
37862,22585
38456,22585
38456,23414
37862,23414
" /> 
<polyline style="fill-rule:evenodd;"
points="39043,23414
39043,22585
39637,22585
39637,23414
39043,23414
" /> 
<polyline style="fill-rule:evenodd;"
points="30362,24414
30362,23585
30956,23585
30956,24414
30362,24414
" /> 
<polyline style="fill-rule:evenodd;"
points="31543,24414
31543,23585
32137,23585
32137,24414
31543,24414
" /> 
<polyline style="fill-rule:evenodd;"
points="32862,24414
32862,23585
33456,23585
33456,24414
32862,24414
" /> 
<polyline style="fill-rule:evenodd;"
points="34043,24414
34043,23585
34637,23585
34637,24414
34043,24414
" /> 
<polyline style="fill-rule:evenodd;"
points="35362,24414
35362,23585
35956,23585
35956,24414
35362,24414
" /> 
<polyline style="fill-rule:evenodd;"
points="36543,24414
36543,23585
37137,23585
37137,24414
36543,24414
" /> 
<polyline style="fill-rule:evenodd;"
points="37862,24414
37862,23585
38456,23585
38456,24414
37862,24414
" /> 
<polyline style="fill-rule:evenodd;"
points="39043,24414
39043,23585
39637,23585
39637,24414
39043,24414
" /> 
<polyline style="fill-rule:evenodd;"
points="30362,25414
30362,24585
30956,24585
30956,25414
30362,25414
" /> 
<polyline style="fill-rule:evenodd;"
points="31543,25414
31543,24585
32137,24585
32137,25414
31543,25414
" /> 
<polyline style="fill-rule:evenodd;"
points="32862,25414
32862,24585
33456,24585
33456,25414
32862,25414
" /> 
<polyline style="fill-rule:evenodd;"
points="34043,25414
34043,24585
34637,24585
34637,25414
34043,25414
" /> 
<polyline style="fill-rule:evenodd;"
points="35362,25414
35362,24585
35956,24585
35956,25414
35362,25414
" /> 
<polyline style="fill-rule:evenodd;"
points="36543,25414
36543,24585
37137,24585
37137,25414
36543,25414
" /> 
<polyline style="fill-rule:evenodd;"
points="37862,25414
37862,24585
38456,24585
38456,25414
37862,25414
" /> 
<polyline style="fill-rule:evenodd;"
points="39043,25414
39043,24585
39637,24585
39637,25414
39043,25414
" /> 
<polyline style="fill-rule:evenodd;"
points="30362,26414
30362,25585
30956,25585
30956,26414
30362,26414
" /> 
<polyline style="fill-rule:evenodd;"
points="31543,26414
31543,25585
32137,25585
32137,26414
31543,26414
" /> 
<polyline style="fill-rule:evenodd;"
points="32862,26414
32862,25585
33456,25585
33456,26414
32862,26414
" /> 
<polyline style="fill-rule:evenodd;"
points="34043,26414
34043,25585
34637,25585
34637,26414
34043,26414
" /> 
<polyline style="fill-rule:evenodd;"
points="35362,26414
35362,25585
35956,25585
35956,26414
35362,26414
" /> 
<polyline style="fill-rule:evenodd;"
points="36543,26414
36543,25585
37137,25585
37137,26414
36543,26414
" /> 
<polyline style="fill-rule:evenodd;"
points="37862,26414
37862,25585
38456,25585
38456,26414
37862,26414
" /> 
<polyline style="fill-rule:evenodd;"
points="39043,26414
39043,25585
39637,25585
39637,26414
39043,26414
" /> 
<polyline style="fill-rule:evenodd;"
points="30362,27414
30362,26585
30956,26585
30956,27414
30362,27414
" /> 
<polyline style="fill-rule:evenodd;"
points="31543,27414
31543,26585
32137,26585
32137,27414
31543,27414
" /> 
<polyline style="fill-rule:evenodd;"
points="32862,27414
32862,26585
33456,26585
33456,27414
32862,27414
" /> 
<polyline style="fill-rule:evenodd;"
points="34043,27414
34043,26585
34637,26585
34637,27414
34043,27414
" /> 
<polyline style="fill-rule:evenodd;"
points="35362,27414
35362,26585
35956,26585
35956,27414
35362,27414
" /> 
<polyline style="fill-rule:evenodd;"
points="36543,27414
36543,26585
37137,26585
37137,27414
36543,27414
" /> 
<polyline style="fill-rule:evenodd;"
points="37862,27414
37862,26585
38456,26585
38456,27414
37862,27414
" /> 
<polyline style="fill-rule:evenodd;"
points="39043,27414
39043,26585
39637,26585
39637,27414
39043,27414
" /> 
<polyline style="fill-rule:evenodd;"
points="30362,28414
30362,27585
30956,27585
30956,28414
30362,28414
" /> 
<polyline style="fill-rule:evenodd;"
points="31543,28414
31543,27585
32137,27585
32137,28414
31543,28414
" /> 
<polyline style="fill-rule:evenodd;"
points="32862,28414
32862,27585
33456,27585
33456,28414
32862,28414
" /> 
<polyline style="fill-rule:evenodd;"
points="34043,28414
34043,27585
34637,27585
34637,28414
34043,28414
" /> 
<polyline style="fill-rule:evenodd;"
points="35362,28414
35362,27585
35956,27585
35956,28414
35362,28414
" /> 
<polyline style="fill-rule:evenodd;"
points="36543,28414
36543,27585
37137,27585
37137,28414
36543,28414
" /> 
<polyline style="fill-rule:evenodd;"
points="37862,28414
37862,27585
38456,27585
38456,28414
37862,28414
" /> 
<polyline style="fill-rule:evenodd;"
points="39043,28414
39043,27585
39637,27585
39637,28414
39043,28414
" /> 
<polyline style="fill-rule:evenodd;"
points="30362,29414
30362,28585
30956,28585
30956,29414
30362,29414
" /> 
<polyline style="fill-rule:evenodd;"
points="31543,29414
31543,28585
32137,28585
32137,29414
31543,29414
" /> 
<polyline style="fill-rule:evenodd;"
points="32862,29414
32862,28585
33456,28585
33456,29414
32862,29414
" /> 
<polyline style="fill-rule:evenodd;"
points="34043,29414
34043,28585
34637,28585
34637,29414
34043,29414
" /> 
<polyline style="fill-rule:evenodd;"
points="35362,29414
35362,28585
35956,28585
35956,29414
35362,29414
" /> 
<polyline style="fill-rule:evenodd;"
points="36543,29414
36543,28585
37137,28585
37137,29414
36543,29414
" /> 
<polyline style="fill-rule:evenodd;"
points="37862,29414
37862,28585
38456,28585
38456,29414
37862,29414
" /> 
<polyline style="fill-rule:evenodd;"
points="39043,29414
39043,28585
39637,28585
39637,29414
39043,29414
" /> 
<polyline style="fill-rule:evenodd;"
points="30362,30414
30362,29585
30956,29585
30956,30414
30362,30414
" /> 
<polyline style="fill-rule:evenodd;"
points="31543,30414
31543,29585
32137,29585
32137,30414
31543,30414
" /> 
<polyline style="fill-rule:evenodd;"
points="32862,30414
32862,29585
33456,29585
33456,30414
32862,30414
" /> 
<polyline style="fill-rule:evenodd;"
points="34043,30414
34043,29585
34637,29585
34637,30414
34043,30414
" /> 
<polyline style="fill-rule:evenodd;"
points="35362,30414
35362,29585
35956,29585
35956,30414
35362,30414
" /> 
<polyline style="fill-rule:evenodd;"
points="36543,30414
36543,29585
37137,29585
37137,30414
36543,30414
" /> 
<polyline style="fill-rule:evenodd;"
points="37862,30414
37862,29585
38456,29585
38456,30414
37862,30414
" /> 
<polyline style="fill-rule:evenodd;"
points="39043,30414
39043,29585
39637,29585
39637,30414
39043,30414
" /> 
<polyline style="fill-rule:evenodd;"
points="30362,31414
30362,30585
30956,30585
30956,31414
30362,31414
" /> 
<polyline style="fill-rule:evenodd;"
points="31543,31414
31543,30585
32137,30585
32137,31414
31543,31414
" /> 
<polyline style="fill-rule:evenodd;"
points="32862,31414
32862,30585
33456,30585
33456,31414
32862,31414
" /> 
<polyline style="fill-rule:evenodd;"
points="34043,31414
34043,30585
34637,30585
34637,31414
34043,31414
" /> 
<polyline style="fill-rule:evenodd;"
points="35362,31414
35362,30585
35956,30585
35956,31414
35362,31414
" /> 
<polyline style="fill-rule:evenodd;"
points="36543,31414
36543,30585
37137,30585
37137,31414
36543,31414
" /> 
<polyline style="fill-rule:evenodd;"
points="37862,31414
37862,30585
38456,30585
38456,31414
37862,31414
" /> 
<polyline style="fill-rule:evenodd;"
points="39043,31414
39043,30585
39637,30585
39637,31414
39043,31414
" /> 
<polyline style="fill-rule:evenodd;"
points="20362,31414
20362,30585
20956,30585
20956,31414
20362,31414
" /> 
<polyline style="fill-rule:evenodd;"
points="21543,31414
21543,30585
22137,30585
22137,31414
21543,31414
" /> 
<polyline style="fill-rule:evenodd;"
points="22862,31414
22862,30585
23456,30585
23456,31414
22862,31414
" /> 
<polyline style="fill-rule:evenodd;"
points="24043,31414
24043,30585
24637,30585
24637,31414
24043,31414
" /> 
<polyline style="fill-rule:evenodd;"
points="25362,31414
25362,30585
25956,30585
25956,31414
25362,31414
" /> 
<polyline style="fill-rule:evenodd;"
points="26543,31414
26543,30585
27137,30585
27137,31414
26543,31414
" /> 
<polyline style="fill-rule:evenodd;"
points="27862,31414
27862,30585
28456,30585
28456,31414
27862,31414
" /> 
<polyline style="fill-rule:evenodd;"
points="29043,31414
29043,30585
29637,30585
29637,31414
29043,31414
" /> 
<polyline style="fill-rule:evenodd;"
points="20362,30414
20362,29585
20956,29585
20956,30414
20362,30414
" /> 
<polyline style="fill-rule:evenodd;"
points="21543,30414
21543,29585
22137,29585
22137,30414
21543,30414
" /> 
<polyline style="fill-rule:evenodd;"
points="22862,30414
22862,29585
23456,29585
23456,30414
22862,30414
" /> 
<polyline style="fill-rule:evenodd;"
points="24043,30414
24043,29585
24637,29585
24637,30414
24043,30414
" /> 
<polyline style="fill-rule:evenodd;"
points="25362,30414
25362,29585
25956,29585
25956,30414
25362,30414
" /> 
<polyline style="fill-rule:evenodd;"
points="26543,30414
26543,29585
27137,29585
27137,30414
26543,30414
" /> 
<polyline style="fill-rule:evenodd;"
points="27862,30414
27862,29585
28456,29585
28456,30414
27862,30414
" /> 
<polyline style="fill-rule:evenodd;"
points="29043,30414
29043,29585
29637,29585
29637,30414
29043,30414
" /> 
<polyline style="fill-rule:evenodd;"
points="20362,29414
20362,28585
20956,28585
20956,29414
20362,29414
" /> 
<polyline style="fill-rule:evenodd;"
points="21543,29414
21543,28585
22137,28585
22137,29414
21543,29414
" /> 
<polyline style="fill-rule:evenodd;"
points="22862,29414
22862,28585
23456,28585
23456,29414
22862,29414
" /> 
<polyline style="fill-rule:evenodd;"
points="24043,29414
24043,28585
24637,28585
24637,29414
24043,29414
" /> 
<polyline style="fill-rule:evenodd;"
points="25362,29414
25362,28585
25956,28585
25956,29414
25362,29414
" /> 
<polyline style="fill-rule:evenodd;"
points="26543,29414
26543,28585
27137,28585
27137,29414
26543,29414
" /> 
<polyline style="fill-rule:evenodd;"
points="27862,29414
27862,28585
28456,28585
28456,29414
27862,29414
" /> 
<polyline style="fill-rule:evenodd;"
points="29043,29414
29043,28585
29637,28585
29637,29414
29043,29414
" /> 
<polyline style="fill-rule:evenodd;"
points="20362,28414
20362,27585
20956,27585
20956,28414
20362,28414
" /> 
<polyline style="fill-rule:evenodd;"
points="21543,28414
21543,27585
22137,27585
22137,28414
21543,28414
" /> 
<polyline style="fill-rule:evenodd;"
points="22862,28414
22862,27585
23456,27585
23456,28414
22862,28414
" /> 
<polyline style="fill-rule:evenodd;"
points="24043,28414
24043,27585
24637,27585
24637,28414
24043,28414
" /> 
<polyline style="fill-rule:evenodd;"
points="25362,28414
25362,27585
25956,27585
25956,28414
25362,28414
" /> 
<polyline style="fill-rule:evenodd;"
points="26543,28414
26543,27585
27137,27585
27137,28414
26543,28414
" /> 
<polyline style="fill-rule:evenodd;"
points="27862,28414
27862,27585
28456,27585
28456,28414
27862,28414
" /> 
<polyline style="fill-rule:evenodd;"
points="29043,28414
29043,27585
29637,27585
29637,28414
29043,28414
" /> 
<polyline style="fill-rule:evenodd;"
points="20362,27414
20362,26585
20956,26585
20956,27414
20362,27414
" /> 
<polyline style="fill-rule:evenodd;"
points="21543,27414
21543,26585
22137,26585
22137,27414
21543,27414
" /> 
<polyline style="fill-rule:evenodd;"
points="22862,27414
22862,26585
23456,26585
23456,27414
22862,27414
" /> 
<polyline style="fill-rule:evenodd;"
points="24043,27414
24043,26585
24637,26585
24637,27414
24043,27414
" /> 
<polyline style="fill-rule:evenodd;"
points="25362,27414
25362,26585
25956,26585
25956,27414
25362,27414
" /> 
<polyline style="fill-rule:evenodd;"
points="26543,27414
26543,26585
27137,26585
27137,27414
26543,27414
" /> 
<polyline style="fill-rule:evenodd;"
points="27862,27414
27862,26585
28456,26585
28456,27414
27862,27414
" /> 
<polyline style="fill-rule:evenodd;"
points="29043,27414
29043,26585
29637,26585
29637,27414
29043,27414
" /> 
<polyline style="fill-rule:evenodd;"
points="20362,26414
20362,25585
20956,25585
20956,26414
20362,26414
" /> 
<polyline style="fill-rule:evenodd;"
points="21543,26414
21543,25585
22137,25585
22137,26414
21543,26414
" /> 
<polyline style="fill-rule:evenodd;"
points="22862,26414
22862,25585
23456,25585
23456,26414
22862,26414
" /> 
<polyline style="fill-rule:evenodd;"
points="24043,26414
24043,25585
24637,25585
24637,26414
24043,26414
" /> 
<polyline style="fill-rule:evenodd;"
points="25362,26414
25362,25585
25956,25585
25956,26414
25362,26414
" /> 
<polyline style="fill-rule:evenodd;"
points="26543,26414
26543,25585
27137,25585
27137,26414
26543,26414
" /> 
<polyline style="fill-rule:evenodd;"
points="27862,26414
27862,25585
28456,25585
28456,26414
27862,26414
" /> 
<polyline style="fill-rule:evenodd;"
points="29043,26414
29043,25585
29637,25585
29637,26414
29043,26414
" /> 
<polyline style="fill-rule:evenodd;"
points="20362,25414
20362,24585
20956,24585
20956,25414
20362,25414
" /> 
<polyline style="fill-rule:evenodd;"
points="21543,25414
21543,24585
22137,24585
22137,25414
21543,25414
" /> 
<polyline style="fill-rule:evenodd;"
points="22862,25414
22862,24585
23456,24585
23456,25414
22862,25414
" /> 
<polyline style="fill-rule:evenodd;"
points="24043,25414
24043,24585
24637,24585
24637,25414
24043,25414
" /> 
<polyline style="fill-rule:evenodd;"
points="25362,25414
25362,24585
25956,24585
25956,25414
25362,25414
" /> 
<polyline style="fill-rule:evenodd;"
points="26543,25414
26543,24585
27137,24585
27137,25414
26543,25414
" /> 
<polyline style="fill-rule:evenodd;"
points="27862,25414
27862,24585
28456,24585
28456,25414
27862,25414
" /> 
<polyline style="fill-rule:evenodd;"
points="29043,25414
29043,24585
29637,24585
29637,25414
29043,25414
" /> 
<polyline style="fill-rule:evenodd;"
points="20362,24414
20362,23585
20956,23585
20956,24414
20362,24414
" /> 
<polyline style="fill-rule:evenodd;"
points="21543,24414
21543,23585
22137,23585
22137,24414
21543,24414
" /> 
<polyline style="fill-rule:evenodd;"
points="22862,24414
22862,23585
23456,23585
23456,24414
22862,24414
" /> 
<polyline style="fill-rule:evenodd;"
points="24043,24414
24043,23585
24637,23585
24637,24414
24043,24414
" /> 
<polyline style="fill-rule:evenodd;"
points="25362,24414
25362,23585
25956,23585
25956,24414
25362,24414
" /> 
<polyline style="fill-rule:evenodd;"
points="26543,24414
26543,23585
27137,23585
27137,24414
26543,24414
" /> 
<polyline style="fill-rule:evenodd;"
points="27862,24414
27862,23585
28456,23585
28456,24414
27862,24414
" /> 
<polyline style="fill-rule:evenodd;"
points="29043,24414
29043,23585
29637,23585
29637,24414
29043,24414
" /> 
<polyline style="fill-rule:evenodd;"
points="20362,23414
20362,22585
20956,22585
20956,23414
20362,23414
" /> 
<polyline style="fill-rule:evenodd;"
points="21543,23414
21543,22585
22137,22585
22137,23414
21543,23414
" /> 
<polyline style="fill-rule:evenodd;"
points="22862,23414
22862,22585
23456,22585
23456,23414
22862,23414
" /> 
<polyline style="fill-rule:evenodd;"
points="24043,23414
24043,22585
24637,22585
24637,23414
24043,23414
" /> 
<polyline style="fill-rule:evenodd;"
points="25362,23414
25362,22585
25956,22585
25956,23414
25362,23414
" /> 
<polyline style="fill-rule:evenodd;"
points="26543,23414
26543,22585
27137,22585
27137,23414
26543,23414
" /> 
<polyline style="fill-rule:evenodd;"
points="27862,23414
27862,22585
28456,22585
28456,23414
27862,23414
" /> 
<polyline style="fill-rule:evenodd;"
points="29043,23414
29043,22585
29637,22585
29637,23414
29043,23414
" /> 
<polyline style="fill-rule:evenodd;"
points="20362,22414
20362,21585
20956,21585
20956,22414
20362,22414
" /> 
<polyline style="fill-rule:evenodd;"
points="21543,22414
21543,21585
22137,21585
22137,22414
21543,22414
" /> 
<polyline style="fill-rule:evenodd;"
points="22862,22414
22862,21585
23456,21585
23456,22414
22862,22414
" /> 
<polyline style="fill-rule:evenodd;"
points="24043,22414
24043,21585
24637,21585
24637,22414
24043,22414
" /> 
<polyline style="fill-rule:evenodd;"
points="25362,22414
25362,21585
25956,21585
25956,22414
25362,22414
" /> 
<polyline style="fill-rule:evenodd;"
points="26543,22414
26543,21585
27137,21585
27137,22414
26543,22414
" /> 
<polyline style="fill-rule:evenodd;"
points="27862,22414
27862,21585
28456,21585
28456,22414
27862,22414
" /> 
<polyline style="fill-rule:evenodd;"
points="29043,22414
29043,21585
29637,21585
29637,22414
29043,22414
" /> 
<polyline style="fill-rule:evenodd;"
points="20362,21414
20362,20585
20956,20585
20956,21414
20362,21414
" /> 
<polyline style="fill-rule:evenodd;"
points="21543,21414
21543,20585
22137,20585
22137,21414
21543,21414
" /> 
<polyline style="fill-rule:evenodd;"
points="22862,21414
22862,20585
23456,20585
23456,21414
22862,21414
" /> 
<polyline style="fill-rule:evenodd;"
points="24043,21414
24043,20585
24637,20585
24637,21414
24043,21414
" /> 
<polyline style="fill-rule:evenodd;"
points="25362,21414
25362,20585
25956,20585
25956,21414
25362,21414
" /> 
<polyline style="fill-rule:evenodd;"
points="26543,21414
26543,20585
27137,20585
27137,21414
26543,21414
" /> 
<polyline style="fill-rule:evenodd;"
points="27862,21414
27862,20585
28456,20585
28456,21414
27862,21414
" /> 
<polyline style="fill-rule:evenodd;"
points="29043,21414
29043,20585
29637,20585
29637,21414
29043,21414
" /> 
<polyline style="fill-rule:evenodd;"
points="20362,20414
20362,19585
20956,19585
20956,20414
20362,20414
" /> 
<polyline style="fill-rule:evenodd;"
points="21543,20414
21543,19585
22137,19585
22137,20414
21543,20414
" /> 
<polyline style="fill-rule:evenodd;"
points="22862,20414
22862,19585
23456,19585
23456,20414
22862,20414
" /> 
<polyline style="fill-rule:evenodd;"
points="24043,20414
24043,19585
24637,19585
24637,20414
24043,20414
" /> 
<polyline style="fill-rule:evenodd;"
points="25362,20414
25362,19585
25956,19585
25956,20414
25362,20414
" /> 
<polyline style="fill-rule:evenodd;"
points="26543,20414
26543,19585
27137,19585
27137,20414
26543,20414
" /> 
<polyline style="fill-rule:evenodd;"
points="27862,20414
27862,19585
28456,19585
28456,20414
27862,20414
" /> 
<polyline style="fill-rule:evenodd;"
points="29043,20414
29043,19585
29637,19585
29637,20414
29043,20414
" /> 
<polyline style="fill-rule:evenodd;"
points="20362,19414
20362,18585
20956,18585
20956,19414
20362,19414
" /> 
<polyline style="fill-rule:evenodd;"
points="21543,19414
21543,18585
22137,18585
22137,19414
21543,19414
" /> 
<polyline style="fill-rule:evenodd;"
points="22862,19414
22862,18585
23456,18585
23456,19414
22862,19414
" /> 
<polyline style="fill-rule:evenodd;"
points="24043,19414
24043,18585
24637,18585
24637,19414
24043,19414
" /> 
<polyline style="fill-rule:evenodd;"
points="25362,19414
25362,18585
25956,18585
25956,19414
25362,19414
" /> 
<polyline style="fill-rule:evenodd;"
points="26543,19414
26543,18585
27137,18585
27137,19414
26543,19414
" /> 
<polyline style="fill-rule:evenodd;"
points="27862,19414
27862,18585
28456,18585
28456,19414
27862,19414
" /> 
<polyline style="fill-rule:evenodd;"
points="29043,19414
29043,18585
29637,18585
29637,19414
29043,19414
" /> 
<polyline style="fill-rule:evenodd;"
points="20362,18414
20362,17585
20956,17585
20956,18414
20362,18414
" /> 
<polyline style="fill-rule:evenodd;"
points="21543,18414
21543,17585
22137,17585
22137,18414
21543,18414
" /> 
<polyline style="fill-rule:evenodd;"
points="22862,18414
22862,17585
23456,17585
23456,18414
22862,18414
" /> 
<polyline style="fill-rule:evenodd;"
points="24043,18414
24043,17585
24637,17585
24637,18414
24043,18414
" /> 
<polyline style="fill-rule:evenodd;"
points="25362,18414
25362,17585
25956,17585
25956,18414
25362,18414
" /> 
<polyline style="fill-rule:evenodd;"
points="26543,18414
26543,17585
27137,17585
27137,18414
26543,18414
" /> 
<polyline style="fill-rule:evenodd;"
points="27862,18414
27862,17585
28456,17585
28456,18414
27862,18414
" /> 
<polyline style="fill-rule:evenodd;"
points="29043,18414
29043,17585
29637,17585
29637,18414
29043,18414
" /> 
<polyline style="fill-rule:evenodd;"
points="20362,17414
20362,16585
20956,16585
20956,17414
20362,17414
" /> 
<polyline style="fill-rule:evenodd;"
points="21543,17414
21543,16585
22137,16585
22137,17414
21543,17414
" /> 
<polyline style="fill-rule:evenodd;"
points="22862,17414
22862,16585
23456,16585
23456,17414
22862,17414
" /> 
<polyline style="fill-rule:evenodd;"
points="24043,17414
24043,16585
24637,16585
24637,17414
24043,17414
" /> 
<polyline style="fill-rule:evenodd;"
points="25362,17414
25362,16585
25956,16585
25956,17414
25362,17414
" /> 
<polyline style="fill-rule:evenodd;"
points="26543,17414
26543,16585
27137,16585
27137,17414
26543,17414
" /> 
<polyline style="fill-rule:evenodd;"
points="27862,17414
27862,16585
28456,16585
28456,17414
27862,17414
" /> 
<polyline style="fill-rule:evenodd;"
points="29043,17414
29043,16585
29637,16585
29637,17414
29043,17414
" /> 
<polyline style="fill-rule:evenodd;"
points="40526,17474
40526,16526
41474,16526
41474,17474
40526,17474
" /> 
<polyline style="fill-rule:evenodd;"
points="41526,17474
41526,16526
42474,16526
42474,17474
41526,17474
" /> 
<polyline style="fill-rule:evenodd;"
points="42526,17474
42526,16526
43474,16526
43474,17474
42526,17474
" /> 
<polyline style="fill-rule:evenodd;"
points="43526,17474
43526,16526
44474,16526
44474,17474
43526,17474
" /> 
<polyline style="fill-rule:evenodd;"
points="41474,17526
41474,18474
40526,18474
40526,17526
41474,17526
" /> 
<polyline style="fill-rule:evenodd;"
points="42474,17526
42474,18474
41526,18474
41526,17526
42474,17526
" /> 
<polyline style="fill-rule:evenodd;"
points="43474,17526
43474,18474
42526,18474
42526,17526
43474,17526
" /> 
<polyline style="fill-rule:evenodd;"
points="44474,17526
44474,18474
43526,18474
43526,17526
44474,17526
" /> 
<polyline style="fill-rule:evenodd;"
points="41474,18526
41474,19474
40526,19474
40526,18526
41474,18526
" /> 
<polyline style="fill-rule:evenodd;"
points="41526,19474
41526,18526
42474,18526
42474,19474
41526,19474
" /> 
<polyline style="fill-rule:evenodd;"
points="42526,19474
42526,18526
43474,18526
43474,19474
42526,19474
" /> 
<polyline style="fill-rule:evenodd;"
points="43526,19474
43526,18526
44474,18526
44474,19474
43526,19474
" /> 
<polyline style="fill-rule:evenodd;"
points="40526,20474
40526,19526
41474,19526
41474,20474
40526,20474
" /> 
<polyline style="fill-rule:evenodd;"
points="41526,20474
41526,19526
42474,19526
42474,20474
41526,20474
" /> 
<polyline style="fill-rule:evenodd;"
points="42526,20474
42526,19526
43474,19526
43474,20474
42526,20474
" /> 
<polyline style="fill-rule:evenodd;"
points="43526,20474
43526,19526
44474,19526
44474,20474
43526,20474
" /> 
<polyline style="fill-rule:evenodd;"
points="40526,21474
40526,20526
41474,20526
41474,21474
40526,21474
" /> 
<polyline style="fill-rule:evenodd;"
points="41526,21474
41526,20526
42474,20526
42474,21474
41526,21474
" /> 
<polyline style="fill-rule:evenodd;"
points="42526,21474
42526,20526
43474,20526
43474,21474
42526,21474
" /> 
<polyline style="fill-rule:evenodd;"
points="43526,21474
43526,20526
44474,20526
44474,21474
43526,21474
" /> 
<polyline style="fill-rule:evenodd;"
points="40526,22474
40526,21526
41474,21526
41474,22474
40526,22474
" /> 
<polyline style="fill-rule:evenodd;"
points="41526,22474
41526,21526
42474,21526
42474,22474
41526,22474
" /> 
<polyline style="fill-rule:evenodd;"
points="42526,22474
42526,21526
43474,21526
43474,22474
42526,22474
" /> 
<polyline style="fill-rule:evenodd;"
points="43526,22474
43526,21526
44474,21526
44474,22474
43526,22474
" /> 
<polyline style="fill-rule:evenodd;"
points="40526,23474
40526,22526
41474,22526
41474,23474
40526,23474
" /> 
<polyline style="fill-rule:evenodd;"
points="41526,23474
41526,22526
42474,22526
42474,23474
41526,23474
" /> 
<polyline style="fill-rule:evenodd;"
points="42526,23474
42526,22526
43474,22526
43474,23474
42526,23474
" /> 
<polyline style="fill-rule:evenodd;"
points="43526,23474
43526,22526
44474,22526
44474,23474
43526,23474
" /> 
<polyline style="fill-rule:evenodd;"
points="40526,24474
40526,23526
41474,23526
41474,24474
40526,24474
" /> 
<polyline style="fill-rule:evenodd;"
points="41526,24474
41526,23526
42474,23526
42474,24474
41526,24474
" /> 
<polyline style="fill-rule:evenodd;"
points="42526,24474
42526,23526
43474,23526
43474,24474
42526,24474
" /> 
<polyline style="fill-rule:evenodd;"
points="43526,24474
43526,23526
44474,23526
44474,24474
43526,24474
" /> 
<polyline style="fill-rule:evenodd;"
points="40526,25474
40526,24526
41474,24526
41474,25474
40526,25474
" /> 
<polyline style="fill-rule:evenodd;"
points="41526,25474
41526,24526
42474,24526
42474,25474
41526,25474
" /> 
<polyline style="fill-rule:evenodd;"
points="42526,25474
42526,24526
43474,24526
43474,25474
42526,25474
" /> 
<polyline style="fill-rule:evenodd;"
points="43526,25474
43526,24526
44474,24526
44474,25474
43526,25474
" /> 
<polyline style="fill-rule:evenodd;"
points="40526,26474
40526,25526
41474,25526
41474,26474
40526,26474
" /> 
<polyline style="fill-rule:evenodd;"
points="41526,26474
41526,25526
42474,25526
42474,26474
41526,26474
" /> 
<polyline style="fill-rule:evenodd;"
points="42526,26474
42526,25526
43474,25526
43474,26474
42526,26474
" /> 
<polyline style="fill-rule:evenodd;"
points="43526,26474
43526,25526
44474,25526
44474,26474
43526,26474
" /> 
<polyline style="fill-rule:evenodd;"
points="40526,27474
40526,26526
41474,26526
41474,27474
40526,27474
" /> 
<polyline style="fill-rule:evenodd;"
points="41526,27474
41526,26526
42474,26526
42474,27474
41526,27474
" /> 
<polyline style="fill-rule:evenodd;"
points="42526,27474
42526,26526
43474,26526
43474,27474
42526,27474
" /> 
<polyline style="fill-rule:evenodd;"
points="43526,27474
43526,26526
44474,26526
44474,27474
43526,27474
" /> 
<polyline style="fill-rule:evenodd;"
points="40526,28474
40526,27526
41474,27526
41474,28474
40526,28474
" /> 
<polyline style="fill-rule:evenodd;"
points="41526,28474
41526,27526
42474,27526
42474,28474
41526,28474
" /> 
<polyline style="fill-rule:evenodd;"
points="42526,28474
42526,27526
43474,27526
43474,28474
42526,28474
" /> 
<polyline style="fill-rule:evenodd;"
points="43526,28474
43526,27526
44474,27526
44474,28474
43526,28474
" /> 
<polyline style="fill-rule:evenodd;"
points="40526,29474
40526,28526
41474,28526
41474,29474
40526,29474
" /> 
<polyline style="fill-rule:evenodd;"
points="41526,29474
41526,28526
42474,28526
42474,29474
41526,29474
" /> 
<polyline style="fill-rule:evenodd;"
points="42526,29474
42526,28526
43474,28526
43474,29474
42526,29474
" /> 
<polyline style="fill-rule:evenodd;"
points="43526,29474
43526,28526
44474,28526
44474,29474
43526,29474
" /> 
<polyline style="fill-rule:evenodd;"
points="40526,30474
40526,29526
41474,29526
41474,30474
40526,30474
" /> 
<polyline style="fill-rule:evenodd;"
points="41526,30474
41526,29526
42474,29526
42474,30474
41526,30474
" /> 
<polyline style="fill-rule:evenodd;"
points="42526,30474
42526,29526
43474,29526
43474,30474
42526,30474
" /> 
<polyline style="fill-rule:evenodd;"
points="43526,30474
43526,29526
44474,29526
44474,30474
43526,30474
" /> 
<polyline style="fill-rule:evenodd;"
points="40526,31474
40526,30526
41474,30526
41474,31474
40526,31474
" /> 
<polyline style="fill-rule:evenodd;"
points="41526,31474
41526,30526
42474,30526
42474,31474
41526,31474
" /> 
<polyline style="fill-rule:evenodd;"
points="42526,31474
42526,30526
43474,30526
43474,31474
42526,31474
" /> 
<polyline style="fill-rule:evenodd;"
points="43526,31474
43526,30526
44474,30526
44474,31474
43526,31474
" /> 
<polyline style="fill-rule:evenodd;"
points="15526,31474
15526,30526
16474,30526
16474,31474
15526,31474
" /> 
<polyline style="fill-rule:evenodd;"
points="16526,31474
16526,30526
17474,30526
17474,31474
16526,31474
" /> 
<polyline style="fill-rule:evenodd;"
points="17526,31474
17526,30526
18474,30526
18474,31474
17526,31474
" /> 
<polyline style="fill-rule:evenodd;"
points="18526,31474
18526,30526
19474,30526
19474,31474
18526,31474
" /> 
<polyline style="fill-rule:evenodd;"
points="15526,30474
15526,29526
16474,29526
16474,30474
15526,30474
" /> 
<polyline style="fill-rule:evenodd;"
points="16526,30474
16526,29526
17474,29526
17474,30474
16526,30474
" /> 
<polyline style="fill-rule:evenodd;"
points="17526,30474
17526,29526
18474,29526
18474,30474
17526,30474
" /> 
<polyline style="fill-rule:evenodd;"
points="18526,30474
18526,29526
19474,29526
19474,30474
18526,30474
" /> 
<polyline style="fill-rule:evenodd;"
points="15526,29474
15526,28526
16474,28526
16474,29474
15526,29474
" /> 
<polyline style="fill-rule:evenodd;"
points="16526,29474
16526,28526
17474,28526
17474,29474
16526,29474
" /> 
<polyline style="fill-rule:evenodd;"
points="17526,29474
17526,28526
18474,28526
18474,29474
17526,29474
" /> 
<polyline style="fill-rule:evenodd;"
points="18526,29474
18526,28526
19474,28526
19474,29474
18526,29474
" /> 
<polyline style="fill-rule:evenodd;"
points="15526,28474
15526,27526
16474,27526
16474,28474
15526,28474
" /> 
<polyline style="fill-rule:evenodd;"
points="16526,28474
16526,27526
17474,27526
17474,28474
16526,28474
" /> 
<polyline style="fill-rule:evenodd;"
points="17526,28474
17526,27526
18474,27526
18474,28474
17526,28474
" /> 
<polyline style="fill-rule:evenodd;"
points="18526,28474
18526,27526
19474,27526
19474,28474
18526,28474
" /> 
<polyline style="fill-rule:evenodd;"
points="15526,27474
15526,26526
16474,26526
16474,27474
15526,27474
" /> 
<polyline style="fill-rule:evenodd;"
points="16526,27474
16526,26526
17474,26526
17474,27474
16526,27474
" /> 
<polyline style="fill-rule:evenodd;"
points="17526,27474
17526,26526
18474,26526
18474,27474
17526,27474
" /> 
<polyline style="fill-rule:evenodd;"
points="18526,27474
18526,26526
19474,26526
19474,27474
18526,27474
" /> 
<polyline style="fill-rule:evenodd;"
points="15526,26474
15526,25526
16474,25526
16474,26474
15526,26474
" /> 
<polyline style="fill-rule:evenodd;"
points="16526,26474
16526,25526
17474,25526
17474,26474
16526,26474
" /> 
<polyline style="fill-rule:evenodd;"
points="17526,26474
17526,25526
18474,25526
18474,26474
17526,26474
" /> 
<polyline style="fill-rule:evenodd;"
points="18526,26474
18526,25526
19474,25526
19474,26474
18526,26474
" /> 
<polyline style="fill-rule:evenodd;"
points="15526,25474
15526,24526
16474,24526
16474,25474
15526,25474
" /> 
<polyline style="fill-rule:evenodd;"
points="16526,25474
16526,24526
17474,24526
17474,25474
16526,25474
" /> 
<polyline style="fill-rule:evenodd;"
points="17526,25474
17526,24526
18474,24526
18474,25474
17526,25474
" /> 
<polyline style="fill-rule:evenodd;"
points="18526,25474
18526,24526
19474,24526
19474,25474
18526,25474
" /> 
<polyline style="fill-rule:evenodd;"
points="15526,24474
15526,23526
16474,23526
16474,24474
15526,24474
" /> 
<polyline style="fill-rule:evenodd;"
points="16526,24474
16526,23526
17474,23526
17474,24474
16526,24474
" /> 
<polyline style="fill-rule:evenodd;"
points="17526,24474
17526,23526
18474,23526
18474,24474
17526,24474
" /> 
<polyline style="fill-rule:evenodd;"
points="18526,24474
18526,23526
19474,23526
19474,24474
18526,24474
" /> 
<polyline style="fill-rule:evenodd;"
points="15526,23474
15526,22526
16474,22526
16474,23474
15526,23474
" /> 
<polyline style="fill-rule:evenodd;"
points="16526,23474
16526,22526
17474,22526
17474,23474
16526,23474
" /> 
<polyline style="fill-rule:evenodd;"
points="17526,23474
17526,22526
18474,22526
18474,23474
17526,23474
" /> 
<polyline style="fill-rule:evenodd;"
points="18526,23474
18526,22526
19474,22526
19474,23474
18526,23474
" /> 
<polyline style="fill-rule:evenodd;"
points="15526,22474
15526,21526
16474,21526
16474,22474
15526,22474
" /> 
<polyline style="fill-rule:evenodd;"
points="16526,22474
16526,21526
17474,21526
17474,22474
16526,22474
" /> 
<polyline style="fill-rule:evenodd;"
points="17526,22474
17526,21526
18474,21526
18474,22474
17526,22474
" /> 
<polyline style="fill-rule:evenodd;"
points="18526,22474
18526,21526
19474,21526
19474,22474
18526,22474
" /> 
<polyline style="fill-rule:evenodd;"
points="15526,21474
15526,20526
16474,20526
16474,21474
15526,21474
" /> 
<polyline style="fill-rule:evenodd;"
points="16526,21474
16526,20526
17474,20526
17474,21474
16526,21474
" /> 
<polyline style="fill-rule:evenodd;"
points="17526,21474
17526,20526
18474,20526
18474,21474
17526,21474
" /> 
<polyline style="fill-rule:evenodd;"
points="18526,21474
18526,20526
19474,20526
19474,21474
18526,21474
" /> 
<polyline style="fill-rule:evenodd;"
points="15526,20474
15526,19526
16474,19526
16474,20474
15526,20474
" /> 
<polyline style="fill-rule:evenodd;"
points="16526,20474
16526,19526
17474,19526
17474,20474
16526,20474
" /> 
<polyline style="fill-rule:evenodd;"
points="17526,20474
17526,19526
18474,19526
18474,20474
17526,20474
" /> 
<polyline style="fill-rule:evenodd;"
points="18526,20474
18526,19526
19474,19526
19474,20474
18526,20474
" /> 
<polyline style="fill-rule:evenodd;"
points="15526,19474
15526,18526
16474,18526
16474,19474
15526,19474
" /> 
<polyline style="fill-rule:evenodd;"
points="16526,19474
16526,18526
17474,18526
17474,19474
16526,19474
" /> 
<polyline style="fill-rule:evenodd;"
points="17526,19474
17526,18526
18474,18526
18474,19474
17526,19474
" /> 
<polyline style="fill-rule:evenodd;"
points="18526,19474
18526,18526
19474,18526
19474,19474
18526,19474
" /> 
<polyline style="fill-rule:evenodd;"
points="15526,18474
15526,17526
16474,17526
16474,18474
15526,18474
" /> 
<polyline style="fill-rule:evenodd;"
points="16526,18474
16526,17526
17474,17526
17474,18474
16526,18474
" /> 
<polyline style="fill-rule:evenodd;"
points="17526,18474
17526,17526
18474,17526
18474,18474
17526,18474
" /> 
<polyline style="fill-rule:evenodd;"
points="18526,18474
18526,17526
19474,17526
19474,18474
18526,18474
" /> 
<polyline style="fill-rule:evenodd;"
points="15526,17474
15526,16526
16474,16526
16474,17474
15526,17474
" /> 
<polyline style="fill-rule:evenodd;"
points="16526,17474
16526,16526
17474,16526
17474,17474
16526,17474
" /> 
<polyline style="fill-rule:evenodd;"
points="17526,17474
17526,16526
18474,16526
18474,17474
17526,17474
" /> 
<polyline style="fill-rule:evenodd;"
points="18526,17474
18526,16526
19474,16526
19474,17474
18526,17474
" /> 
<polyline style="fill-rule:evenodd;"
points="18526,16474
18526,15526
19474,15526
19474,16474
18526,16474
" /> 
<polyline style="fill-rule:evenodd;"
points="18526,32474
18526,31526
19474,31526
19474,32474
18526,32474
" /> 
<polyline style="fill-rule:evenodd;"
points="40526,32474
40526,31526
41474,31526
41474,32474
40526,32474
" /> 
<polyline style="fill-rule:evenodd;"
points="40526,16474
40526,15526
41474,15526
41474,16474
40526,16474
" /> 
<polyline style="fill-rule:evenodd;"
points="17526,16474
17526,15526
18474,15526
18474,16474
17526,16474
" /> 
<polyline style="fill-rule:evenodd;"
points="16526,16474
16526,15526
17474,15526
17474,16474
16526,16474
" /> 
<polyline style="fill-rule:evenodd;"
points="17526,32474
17526,31526
18474,31526
18474,32474
17526,32474
" /> 
<polyline style="fill-rule:evenodd;"
points="16526,32474
16526,31526
17474,31526
17474,32474
16526,32474
" /> 
<polyline style="fill-rule:evenodd;"
points="41526,32474
41526,31526
42474,31526
42474,32474
41526,32474
" /> 
<polyline style="fill-rule:evenodd;"
points="42526,32474
42526,31526
43474,31526
43474,32474
42526,32474
" /> 
<polyline style="fill-rule:evenodd;"
points="41526,16474
41526,15526
42474,15526
42474,16474
41526,16474
" /> 
<polyline style="fill-rule:evenodd;"
points="42526,16474
42526,15526
43474,15526
43474,16474
42526,16474
" /> 
<polyline style="fill-rule:evenodd;"
points="15526,16474
15526,15526
16474,15526
16474,16474
15526,16474
" /> 
<polyline style="fill-rule:evenodd;"
points="15526,32474
15526,31526
16474,31526
16474,32474
15526,32474
" /> 
<polyline style="fill-rule:evenodd;"
points="43526,32474
43526,31526
44474,31526
44474,32474
43526,32474
" /> 
<polyline style="fill-rule:evenodd;"
points="43526,16474
43526,15526
44474,15526
44474,16474
43526,16474
" /> 
<polyline style="fill-rule:evenodd;"
points="29565,32834
29565,31965
30434,31965
30434,32834
29565,32834
" /> 
<polyline style="fill-rule:evenodd;"
points="29565,15834
29565,14965
30434,14965
30434,15834
29565,15834
" /> 
</g> 
</svg>
