G04 #@! TF.FileFunction,Soldermask,Top*
%FSLAX46Y46*%
G04 Gerber Fmt 4.6, Leading zero omitted, Abs format (unit mm)*
G04 Created by KiCad (PCBNEW 4.0.1-stable) date 2017-04-12 12:46:02 PM*
%MOMM*%
G01*
G04 APERTURE LIST*
%ADD10C,0.150000*%
%ADD11R,1.508000X2.108000*%
%ADD12R,2.407920X2.407920*%
%ADD13R,2.208000X2.208000*%
G04 APERTURE END LIST*
D10*
D11*
X77875000Y-43180000D03*
X80875000Y-43180000D03*
X84225000Y-43180000D03*
X87225000Y-43180000D03*
X90575000Y-43180000D03*
X93575000Y-43180000D03*
X96925000Y-43180000D03*
X99925000Y-43180000D03*
X77875000Y-45720000D03*
X80875000Y-45720000D03*
X84225000Y-45720000D03*
X87225000Y-45720000D03*
X90575000Y-45720000D03*
X93575000Y-45720000D03*
X96925000Y-45720000D03*
X99925000Y-45720000D03*
X77875000Y-48260000D03*
X80875000Y-48260000D03*
X84225000Y-48260000D03*
X87225000Y-48260000D03*
X90575000Y-48260000D03*
X93575000Y-48260000D03*
X96925000Y-48260000D03*
X99925000Y-48260000D03*
X77875000Y-50800000D03*
X80875000Y-50800000D03*
X84225000Y-50800000D03*
X87225000Y-50800000D03*
X90575000Y-50800000D03*
X93575000Y-50800000D03*
X96925000Y-50800000D03*
X99925000Y-50800000D03*
X77875000Y-53340000D03*
X80875000Y-53340000D03*
X84225000Y-53340000D03*
X87225000Y-53340000D03*
X90575000Y-53340000D03*
X93575000Y-53340000D03*
X96925000Y-53340000D03*
X99925000Y-53340000D03*
X77875000Y-55880000D03*
X80875000Y-55880000D03*
X84225000Y-55880000D03*
X87225000Y-55880000D03*
X90575000Y-55880000D03*
X93575000Y-55880000D03*
X96925000Y-55880000D03*
X99925000Y-55880000D03*
X77875000Y-58420000D03*
X80875000Y-58420000D03*
X84225000Y-58420000D03*
X87225000Y-58420000D03*
X90575000Y-58420000D03*
X93575000Y-58420000D03*
X96925000Y-58420000D03*
X99925000Y-58420000D03*
X77875000Y-60960000D03*
X80875000Y-60960000D03*
X84225000Y-60960000D03*
X87225000Y-60960000D03*
X90575000Y-60960000D03*
X93575000Y-60960000D03*
X96925000Y-60960000D03*
X99925000Y-60960000D03*
X77875000Y-63500000D03*
X80875000Y-63500000D03*
X84225000Y-63500000D03*
X87225000Y-63500000D03*
X90575000Y-63500000D03*
X93575000Y-63500000D03*
X96925000Y-63500000D03*
X99925000Y-63500000D03*
X77875000Y-66040000D03*
X80875000Y-66040000D03*
X84225000Y-66040000D03*
X87225000Y-66040000D03*
X90575000Y-66040000D03*
X93575000Y-66040000D03*
X96925000Y-66040000D03*
X99925000Y-66040000D03*
X77875000Y-68580000D03*
X80875000Y-68580000D03*
X84225000Y-68580000D03*
X87225000Y-68580000D03*
X90575000Y-68580000D03*
X93575000Y-68580000D03*
X96925000Y-68580000D03*
X99925000Y-68580000D03*
X77875000Y-71120000D03*
X80875000Y-71120000D03*
X84225000Y-71120000D03*
X87225000Y-71120000D03*
X90575000Y-71120000D03*
X93575000Y-71120000D03*
X96925000Y-71120000D03*
X99925000Y-71120000D03*
X77875000Y-73660000D03*
X80875000Y-73660000D03*
X84225000Y-73660000D03*
X87225000Y-73660000D03*
X90575000Y-73660000D03*
X93575000Y-73660000D03*
X96925000Y-73660000D03*
X99925000Y-73660000D03*
X77875000Y-76200000D03*
X80875000Y-76200000D03*
X84225000Y-76200000D03*
X87225000Y-76200000D03*
X90575000Y-76200000D03*
X93575000Y-76200000D03*
X96925000Y-76200000D03*
X99925000Y-76200000D03*
X77875000Y-78740000D03*
X80875000Y-78740000D03*
X84225000Y-78740000D03*
X87225000Y-78740000D03*
X90575000Y-78740000D03*
X93575000Y-78740000D03*
X96925000Y-78740000D03*
X99925000Y-78740000D03*
X52475000Y-78740000D03*
X55475000Y-78740000D03*
X58825000Y-78740000D03*
X61825000Y-78740000D03*
X65175000Y-78740000D03*
X68175000Y-78740000D03*
X71525000Y-78740000D03*
X74525000Y-78740000D03*
X52475000Y-76200000D03*
X55475000Y-76200000D03*
X58825000Y-76200000D03*
X61825000Y-76200000D03*
X65175000Y-76200000D03*
X68175000Y-76200000D03*
X71525000Y-76200000D03*
X74525000Y-76200000D03*
X52475000Y-73660000D03*
X55475000Y-73660000D03*
X58825000Y-73660000D03*
X61825000Y-73660000D03*
X65175000Y-73660000D03*
X68175000Y-73660000D03*
X71525000Y-73660000D03*
X74525000Y-73660000D03*
X52475000Y-71120000D03*
X55475000Y-71120000D03*
X58825000Y-71120000D03*
X61825000Y-71120000D03*
X65175000Y-71120000D03*
X68175000Y-71120000D03*
X71525000Y-71120000D03*
X74525000Y-71120000D03*
X52475000Y-68580000D03*
X55475000Y-68580000D03*
X58825000Y-68580000D03*
X61825000Y-68580000D03*
X65175000Y-68580000D03*
X68175000Y-68580000D03*
X71525000Y-68580000D03*
X74525000Y-68580000D03*
X52475000Y-66040000D03*
X55475000Y-66040000D03*
X58825000Y-66040000D03*
X61825000Y-66040000D03*
X65175000Y-66040000D03*
X68175000Y-66040000D03*
X71525000Y-66040000D03*
X74525000Y-66040000D03*
X52475000Y-63500000D03*
X55475000Y-63500000D03*
X58825000Y-63500000D03*
X61825000Y-63500000D03*
X65175000Y-63500000D03*
X68175000Y-63500000D03*
X71525000Y-63500000D03*
X74525000Y-63500000D03*
X52475000Y-60960000D03*
X55475000Y-60960000D03*
X58825000Y-60960000D03*
X61825000Y-60960000D03*
X65175000Y-60960000D03*
X68175000Y-60960000D03*
X71525000Y-60960000D03*
X74525000Y-60960000D03*
X52475000Y-58420000D03*
X55475000Y-58420000D03*
X58825000Y-58420000D03*
X61825000Y-58420000D03*
X65175000Y-58420000D03*
X68175000Y-58420000D03*
X71525000Y-58420000D03*
X74525000Y-58420000D03*
X52475000Y-55880000D03*
X55475000Y-55880000D03*
X58825000Y-55880000D03*
X61825000Y-55880000D03*
X65175000Y-55880000D03*
X68175000Y-55880000D03*
X71525000Y-55880000D03*
X74525000Y-55880000D03*
X52475000Y-53340000D03*
X55475000Y-53340000D03*
X58825000Y-53340000D03*
X61825000Y-53340000D03*
X65175000Y-53340000D03*
X68175000Y-53340000D03*
X71525000Y-53340000D03*
X74525000Y-53340000D03*
X52475000Y-50800000D03*
X55475000Y-50800000D03*
X58825000Y-50800000D03*
X61825000Y-50800000D03*
X65175000Y-50800000D03*
X68175000Y-50800000D03*
X71525000Y-50800000D03*
X74525000Y-50800000D03*
X52475000Y-48260000D03*
X55475000Y-48260000D03*
X58825000Y-48260000D03*
X61825000Y-48260000D03*
X65175000Y-48260000D03*
X68175000Y-48260000D03*
X71525000Y-48260000D03*
X74525000Y-48260000D03*
X52475000Y-45720000D03*
X55475000Y-45720000D03*
X58825000Y-45720000D03*
X61825000Y-45720000D03*
X65175000Y-45720000D03*
X68175000Y-45720000D03*
X71525000Y-45720000D03*
X74525000Y-45720000D03*
X52475000Y-43180000D03*
X55475000Y-43180000D03*
X58825000Y-43180000D03*
X61825000Y-43180000D03*
X65175000Y-43180000D03*
X68175000Y-43180000D03*
X71525000Y-43180000D03*
X74525000Y-43180000D03*
D12*
X104140000Y-43180000D03*
X106680000Y-43180000D03*
X109220000Y-43180000D03*
X111760000Y-43180000D03*
X104140000Y-45720000D03*
X106680000Y-45720000D03*
X109220000Y-45720000D03*
X111760000Y-45720000D03*
X104140000Y-48260000D03*
X106680000Y-48260000D03*
X109220000Y-48260000D03*
X111760000Y-48260000D03*
X104140000Y-50800000D03*
X106680000Y-50800000D03*
X109220000Y-50800000D03*
X111760000Y-50800000D03*
X104140000Y-53340000D03*
X106680000Y-53340000D03*
X109220000Y-53340000D03*
X111760000Y-53340000D03*
X104140000Y-55880000D03*
X106680000Y-55880000D03*
X109220000Y-55880000D03*
X111760000Y-55880000D03*
X104140000Y-58420000D03*
X106680000Y-58420000D03*
X109220000Y-58420000D03*
X111760000Y-58420000D03*
X104140000Y-60960000D03*
X106680000Y-60960000D03*
X109220000Y-60960000D03*
X111760000Y-60960000D03*
X104140000Y-63500000D03*
X106680000Y-63500000D03*
X109220000Y-63500000D03*
X111760000Y-63500000D03*
X104140000Y-66040000D03*
X106680000Y-66040000D03*
X109220000Y-66040000D03*
X111760000Y-66040000D03*
X104140000Y-68580000D03*
X106680000Y-68580000D03*
X109220000Y-68580000D03*
X111760000Y-68580000D03*
X104140000Y-71120000D03*
X106680000Y-71120000D03*
X109220000Y-71120000D03*
X111760000Y-71120000D03*
X104140000Y-73660000D03*
X106680000Y-73660000D03*
X109220000Y-73660000D03*
X111760000Y-73660000D03*
X104140000Y-76200000D03*
X106680000Y-76200000D03*
X109220000Y-76200000D03*
X111760000Y-76200000D03*
X104140000Y-78740000D03*
X106680000Y-78740000D03*
X109220000Y-78740000D03*
X111760000Y-78740000D03*
X40640000Y-78740000D03*
X43180000Y-78740000D03*
X45720000Y-78740000D03*
X48260000Y-78740000D03*
X40640000Y-76200000D03*
X43180000Y-76200000D03*
X45720000Y-76200000D03*
X48260000Y-76200000D03*
X40640000Y-73660000D03*
X43180000Y-73660000D03*
X45720000Y-73660000D03*
X48260000Y-73660000D03*
X40640000Y-71120000D03*
X43180000Y-71120000D03*
X45720000Y-71120000D03*
X48260000Y-71120000D03*
X40640000Y-68580000D03*
X43180000Y-68580000D03*
X45720000Y-68580000D03*
X48260000Y-68580000D03*
X40640000Y-66040000D03*
X43180000Y-66040000D03*
X45720000Y-66040000D03*
X48260000Y-66040000D03*
X40640000Y-63500000D03*
X43180000Y-63500000D03*
X45720000Y-63500000D03*
X48260000Y-63500000D03*
X40640000Y-60960000D03*
X43180000Y-60960000D03*
X45720000Y-60960000D03*
X48260000Y-60960000D03*
X40640000Y-58420000D03*
X43180000Y-58420000D03*
X45720000Y-58420000D03*
X48260000Y-58420000D03*
X40640000Y-55880000D03*
X43180000Y-55880000D03*
X45720000Y-55880000D03*
X48260000Y-55880000D03*
X40640000Y-53340000D03*
X43180000Y-53340000D03*
X45720000Y-53340000D03*
X48260000Y-53340000D03*
X40640000Y-50800000D03*
X43180000Y-50800000D03*
X45720000Y-50800000D03*
X48260000Y-50800000D03*
X40640000Y-48260000D03*
X43180000Y-48260000D03*
X45720000Y-48260000D03*
X48260000Y-48260000D03*
X40640000Y-45720000D03*
X43180000Y-45720000D03*
X45720000Y-45720000D03*
X48260000Y-45720000D03*
X40640000Y-43180000D03*
X43180000Y-43180000D03*
X45720000Y-43180000D03*
X48260000Y-43180000D03*
X48260000Y-40640000D03*
X48260000Y-81280000D03*
X104140000Y-81280000D03*
X104140000Y-40640000D03*
X45720000Y-40640000D03*
X43180000Y-40640000D03*
X45720000Y-81280000D03*
X43180000Y-81280000D03*
X106680000Y-81280000D03*
X109220000Y-81280000D03*
X106680000Y-40640000D03*
X109220000Y-40640000D03*
X40640000Y-40640000D03*
X40640000Y-81280000D03*
X111760000Y-81280000D03*
X111760000Y-40640000D03*
D13*
X76200000Y-82296000D03*
X76200000Y-39116000D03*
M02*
