G04 #@! TF.FileFunction,Copper,L1,Top,Signal*
%FSLAX46Y46*%
G04 Gerber Fmt 4.6, Leading zero omitted, Abs format (unit mm)*
G04 Created by KiCad (PCBNEW 4.0.0-rc1-stable) date 09/10/2015 1:57:45 PM*
%MOMM*%
G01*
G04 APERTURE LIST*
%ADD10C,0.150000*%
%ADD11R,3.898900X3.898900*%
%ADD12R,1.399540X1.399540*%
%ADD13R,2.000000X1.600000*%
%ADD14C,0.762000*%
%ADD15C,0.177800*%
G04 APERTURE END LIST*
D10*
D11*
X76200000Y-83566000D03*
D12*
X104140000Y-43180000D03*
X106680000Y-43180000D03*
X109220000Y-43180000D03*
X111760000Y-43180000D03*
X104140000Y-45720000D03*
X106680000Y-45720000D03*
X109220000Y-45720000D03*
X111760000Y-45720000D03*
X104140000Y-48260000D03*
X106680000Y-48260000D03*
X109220000Y-48260000D03*
X111760000Y-48260000D03*
X104140000Y-50800000D03*
X106680000Y-50800000D03*
X109220000Y-50800000D03*
X111760000Y-50800000D03*
X104140000Y-53340000D03*
X106680000Y-53340000D03*
X109220000Y-53340000D03*
X111760000Y-53340000D03*
X104140000Y-55880000D03*
X106680000Y-55880000D03*
X109220000Y-55880000D03*
X111760000Y-55880000D03*
X104140000Y-58420000D03*
X106680000Y-58420000D03*
X109220000Y-58420000D03*
X111760000Y-58420000D03*
X104140000Y-60960000D03*
X106680000Y-60960000D03*
X109220000Y-60960000D03*
X111760000Y-60960000D03*
X104140000Y-63500000D03*
X106680000Y-63500000D03*
X109220000Y-63500000D03*
X111760000Y-63500000D03*
X104140000Y-66040000D03*
X106680000Y-66040000D03*
X109220000Y-66040000D03*
X111760000Y-66040000D03*
X104140000Y-68580000D03*
X106680000Y-68580000D03*
X109220000Y-68580000D03*
X111760000Y-68580000D03*
X104140000Y-71120000D03*
X106680000Y-71120000D03*
X109220000Y-71120000D03*
X111760000Y-71120000D03*
X104140000Y-73660000D03*
X106680000Y-73660000D03*
X109220000Y-73660000D03*
X111760000Y-73660000D03*
X104140000Y-76200000D03*
X106680000Y-76200000D03*
X109220000Y-76200000D03*
X111760000Y-76200000D03*
X104140000Y-78740000D03*
X106680000Y-78740000D03*
X109220000Y-78740000D03*
X111760000Y-78740000D03*
X40640000Y-78740000D03*
X43180000Y-78740000D03*
X45720000Y-78740000D03*
X48260000Y-78740000D03*
X40640000Y-76200000D03*
X43180000Y-76200000D03*
X45720000Y-76200000D03*
X48260000Y-76200000D03*
X40640000Y-73660000D03*
X43180000Y-73660000D03*
X45720000Y-73660000D03*
X48260000Y-73660000D03*
X40640000Y-71120000D03*
X43180000Y-71120000D03*
X45720000Y-71120000D03*
X48260000Y-71120000D03*
X40640000Y-68580000D03*
X43180000Y-68580000D03*
X45720000Y-68580000D03*
X48260000Y-68580000D03*
X40640000Y-66040000D03*
X43180000Y-66040000D03*
X45720000Y-66040000D03*
X48260000Y-66040000D03*
X40640000Y-63500000D03*
X43180000Y-63500000D03*
X45720000Y-63500000D03*
X48260000Y-63500000D03*
X40640000Y-60960000D03*
X43180000Y-60960000D03*
X45720000Y-60960000D03*
X48260000Y-60960000D03*
X40640000Y-58420000D03*
X43180000Y-58420000D03*
X45720000Y-58420000D03*
X48260000Y-58420000D03*
X40640000Y-55880000D03*
X43180000Y-55880000D03*
X45720000Y-55880000D03*
X48260000Y-55880000D03*
X40640000Y-53340000D03*
X43180000Y-53340000D03*
X45720000Y-53340000D03*
X48260000Y-53340000D03*
X40640000Y-50800000D03*
X43180000Y-50800000D03*
X45720000Y-50800000D03*
X48260000Y-50800000D03*
X40640000Y-48260000D03*
X43180000Y-48260000D03*
X45720000Y-48260000D03*
X48260000Y-48260000D03*
X40640000Y-45720000D03*
X43180000Y-45720000D03*
X45720000Y-45720000D03*
X48260000Y-45720000D03*
X40640000Y-43180000D03*
X43180000Y-43180000D03*
X45720000Y-43180000D03*
X48260000Y-43180000D03*
D13*
X77375000Y-43180000D03*
X81375000Y-43180000D03*
X83725000Y-43180000D03*
X87725000Y-43180000D03*
X90075000Y-43180000D03*
X94075000Y-43180000D03*
X96425000Y-43180000D03*
X100425000Y-43180000D03*
X77375000Y-45720000D03*
X81375000Y-45720000D03*
X83725000Y-45720000D03*
X87725000Y-45720000D03*
X90075000Y-45720000D03*
X94075000Y-45720000D03*
X96425000Y-45720000D03*
X100425000Y-45720000D03*
X77375000Y-48260000D03*
X81375000Y-48260000D03*
X83725000Y-48260000D03*
X87725000Y-48260000D03*
X90075000Y-48260000D03*
X94075000Y-48260000D03*
X96425000Y-48260000D03*
X100425000Y-48260000D03*
X77375000Y-50800000D03*
X81375000Y-50800000D03*
X83725000Y-50800000D03*
X87725000Y-50800000D03*
X90075000Y-50800000D03*
X94075000Y-50800000D03*
X96425000Y-50800000D03*
X100425000Y-50800000D03*
X77375000Y-53340000D03*
X81375000Y-53340000D03*
X83725000Y-53340000D03*
X87725000Y-53340000D03*
X90075000Y-53340000D03*
X94075000Y-53340000D03*
X96425000Y-53340000D03*
X100425000Y-53340000D03*
X77375000Y-55880000D03*
X81375000Y-55880000D03*
X83725000Y-55880000D03*
X87725000Y-55880000D03*
X90075000Y-55880000D03*
X94075000Y-55880000D03*
X96425000Y-55880000D03*
X100425000Y-55880000D03*
X77375000Y-58420000D03*
X81375000Y-58420000D03*
X83725000Y-58420000D03*
X87725000Y-58420000D03*
X90075000Y-58420000D03*
X94075000Y-58420000D03*
X96425000Y-58420000D03*
X100425000Y-58420000D03*
X77375000Y-60960000D03*
X81375000Y-60960000D03*
X83725000Y-60960000D03*
X87725000Y-60960000D03*
X90075000Y-60960000D03*
X94075000Y-60960000D03*
X96425000Y-60960000D03*
X100425000Y-60960000D03*
X77375000Y-63500000D03*
X81375000Y-63500000D03*
X83725000Y-63500000D03*
X87725000Y-63500000D03*
X90075000Y-63500000D03*
X94075000Y-63500000D03*
X96425000Y-63500000D03*
X100425000Y-63500000D03*
X77375000Y-66040000D03*
X81375000Y-66040000D03*
X83725000Y-66040000D03*
X87725000Y-66040000D03*
X90075000Y-66040000D03*
X94075000Y-66040000D03*
X96425000Y-66040000D03*
X100425000Y-66040000D03*
X77375000Y-68580000D03*
X81375000Y-68580000D03*
X83725000Y-68580000D03*
X87725000Y-68580000D03*
X90075000Y-68580000D03*
X94075000Y-68580000D03*
X96425000Y-68580000D03*
X100425000Y-68580000D03*
X77375000Y-71120000D03*
X81375000Y-71120000D03*
X83725000Y-71120000D03*
X87725000Y-71120000D03*
X90075000Y-71120000D03*
X94075000Y-71120000D03*
X96425000Y-71120000D03*
X100425000Y-71120000D03*
X77375000Y-73660000D03*
X81375000Y-73660000D03*
X83725000Y-73660000D03*
X87725000Y-73660000D03*
X90075000Y-73660000D03*
X94075000Y-73660000D03*
X96425000Y-73660000D03*
X100425000Y-73660000D03*
X77375000Y-76200000D03*
X81375000Y-76200000D03*
X83725000Y-76200000D03*
X87725000Y-76200000D03*
X90075000Y-76200000D03*
X94075000Y-76200000D03*
X96425000Y-76200000D03*
X100425000Y-76200000D03*
X77375000Y-78740000D03*
X81375000Y-78740000D03*
X83725000Y-78740000D03*
X87725000Y-78740000D03*
X90075000Y-78740000D03*
X94075000Y-78740000D03*
X96425000Y-78740000D03*
X100425000Y-78740000D03*
X51975000Y-78740000D03*
X55975000Y-78740000D03*
X58325000Y-78740000D03*
X62325000Y-78740000D03*
X64675000Y-78740000D03*
X68675000Y-78740000D03*
X71025000Y-78740000D03*
X75025000Y-78740000D03*
X51975000Y-76200000D03*
X55975000Y-76200000D03*
X58325000Y-76200000D03*
X62325000Y-76200000D03*
X64675000Y-76200000D03*
X68675000Y-76200000D03*
X71025000Y-76200000D03*
X75025000Y-76200000D03*
X51975000Y-73660000D03*
X55975000Y-73660000D03*
X58325000Y-73660000D03*
X62325000Y-73660000D03*
X64675000Y-73660000D03*
X68675000Y-73660000D03*
X71025000Y-73660000D03*
X75025000Y-73660000D03*
X51975000Y-71120000D03*
X55975000Y-71120000D03*
X58325000Y-71120000D03*
X62325000Y-71120000D03*
X64675000Y-71120000D03*
X68675000Y-71120000D03*
X71025000Y-71120000D03*
X75025000Y-71120000D03*
X51975000Y-68580000D03*
X55975000Y-68580000D03*
X58325000Y-68580000D03*
X62325000Y-68580000D03*
X64675000Y-68580000D03*
X68675000Y-68580000D03*
X71025000Y-68580000D03*
X75025000Y-68580000D03*
X51975000Y-66040000D03*
X55975000Y-66040000D03*
X58325000Y-66040000D03*
X62325000Y-66040000D03*
X64675000Y-66040000D03*
X68675000Y-66040000D03*
X71025000Y-66040000D03*
X75025000Y-66040000D03*
X51975000Y-63500000D03*
X55975000Y-63500000D03*
X58325000Y-63500000D03*
X62325000Y-63500000D03*
X64675000Y-63500000D03*
X68675000Y-63500000D03*
X71025000Y-63500000D03*
X75025000Y-63500000D03*
X51975000Y-60960000D03*
X55975000Y-60960000D03*
X58325000Y-60960000D03*
X62325000Y-60960000D03*
X64675000Y-60960000D03*
X68675000Y-60960000D03*
X71025000Y-60960000D03*
X75025000Y-60960000D03*
X51975000Y-58420000D03*
X55975000Y-58420000D03*
X58325000Y-58420000D03*
X62325000Y-58420000D03*
X64675000Y-58420000D03*
X68675000Y-58420000D03*
X71025000Y-58420000D03*
X75025000Y-58420000D03*
X51975000Y-55880000D03*
X55975000Y-55880000D03*
X58325000Y-55880000D03*
X62325000Y-55880000D03*
X64675000Y-55880000D03*
X68675000Y-55880000D03*
X71025000Y-55880000D03*
X75025000Y-55880000D03*
X51975000Y-53340000D03*
X55975000Y-53340000D03*
X58325000Y-53340000D03*
X62325000Y-53340000D03*
X64675000Y-53340000D03*
X68675000Y-53340000D03*
X71025000Y-53340000D03*
X75025000Y-53340000D03*
X51975000Y-50800000D03*
X55975000Y-50800000D03*
X58325000Y-50800000D03*
X62325000Y-50800000D03*
X64675000Y-50800000D03*
X68675000Y-50800000D03*
X71025000Y-50800000D03*
X75025000Y-50800000D03*
X51975000Y-48260000D03*
X55975000Y-48260000D03*
X58325000Y-48260000D03*
X62325000Y-48260000D03*
X64675000Y-48260000D03*
X68675000Y-48260000D03*
X71025000Y-48260000D03*
X75025000Y-48260000D03*
X51975000Y-45720000D03*
X55975000Y-45720000D03*
X58325000Y-45720000D03*
X62325000Y-45720000D03*
X64675000Y-45720000D03*
X68675000Y-45720000D03*
X71025000Y-45720000D03*
X75025000Y-45720000D03*
X51975000Y-43180000D03*
X55975000Y-43180000D03*
X58325000Y-43180000D03*
X62325000Y-43180000D03*
X64675000Y-43180000D03*
X68675000Y-43180000D03*
X71025000Y-43180000D03*
X75025000Y-43180000D03*
D14*
X103950000Y-42450000D03*
X77614780Y-42397520D03*
X84074000Y-43180000D03*
X106500000Y-42600000D03*
X90424000Y-43180000D03*
X109250000Y-42950000D03*
X96750000Y-43600000D03*
X111760000Y-43180000D03*
X77614780Y-44947520D03*
X103950000Y-45000000D03*
X106500000Y-45150000D03*
X84074000Y-45730000D03*
X109250000Y-45500000D03*
X90424000Y-45730000D03*
X111760000Y-45730000D03*
X96750000Y-46150000D03*
X77614780Y-47447520D03*
X103950000Y-47500000D03*
X106500000Y-47650000D03*
X84074000Y-48230000D03*
X109250000Y-48000000D03*
X90424000Y-48230000D03*
X111760000Y-48230000D03*
X96750000Y-48650000D03*
X103950000Y-50050000D03*
X77614780Y-49997520D03*
X84074000Y-50780000D03*
X106500000Y-50200000D03*
X90424000Y-50780000D03*
X109250000Y-50550000D03*
X96750000Y-51200000D03*
X111760000Y-50780000D03*
X77614780Y-52547520D03*
X103950000Y-52600000D03*
X106500000Y-52750000D03*
X84074000Y-53330000D03*
X109250000Y-53100000D03*
X90424000Y-53330000D03*
X111760000Y-53330000D03*
X96750000Y-53750000D03*
X103950000Y-55150000D03*
X77614780Y-55097520D03*
X84074000Y-55880000D03*
X106500000Y-55300000D03*
X90424000Y-55880000D03*
X109250000Y-55650000D03*
X96750000Y-56300000D03*
X111760000Y-55880000D03*
X103950000Y-57650000D03*
X77614780Y-57597520D03*
X84074000Y-58380000D03*
X106500000Y-57800000D03*
X90424000Y-58380000D03*
X109250000Y-58150000D03*
X96750000Y-58800000D03*
X111760000Y-58380000D03*
X77614780Y-60147520D03*
X103950000Y-60200000D03*
X106500000Y-60350000D03*
X84074000Y-60930000D03*
X109250000Y-60700000D03*
X90424000Y-60930000D03*
X111760000Y-60930000D03*
X96750000Y-61350000D03*
X77614780Y-62647520D03*
X103950000Y-62700000D03*
X106500000Y-62850000D03*
X84074000Y-63430000D03*
X109250000Y-63200000D03*
X90424000Y-63430000D03*
X111760000Y-63430000D03*
X96750000Y-63850000D03*
X103950000Y-65300000D03*
X77614780Y-65247520D03*
X84074000Y-66030000D03*
X106500000Y-65450000D03*
X90424000Y-66030000D03*
X109250000Y-65800000D03*
X96750000Y-66450000D03*
X111760000Y-66030000D03*
X77614780Y-67797520D03*
X103950000Y-67850000D03*
X106500000Y-68000000D03*
X84074000Y-68580000D03*
X109250000Y-68350000D03*
X90424000Y-68580000D03*
X111760000Y-68580000D03*
X96750000Y-69000000D03*
X103950000Y-70400000D03*
X77614780Y-70347520D03*
X84074000Y-71130000D03*
X106500000Y-70550000D03*
X90424000Y-71130000D03*
X109250000Y-70900000D03*
X96750000Y-71550000D03*
X111760000Y-71130000D03*
X77614780Y-72897520D03*
X103950000Y-72950000D03*
X106500000Y-73100000D03*
X84074000Y-73680000D03*
X109250000Y-73450000D03*
X90424000Y-73680000D03*
X111760000Y-73680000D03*
X96750000Y-74100000D03*
X103950000Y-75450000D03*
X77614780Y-75397520D03*
X106500000Y-75600000D03*
X84074000Y-76180000D03*
X109250000Y-75950000D03*
X90424000Y-76180000D03*
X111760000Y-76180000D03*
X96750000Y-76600000D03*
X103950000Y-78000000D03*
X77614780Y-77947520D03*
X84074000Y-78730000D03*
X106500000Y-78150000D03*
X90424000Y-78730000D03*
X109250000Y-78500000D03*
X96750000Y-79150000D03*
X111760000Y-78730000D03*
X52400000Y-79100000D03*
X40690000Y-78780000D03*
X58724000Y-78780000D03*
X43150000Y-78450000D03*
X65074000Y-78780000D03*
X65074000Y-78780000D03*
X45750000Y-78200000D03*
X71424000Y-78780000D03*
X71424000Y-78780000D03*
X48250000Y-78050000D03*
X71424000Y-78780000D03*
X52400000Y-76550000D03*
X40690000Y-76230000D03*
X58724000Y-76230000D03*
X43150000Y-75900000D03*
X65074000Y-76230000D03*
X65074000Y-76230000D03*
X45750000Y-75650000D03*
X48250000Y-75500000D03*
X71424000Y-76230000D03*
X71424000Y-76230000D03*
X71424000Y-76230000D03*
X40690000Y-73680000D03*
X52400000Y-74000000D03*
X43150000Y-73350000D03*
X58724000Y-73680000D03*
X65074000Y-73680000D03*
X45750000Y-73100000D03*
X65074000Y-73680000D03*
X71424000Y-73680000D03*
X71424000Y-73680000D03*
X71424000Y-73680000D03*
X48250000Y-72950000D03*
X40640000Y-71130000D03*
X52350000Y-71450000D03*
X43100000Y-70800000D03*
X58674000Y-71130000D03*
X65024000Y-71130000D03*
X45700000Y-70550000D03*
X65024000Y-71130000D03*
X71374000Y-71130000D03*
X71374000Y-71130000D03*
X71374000Y-71130000D03*
X48200000Y-70400000D03*
X52350000Y-68900000D03*
X40640000Y-68580000D03*
X58674000Y-68580000D03*
X43100000Y-68250000D03*
X65024000Y-68580000D03*
X65024000Y-68580000D03*
X45700000Y-68000000D03*
X48200000Y-67850000D03*
X71374000Y-68580000D03*
X71374000Y-68580000D03*
X71374000Y-68580000D03*
X52350000Y-66350000D03*
X40640000Y-66030000D03*
X58674000Y-66030000D03*
X43100000Y-65700000D03*
X65024000Y-66030000D03*
X65024000Y-66030000D03*
X45700000Y-65450000D03*
X71374000Y-66030000D03*
X71374000Y-66030000D03*
X48200000Y-65300000D03*
X71374000Y-66030000D03*
X40640000Y-63480000D03*
X52350000Y-63800000D03*
X43100000Y-63150000D03*
X58674000Y-63480000D03*
X65024000Y-63480000D03*
X45700000Y-62900000D03*
X65024000Y-63480000D03*
X71374000Y-63480000D03*
X71374000Y-63480000D03*
X71374000Y-63480000D03*
X48200000Y-62750000D03*
X40690000Y-60980000D03*
X52400000Y-61300000D03*
X43150000Y-60650000D03*
X58724000Y-60980000D03*
X65074000Y-60980000D03*
X45750000Y-60400000D03*
X65074000Y-60980000D03*
X71424000Y-60980000D03*
X48250000Y-60250000D03*
X71424000Y-60980000D03*
X71424000Y-60980000D03*
X52400000Y-58750000D03*
X40690000Y-58430000D03*
X58724000Y-58430000D03*
X43150000Y-58100000D03*
X65074000Y-58430000D03*
X65074000Y-58430000D03*
X45750000Y-57850000D03*
X71424000Y-58430000D03*
X71424000Y-58430000D03*
X48250000Y-57700000D03*
X71424000Y-58430000D03*
X52400000Y-56200000D03*
X40690000Y-55880000D03*
X58724000Y-55880000D03*
X43150000Y-55550000D03*
X65074000Y-55880000D03*
X65074000Y-55880000D03*
X45750000Y-55300000D03*
X71424000Y-55880000D03*
X71424000Y-55880000D03*
X48250000Y-55150000D03*
X71424000Y-55880000D03*
X40690000Y-53330000D03*
X52400000Y-53650000D03*
X43150000Y-53000000D03*
X58724000Y-53330000D03*
X65074000Y-53330000D03*
X45750000Y-52750000D03*
X65074000Y-53330000D03*
X71424000Y-53330000D03*
X71424000Y-53330000D03*
X71424000Y-53330000D03*
X48250000Y-52600000D03*
X52350000Y-51150000D03*
X40640000Y-50830000D03*
X58674000Y-50830000D03*
X43100000Y-50500000D03*
X65024000Y-50830000D03*
X65024000Y-50830000D03*
X45700000Y-50250000D03*
X71374000Y-50830000D03*
X71374000Y-50830000D03*
X48200000Y-50100000D03*
X71374000Y-50830000D03*
X40640000Y-48280000D03*
X52350000Y-48600000D03*
X43100000Y-47950000D03*
X58674000Y-48280000D03*
X45700000Y-47700000D03*
X65024000Y-48280000D03*
X65024000Y-48280000D03*
X71374000Y-48280000D03*
X71374000Y-48280000D03*
X71374000Y-48280000D03*
X48200000Y-47550000D03*
X40640000Y-45730000D03*
X52350000Y-46050000D03*
X43100000Y-45400000D03*
X58674000Y-45730000D03*
X65024000Y-45730000D03*
X45700000Y-45150000D03*
X65024000Y-45730000D03*
X71374000Y-45730000D03*
X71374000Y-45730000D03*
X71374000Y-45730000D03*
X48200000Y-45000000D03*
X52350000Y-43500000D03*
X40640000Y-43180000D03*
X58674000Y-43180000D03*
X43100000Y-42850000D03*
X65024000Y-43180000D03*
X65024000Y-43180000D03*
X45700000Y-42600000D03*
X71374000Y-43180000D03*
X71374000Y-43180000D03*
X48200000Y-42450000D03*
X71374000Y-43180000D03*
D15*
X77375000Y-43180000D02*
X77375000Y-42637300D01*
X77375000Y-42637300D02*
X77614780Y-42397520D01*
X77614780Y-42397520D02*
X77375000Y-43180000D01*
X103950000Y-42450000D02*
X104040000Y-42540000D01*
X104040000Y-42805000D02*
X104040000Y-42540000D01*
X81375000Y-78740000D02*
X81375000Y-83566000D01*
X81375000Y-83566000D02*
X81280000Y-83566000D01*
X87725000Y-78740000D02*
X87725000Y-83566000D01*
X87725000Y-83566000D02*
X87630000Y-83566000D01*
X94075000Y-78740000D02*
X94075000Y-83566000D01*
X94075000Y-83566000D02*
X93980000Y-83566000D01*
X76200000Y-83566000D02*
X81280000Y-83566000D01*
X81280000Y-83566000D02*
X87630000Y-83566000D01*
X87630000Y-83566000D02*
X93980000Y-83566000D01*
X93980000Y-83566000D02*
X96774000Y-83566000D01*
X100425000Y-79915000D02*
X100425000Y-78740000D01*
X96774000Y-83566000D02*
X100425000Y-79915000D01*
X75025000Y-78740000D02*
X75025000Y-82391000D01*
X75025000Y-82391000D02*
X76200000Y-83566000D01*
X68675000Y-78740000D02*
X68675000Y-83566000D01*
X68675000Y-83566000D02*
X68580000Y-83566000D01*
X62325000Y-78740000D02*
X62325000Y-83566000D01*
X62325000Y-83566000D02*
X62484000Y-83566000D01*
X76200000Y-83566000D02*
X68580000Y-83566000D01*
X68580000Y-83566000D02*
X62484000Y-83566000D01*
X62484000Y-83566000D02*
X59690000Y-83566000D01*
X55975000Y-79851000D02*
X55975000Y-78740000D01*
X59690000Y-83566000D02*
X55975000Y-79851000D01*
X55626000Y-76200000D02*
X55626000Y-78740000D01*
X55626000Y-73660000D02*
X55626000Y-76200000D01*
X55626000Y-71120000D02*
X55626000Y-73660000D01*
X55626000Y-68580000D02*
X55626000Y-71120000D01*
X55626000Y-66040000D02*
X55626000Y-68580000D01*
X55626000Y-63500000D02*
X55626000Y-66040000D01*
X55626000Y-60960000D02*
X55626000Y-63500000D01*
X55626000Y-58420000D02*
X55626000Y-60960000D01*
X55626000Y-55880000D02*
X55626000Y-58420000D01*
X55626000Y-53340000D02*
X55626000Y-55880000D01*
X55626000Y-50800000D02*
X55626000Y-53340000D01*
X55626000Y-48260000D02*
X55626000Y-50800000D01*
X55626000Y-45720000D02*
X55626000Y-48260000D01*
X55626000Y-43180000D02*
X55626000Y-45720000D01*
X61976000Y-43180000D02*
X61976000Y-45720000D01*
X61976000Y-45720000D02*
X61976000Y-48260000D01*
X61976000Y-48260000D02*
X61976000Y-50800000D01*
X61976000Y-50800000D02*
X61976000Y-53340000D01*
X61976000Y-53340000D02*
X61976000Y-55880000D01*
X61976000Y-55880000D02*
X61976000Y-58420000D01*
X61976000Y-58420000D02*
X61976000Y-60960000D01*
X61976000Y-60960000D02*
X61976000Y-63500000D01*
X61976000Y-63500000D02*
X61976000Y-66040000D01*
X61976000Y-66040000D02*
X61976000Y-68580000D01*
X61976000Y-68580000D02*
X61976000Y-71120000D01*
X61976000Y-71120000D02*
X61976000Y-73660000D01*
X61976000Y-73660000D02*
X61976000Y-76200000D01*
X61976000Y-76200000D02*
X61976000Y-78740000D01*
X68326000Y-76200000D02*
X68326000Y-78740000D01*
X68326000Y-73660000D02*
X68326000Y-76200000D01*
X68326000Y-71120000D02*
X68326000Y-73660000D01*
X68326000Y-68580000D02*
X68326000Y-71120000D01*
X68326000Y-66040000D02*
X68326000Y-68580000D01*
X68326000Y-63500000D02*
X68326000Y-66040000D01*
X68326000Y-60960000D02*
X68326000Y-63500000D01*
X68326000Y-58420000D02*
X68326000Y-60960000D01*
X68326000Y-55880000D02*
X68326000Y-58420000D01*
X68326000Y-53340000D02*
X68326000Y-55880000D01*
X68326000Y-50800000D02*
X68326000Y-53340000D01*
X68326000Y-48260000D02*
X68326000Y-50800000D01*
X68326000Y-45720000D02*
X68326000Y-48260000D01*
X68326000Y-43180000D02*
X68326000Y-45720000D01*
X74676000Y-43180000D02*
X74676000Y-45720000D01*
X74676000Y-45720000D02*
X74676000Y-48260000D01*
X74676000Y-48260000D02*
X74676000Y-50800000D01*
X74676000Y-50800000D02*
X74676000Y-53340000D01*
X74676000Y-53340000D02*
X74676000Y-55880000D01*
X74676000Y-55880000D02*
X74676000Y-58420000D01*
X74676000Y-58420000D02*
X74676000Y-60960000D01*
X74676000Y-60960000D02*
X74676000Y-63500000D01*
X74676000Y-63500000D02*
X74676000Y-66040000D01*
X74676000Y-66040000D02*
X74676000Y-68580000D01*
X74676000Y-68580000D02*
X74676000Y-71120000D01*
X74676000Y-71120000D02*
X74676000Y-73660000D01*
X74676000Y-73660000D02*
X74676000Y-76200000D01*
X74676000Y-76200000D02*
X74676000Y-78740000D01*
X81026000Y-76200000D02*
X81026000Y-78740000D01*
X81026000Y-73660000D02*
X81026000Y-76200000D01*
X81026000Y-71120000D02*
X81026000Y-73660000D01*
X81026000Y-68580000D02*
X81026000Y-71120000D01*
X81026000Y-66040000D02*
X81026000Y-68580000D01*
X81026000Y-63500000D02*
X81026000Y-66040000D01*
X81026000Y-60960000D02*
X81026000Y-63500000D01*
X81026000Y-58420000D02*
X81026000Y-60960000D01*
X81026000Y-55880000D02*
X81026000Y-58420000D01*
X81026000Y-53340000D02*
X81026000Y-55880000D01*
X81026000Y-50800000D02*
X81026000Y-53340000D01*
X81026000Y-48260000D02*
X81026000Y-50800000D01*
X81026000Y-45720000D02*
X81026000Y-48260000D01*
X81026000Y-43180000D02*
X81026000Y-45720000D01*
X87376000Y-76200000D02*
X87376000Y-78740000D01*
X87376000Y-73660000D02*
X87376000Y-76200000D01*
X87376000Y-71120000D02*
X87376000Y-73660000D01*
X87376000Y-68580000D02*
X87376000Y-71120000D01*
X87376000Y-66040000D02*
X87376000Y-68580000D01*
X87376000Y-63500000D02*
X87376000Y-66040000D01*
X87376000Y-60960000D02*
X87376000Y-63500000D01*
X87376000Y-58420000D02*
X87376000Y-60960000D01*
X87376000Y-55880000D02*
X87376000Y-58420000D01*
X87376000Y-53340000D02*
X87376000Y-55880000D01*
X87376000Y-50800000D02*
X87376000Y-53340000D01*
X87376000Y-48260000D02*
X87376000Y-50800000D01*
X87376000Y-45720000D02*
X87376000Y-48260000D01*
X87376000Y-43180000D02*
X87376000Y-45720000D01*
X93726000Y-76200000D02*
X93726000Y-78740000D01*
X93726000Y-73660000D02*
X93726000Y-76200000D01*
X93726000Y-71120000D02*
X93726000Y-73660000D01*
X93726000Y-68580000D02*
X93726000Y-71120000D01*
X93726000Y-66040000D02*
X93726000Y-68580000D01*
X93726000Y-63500000D02*
X93726000Y-66040000D01*
X93726000Y-60960000D02*
X93726000Y-63500000D01*
X93726000Y-58420000D02*
X93726000Y-60960000D01*
X93726000Y-55880000D02*
X93726000Y-58420000D01*
X93726000Y-53340000D02*
X93726000Y-55880000D01*
X93726000Y-50800000D02*
X93726000Y-53340000D01*
X93726000Y-48260000D02*
X93726000Y-50800000D01*
X93726000Y-45720000D02*
X93726000Y-48260000D01*
X93726000Y-43180000D02*
X93726000Y-45720000D01*
X100076000Y-76200000D02*
X100076000Y-78740000D01*
X100076000Y-73660000D02*
X100076000Y-76200000D01*
X100076000Y-71120000D02*
X100076000Y-73660000D01*
X100076000Y-68580000D02*
X100076000Y-71120000D01*
X100076000Y-66040000D02*
X100076000Y-68580000D01*
X100076000Y-63500000D02*
X100076000Y-66040000D01*
X100076000Y-60960000D02*
X100076000Y-63500000D01*
X100076000Y-58420000D02*
X100076000Y-60960000D01*
X100076000Y-55880000D02*
X100076000Y-58420000D01*
X100076000Y-53340000D02*
X100076000Y-55880000D01*
X100076000Y-50800000D02*
X100076000Y-53340000D01*
X100076000Y-48260000D02*
X100076000Y-50800000D01*
X100076000Y-45720000D02*
X100076000Y-48260000D01*
X100076000Y-43180000D02*
X100076000Y-45720000D01*
X74676000Y-85090000D02*
X74650000Y-85064000D01*
X74650000Y-85064000D02*
X74650000Y-85050000D01*
X74650000Y-85050000D02*
X74650000Y-85090000D01*
X100100000Y-78764000D02*
X100076000Y-78740000D01*
X106500000Y-42600000D02*
X106680000Y-42780000D01*
X109220000Y-43180000D02*
X109220000Y-42980000D01*
X109250000Y-42950000D02*
X109220000Y-42980000D01*
X96750000Y-43600000D02*
X96774000Y-43576000D01*
X96774000Y-43180000D02*
X96774000Y-43576000D01*
X104040000Y-45355000D02*
X104040000Y-45090000D01*
X103950000Y-45000000D02*
X104040000Y-45090000D01*
X106500000Y-45150000D02*
X106680000Y-45330000D01*
X109250000Y-45500000D02*
X109220000Y-45530000D01*
X109220000Y-45730000D02*
X109220000Y-45530000D01*
X96774000Y-45730000D02*
X96774000Y-46126000D01*
X96750000Y-46150000D02*
X96774000Y-46126000D01*
X77375000Y-48260000D02*
X77375000Y-47687300D01*
X77375000Y-47687300D02*
X77614780Y-47447520D01*
X104040000Y-47855000D02*
X104040000Y-47590000D01*
X103950000Y-47500000D02*
X104040000Y-47590000D01*
X106500000Y-47650000D02*
X106680000Y-47830000D01*
X109250000Y-48000000D02*
X109220000Y-48030000D01*
X109220000Y-48230000D02*
X109220000Y-48030000D01*
X96774000Y-48230000D02*
X96774000Y-48626000D01*
X96750000Y-48650000D02*
X96774000Y-48626000D01*
X77375000Y-50800000D02*
X77375000Y-50237300D01*
X77375000Y-50237300D02*
X77614780Y-49997520D01*
X103950000Y-50050000D02*
X104040000Y-50140000D01*
X104040000Y-50405000D02*
X104040000Y-50140000D01*
X106500000Y-50200000D02*
X106680000Y-50380000D01*
X109220000Y-50780000D02*
X109220000Y-50580000D01*
X109250000Y-50550000D02*
X109220000Y-50580000D01*
X96750000Y-51200000D02*
X96774000Y-51176000D01*
X96774000Y-50780000D02*
X96774000Y-51176000D01*
X104040000Y-52955000D02*
X104040000Y-52690000D01*
X103950000Y-52600000D02*
X104040000Y-52690000D01*
X106500000Y-52750000D02*
X106680000Y-52930000D01*
X109250000Y-53100000D02*
X109220000Y-53130000D01*
X109220000Y-53330000D02*
X109220000Y-53130000D01*
X96774000Y-53330000D02*
X96774000Y-53726000D01*
X96750000Y-53750000D02*
X96774000Y-53726000D01*
X103950000Y-55150000D02*
X104040000Y-55240000D01*
X104040000Y-55505000D02*
X104040000Y-55240000D01*
X106500000Y-55300000D02*
X106680000Y-55480000D01*
X109220000Y-55880000D02*
X109220000Y-55680000D01*
X109250000Y-55650000D02*
X109220000Y-55680000D01*
X96750000Y-56300000D02*
X96774000Y-56276000D01*
X96774000Y-55880000D02*
X96774000Y-56276000D01*
X77375000Y-58420000D02*
X77375000Y-57837300D01*
X77375000Y-57837300D02*
X77614780Y-57597520D01*
X103950000Y-57650000D02*
X104040000Y-57740000D01*
X104040000Y-58005000D02*
X104040000Y-57740000D01*
X106500000Y-57800000D02*
X106680000Y-57980000D01*
X109220000Y-58380000D02*
X109220000Y-58180000D01*
X109250000Y-58150000D02*
X109220000Y-58180000D01*
X96750000Y-58800000D02*
X96774000Y-58776000D01*
X96774000Y-58380000D02*
X96774000Y-58776000D01*
X77375000Y-60960000D02*
X77375000Y-60387300D01*
X77375000Y-60387300D02*
X77614780Y-60147520D01*
X104040000Y-60555000D02*
X104040000Y-60290000D01*
X103950000Y-60200000D02*
X104040000Y-60290000D01*
X106500000Y-60350000D02*
X106680000Y-60530000D01*
X109250000Y-60700000D02*
X109220000Y-60730000D01*
X109220000Y-60930000D02*
X109220000Y-60730000D01*
X96774000Y-60930000D02*
X96774000Y-61326000D01*
X96750000Y-61350000D02*
X96774000Y-61326000D01*
X77375000Y-63500000D02*
X77375000Y-62887300D01*
X77375000Y-62887300D02*
X77614780Y-62647520D01*
X104040000Y-63055000D02*
X104040000Y-62790000D01*
X103950000Y-62700000D02*
X104040000Y-62790000D01*
X106500000Y-62850000D02*
X106680000Y-63030000D01*
X109250000Y-63200000D02*
X109220000Y-63230000D01*
X109220000Y-63430000D02*
X109220000Y-63230000D01*
X96774000Y-63430000D02*
X96774000Y-63826000D01*
X96750000Y-63850000D02*
X96774000Y-63826000D01*
X103950000Y-65300000D02*
X104040000Y-65390000D01*
X104040000Y-65655000D02*
X104040000Y-65390000D01*
X106500000Y-65450000D02*
X106680000Y-65630000D01*
X109220000Y-66030000D02*
X109220000Y-65830000D01*
X109250000Y-65800000D02*
X109220000Y-65830000D01*
X96750000Y-66450000D02*
X96774000Y-66426000D01*
X96774000Y-66030000D02*
X96774000Y-66426000D01*
X104040000Y-68205000D02*
X104040000Y-67940000D01*
X103950000Y-67850000D02*
X104040000Y-67940000D01*
X106500000Y-68000000D02*
X106680000Y-68180000D01*
X109250000Y-68350000D02*
X109220000Y-68380000D01*
X109220000Y-68580000D02*
X109220000Y-68380000D01*
X96774000Y-68580000D02*
X96774000Y-68976000D01*
X96750000Y-69000000D02*
X96774000Y-68976000D01*
X103950000Y-70400000D02*
X104040000Y-70490000D01*
X104040000Y-70755000D02*
X104040000Y-70490000D01*
X106500000Y-70550000D02*
X106680000Y-70730000D01*
X109220000Y-71130000D02*
X109220000Y-70930000D01*
X109250000Y-70900000D02*
X109220000Y-70930000D01*
X96750000Y-71550000D02*
X96774000Y-71526000D01*
X96774000Y-71130000D02*
X96774000Y-71526000D01*
X104040000Y-73305000D02*
X104040000Y-73040000D01*
X103950000Y-72950000D02*
X104040000Y-73040000D01*
X106500000Y-73100000D02*
X106680000Y-73280000D01*
X109250000Y-73450000D02*
X109220000Y-73480000D01*
X109220000Y-73680000D02*
X109220000Y-73480000D01*
X96774000Y-73680000D02*
X96774000Y-74076000D01*
X96750000Y-74100000D02*
X96774000Y-74076000D01*
X77614780Y-75960220D02*
X77614780Y-75397520D01*
X103950000Y-75450000D02*
X104040000Y-75540000D01*
X77614780Y-75960220D02*
X77375000Y-76200000D01*
X104040000Y-75805000D02*
X104040000Y-75540000D01*
X106500000Y-75600000D02*
X106680000Y-75780000D01*
X109250000Y-75950000D02*
X109220000Y-75980000D01*
X109220000Y-76180000D02*
X109220000Y-75980000D01*
X96774000Y-76180000D02*
X96774000Y-76576000D01*
X96750000Y-76600000D02*
X96774000Y-76576000D01*
X103950000Y-78000000D02*
X104040000Y-78090000D01*
X104040000Y-78355000D02*
X104040000Y-78090000D01*
X106500000Y-78150000D02*
X106680000Y-78330000D01*
X109220000Y-78730000D02*
X109220000Y-78530000D01*
X109250000Y-78500000D02*
X109220000Y-78530000D01*
X96750000Y-79150000D02*
X96774000Y-79126000D01*
X96774000Y-78730000D02*
X96774000Y-79126000D01*
X52400000Y-79100000D02*
X52374000Y-79074000D01*
X52374000Y-78780000D02*
X52374000Y-79074000D01*
X43230000Y-78530000D02*
X43230000Y-78780000D01*
X43150000Y-78450000D02*
X43230000Y-78530000D01*
X45750000Y-78200000D02*
X45770000Y-78220000D01*
X45770000Y-78780000D02*
X45770000Y-78220000D01*
X48250000Y-78050000D02*
X48310000Y-78110000D01*
X48310000Y-78130000D02*
X48310000Y-78110000D01*
X52400000Y-76550000D02*
X52374000Y-76524000D01*
X52374000Y-76230000D02*
X52374000Y-76524000D01*
X43230000Y-75980000D02*
X43230000Y-76230000D01*
X43150000Y-75900000D02*
X43230000Y-75980000D01*
X45750000Y-75650000D02*
X45770000Y-75670000D01*
X45770000Y-76230000D02*
X45770000Y-75670000D01*
X48250000Y-75500000D02*
X48310000Y-75560000D01*
X48310000Y-75580000D02*
X48310000Y-75560000D01*
X52374000Y-73680000D02*
X52374000Y-73974000D01*
X52400000Y-74000000D02*
X52374000Y-73974000D01*
X43150000Y-73350000D02*
X43230000Y-73430000D01*
X43230000Y-73430000D02*
X43230000Y-73680000D01*
X45770000Y-73680000D02*
X45770000Y-73120000D01*
X45750000Y-73100000D02*
X45770000Y-73120000D01*
X48310000Y-73030000D02*
X48310000Y-73010000D01*
X48250000Y-72950000D02*
X48310000Y-73010000D01*
X52324000Y-71130000D02*
X52324000Y-71424000D01*
X52350000Y-71450000D02*
X52324000Y-71424000D01*
X43100000Y-70800000D02*
X43180000Y-70880000D01*
X43180000Y-70880000D02*
X43180000Y-71130000D01*
X45720000Y-71130000D02*
X45720000Y-70570000D01*
X45700000Y-70550000D02*
X45720000Y-70570000D01*
X48260000Y-70480000D02*
X48260000Y-70460000D01*
X48200000Y-70400000D02*
X48260000Y-70460000D01*
X52350000Y-68900000D02*
X52324000Y-68874000D01*
X52324000Y-68580000D02*
X52324000Y-68874000D01*
X43180000Y-68330000D02*
X43180000Y-68580000D01*
X43100000Y-68250000D02*
X43180000Y-68330000D01*
X45700000Y-68000000D02*
X45720000Y-68020000D01*
X45720000Y-68580000D02*
X45720000Y-68020000D01*
X48200000Y-67850000D02*
X48260000Y-67910000D01*
X48260000Y-67930000D02*
X48260000Y-67910000D01*
X52350000Y-66350000D02*
X52324000Y-66324000D01*
X52324000Y-66030000D02*
X52324000Y-66324000D01*
X43180000Y-65780000D02*
X43180000Y-66030000D01*
X43100000Y-65700000D02*
X43180000Y-65780000D01*
X45700000Y-65450000D02*
X45720000Y-65470000D01*
X45720000Y-66030000D02*
X45720000Y-65470000D01*
X48200000Y-65300000D02*
X48260000Y-65360000D01*
X48260000Y-65380000D02*
X48260000Y-65360000D01*
X52324000Y-63480000D02*
X52324000Y-63774000D01*
X52350000Y-63800000D02*
X52324000Y-63774000D01*
X43100000Y-63150000D02*
X43180000Y-63230000D01*
X43180000Y-63230000D02*
X43180000Y-63480000D01*
X45720000Y-63480000D02*
X45720000Y-62920000D01*
X45700000Y-62900000D02*
X45720000Y-62920000D01*
X48260000Y-62830000D02*
X48260000Y-62810000D01*
X48200000Y-62750000D02*
X48260000Y-62810000D01*
X52374000Y-60980000D02*
X52374000Y-61274000D01*
X52400000Y-61300000D02*
X52374000Y-61274000D01*
X43150000Y-60650000D02*
X43230000Y-60730000D01*
X43230000Y-60730000D02*
X43230000Y-60980000D01*
X45770000Y-60980000D02*
X45770000Y-60420000D01*
X45750000Y-60400000D02*
X45770000Y-60420000D01*
X48310000Y-60330000D02*
X48310000Y-60310000D01*
X48250000Y-60250000D02*
X48310000Y-60310000D01*
X52400000Y-58750000D02*
X52374000Y-58724000D01*
X52374000Y-58430000D02*
X52374000Y-58724000D01*
X43230000Y-58180000D02*
X43230000Y-58430000D01*
X43150000Y-58100000D02*
X43230000Y-58180000D01*
X45750000Y-57850000D02*
X45770000Y-57870000D01*
X45770000Y-58430000D02*
X45770000Y-57870000D01*
X48250000Y-57700000D02*
X48310000Y-57760000D01*
X48310000Y-57780000D02*
X48310000Y-57760000D01*
X52400000Y-56200000D02*
X52374000Y-56174000D01*
X52374000Y-55880000D02*
X52374000Y-56174000D01*
X43230000Y-55630000D02*
X43230000Y-55880000D01*
X43150000Y-55550000D02*
X43230000Y-55630000D01*
X45750000Y-55300000D02*
X45770000Y-55320000D01*
X45770000Y-55880000D02*
X45770000Y-55320000D01*
X48250000Y-55150000D02*
X48310000Y-55210000D01*
X48310000Y-55230000D02*
X48310000Y-55210000D01*
X52374000Y-53330000D02*
X52374000Y-53624000D01*
X52400000Y-53650000D02*
X52374000Y-53624000D01*
X43150000Y-53000000D02*
X43230000Y-53080000D01*
X43230000Y-53080000D02*
X43230000Y-53330000D01*
X45770000Y-53330000D02*
X45770000Y-52770000D01*
X45750000Y-52750000D02*
X45770000Y-52770000D01*
X48310000Y-52680000D02*
X48310000Y-52660000D01*
X48250000Y-52600000D02*
X48310000Y-52660000D01*
X52350000Y-51150000D02*
X52324000Y-51124000D01*
X52324000Y-50830000D02*
X52324000Y-51124000D01*
X43180000Y-50580000D02*
X43180000Y-50830000D01*
X43100000Y-50500000D02*
X43180000Y-50580000D01*
X45700000Y-50250000D02*
X45720000Y-50270000D01*
X45720000Y-50830000D02*
X45720000Y-50270000D01*
X48200000Y-50100000D02*
X48260000Y-50160000D01*
X48260000Y-50180000D02*
X48260000Y-50160000D01*
X52324000Y-48280000D02*
X52324000Y-48574000D01*
X52350000Y-48600000D02*
X52324000Y-48574000D01*
X43100000Y-47950000D02*
X43180000Y-48030000D01*
X43180000Y-48030000D02*
X43180000Y-48280000D01*
X45720000Y-48280000D02*
X45720000Y-47720000D01*
X45700000Y-47700000D02*
X45720000Y-47720000D01*
X48260000Y-47630000D02*
X48260000Y-47610000D01*
X48200000Y-47550000D02*
X48260000Y-47610000D01*
X52324000Y-45730000D02*
X52324000Y-46024000D01*
X52350000Y-46050000D02*
X52324000Y-46024000D01*
X43100000Y-45400000D02*
X43180000Y-45480000D01*
X43180000Y-45480000D02*
X43180000Y-45730000D01*
X45720000Y-45730000D02*
X45720000Y-45170000D01*
X45700000Y-45150000D02*
X45720000Y-45170000D01*
X48260000Y-45080000D02*
X48260000Y-45060000D01*
X48200000Y-45000000D02*
X48260000Y-45060000D01*
X52350000Y-43500000D02*
X52324000Y-43474000D01*
X52324000Y-43180000D02*
X52324000Y-43474000D01*
X43180000Y-42930000D02*
X43180000Y-43180000D01*
X43100000Y-42850000D02*
X43180000Y-42930000D01*
X45700000Y-42600000D02*
X45720000Y-42620000D01*
X45720000Y-43180000D02*
X45720000Y-42620000D01*
X48200000Y-42450000D02*
X48260000Y-42510000D01*
X48260000Y-42530000D02*
X48260000Y-42510000D01*
M02*
