G04 #@! TF.FileFunction,Soldermask,Top*
%FSLAX46Y46*%
G04 Gerber Fmt 4.6, Leading zero omitted, Abs format (unit mm)*
G04 Created by KiCad (PCBNEW 4.0.0-rc1-stable) date 09/10/2015 1:57:45 PM*
%MOMM*%
G01*
G04 APERTURE LIST*
%ADD10C,0.150000*%
%ADD11R,4.406900X4.406900*%
%ADD12R,1.907540X1.907540*%
%ADD13R,2.508000X2.108000*%
G04 APERTURE END LIST*
D10*
D11*
X76200000Y-83566000D03*
D12*
X104140000Y-43180000D03*
X106680000Y-43180000D03*
X109220000Y-43180000D03*
X111760000Y-43180000D03*
X104140000Y-45720000D03*
X106680000Y-45720000D03*
X109220000Y-45720000D03*
X111760000Y-45720000D03*
X104140000Y-48260000D03*
X106680000Y-48260000D03*
X109220000Y-48260000D03*
X111760000Y-48260000D03*
X104140000Y-50800000D03*
X106680000Y-50800000D03*
X109220000Y-50800000D03*
X111760000Y-50800000D03*
X104140000Y-53340000D03*
X106680000Y-53340000D03*
X109220000Y-53340000D03*
X111760000Y-53340000D03*
X104140000Y-55880000D03*
X106680000Y-55880000D03*
X109220000Y-55880000D03*
X111760000Y-55880000D03*
X104140000Y-58420000D03*
X106680000Y-58420000D03*
X109220000Y-58420000D03*
X111760000Y-58420000D03*
X104140000Y-60960000D03*
X106680000Y-60960000D03*
X109220000Y-60960000D03*
X111760000Y-60960000D03*
X104140000Y-63500000D03*
X106680000Y-63500000D03*
X109220000Y-63500000D03*
X111760000Y-63500000D03*
X104140000Y-66040000D03*
X106680000Y-66040000D03*
X109220000Y-66040000D03*
X111760000Y-66040000D03*
X104140000Y-68580000D03*
X106680000Y-68580000D03*
X109220000Y-68580000D03*
X111760000Y-68580000D03*
X104140000Y-71120000D03*
X106680000Y-71120000D03*
X109220000Y-71120000D03*
X111760000Y-71120000D03*
X104140000Y-73660000D03*
X106680000Y-73660000D03*
X109220000Y-73660000D03*
X111760000Y-73660000D03*
X104140000Y-76200000D03*
X106680000Y-76200000D03*
X109220000Y-76200000D03*
X111760000Y-76200000D03*
X104140000Y-78740000D03*
X106680000Y-78740000D03*
X109220000Y-78740000D03*
X111760000Y-78740000D03*
X40640000Y-78740000D03*
X43180000Y-78740000D03*
X45720000Y-78740000D03*
X48260000Y-78740000D03*
X40640000Y-76200000D03*
X43180000Y-76200000D03*
X45720000Y-76200000D03*
X48260000Y-76200000D03*
X40640000Y-73660000D03*
X43180000Y-73660000D03*
X45720000Y-73660000D03*
X48260000Y-73660000D03*
X40640000Y-71120000D03*
X43180000Y-71120000D03*
X45720000Y-71120000D03*
X48260000Y-71120000D03*
X40640000Y-68580000D03*
X43180000Y-68580000D03*
X45720000Y-68580000D03*
X48260000Y-68580000D03*
X40640000Y-66040000D03*
X43180000Y-66040000D03*
X45720000Y-66040000D03*
X48260000Y-66040000D03*
X40640000Y-63500000D03*
X43180000Y-63500000D03*
X45720000Y-63500000D03*
X48260000Y-63500000D03*
X40640000Y-60960000D03*
X43180000Y-60960000D03*
X45720000Y-60960000D03*
X48260000Y-60960000D03*
X40640000Y-58420000D03*
X43180000Y-58420000D03*
X45720000Y-58420000D03*
X48260000Y-58420000D03*
X40640000Y-55880000D03*
X43180000Y-55880000D03*
X45720000Y-55880000D03*
X48260000Y-55880000D03*
X40640000Y-53340000D03*
X43180000Y-53340000D03*
X45720000Y-53340000D03*
X48260000Y-53340000D03*
X40640000Y-50800000D03*
X43180000Y-50800000D03*
X45720000Y-50800000D03*
X48260000Y-50800000D03*
X40640000Y-48260000D03*
X43180000Y-48260000D03*
X45720000Y-48260000D03*
X48260000Y-48260000D03*
X40640000Y-45720000D03*
X43180000Y-45720000D03*
X45720000Y-45720000D03*
X48260000Y-45720000D03*
X40640000Y-43180000D03*
X43180000Y-43180000D03*
X45720000Y-43180000D03*
X48260000Y-43180000D03*
D13*
X77375000Y-43180000D03*
X81375000Y-43180000D03*
X83725000Y-43180000D03*
X87725000Y-43180000D03*
X90075000Y-43180000D03*
X94075000Y-43180000D03*
X96425000Y-43180000D03*
X100425000Y-43180000D03*
X77375000Y-45720000D03*
X81375000Y-45720000D03*
X83725000Y-45720000D03*
X87725000Y-45720000D03*
X90075000Y-45720000D03*
X94075000Y-45720000D03*
X96425000Y-45720000D03*
X100425000Y-45720000D03*
X77375000Y-48260000D03*
X81375000Y-48260000D03*
X83725000Y-48260000D03*
X87725000Y-48260000D03*
X90075000Y-48260000D03*
X94075000Y-48260000D03*
X96425000Y-48260000D03*
X100425000Y-48260000D03*
X77375000Y-50800000D03*
X81375000Y-50800000D03*
X83725000Y-50800000D03*
X87725000Y-50800000D03*
X90075000Y-50800000D03*
X94075000Y-50800000D03*
X96425000Y-50800000D03*
X100425000Y-50800000D03*
X77375000Y-53340000D03*
X81375000Y-53340000D03*
X83725000Y-53340000D03*
X87725000Y-53340000D03*
X90075000Y-53340000D03*
X94075000Y-53340000D03*
X96425000Y-53340000D03*
X100425000Y-53340000D03*
X77375000Y-55880000D03*
X81375000Y-55880000D03*
X83725000Y-55880000D03*
X87725000Y-55880000D03*
X90075000Y-55880000D03*
X94075000Y-55880000D03*
X96425000Y-55880000D03*
X100425000Y-55880000D03*
X77375000Y-58420000D03*
X81375000Y-58420000D03*
X83725000Y-58420000D03*
X87725000Y-58420000D03*
X90075000Y-58420000D03*
X94075000Y-58420000D03*
X96425000Y-58420000D03*
X100425000Y-58420000D03*
X77375000Y-60960000D03*
X81375000Y-60960000D03*
X83725000Y-60960000D03*
X87725000Y-60960000D03*
X90075000Y-60960000D03*
X94075000Y-60960000D03*
X96425000Y-60960000D03*
X100425000Y-60960000D03*
X77375000Y-63500000D03*
X81375000Y-63500000D03*
X83725000Y-63500000D03*
X87725000Y-63500000D03*
X90075000Y-63500000D03*
X94075000Y-63500000D03*
X96425000Y-63500000D03*
X100425000Y-63500000D03*
X77375000Y-66040000D03*
X81375000Y-66040000D03*
X83725000Y-66040000D03*
X87725000Y-66040000D03*
X90075000Y-66040000D03*
X94075000Y-66040000D03*
X96425000Y-66040000D03*
X100425000Y-66040000D03*
X77375000Y-68580000D03*
X81375000Y-68580000D03*
X83725000Y-68580000D03*
X87725000Y-68580000D03*
X90075000Y-68580000D03*
X94075000Y-68580000D03*
X96425000Y-68580000D03*
X100425000Y-68580000D03*
X77375000Y-71120000D03*
X81375000Y-71120000D03*
X83725000Y-71120000D03*
X87725000Y-71120000D03*
X90075000Y-71120000D03*
X94075000Y-71120000D03*
X96425000Y-71120000D03*
X100425000Y-71120000D03*
X77375000Y-73660000D03*
X81375000Y-73660000D03*
X83725000Y-73660000D03*
X87725000Y-73660000D03*
X90075000Y-73660000D03*
X94075000Y-73660000D03*
X96425000Y-73660000D03*
X100425000Y-73660000D03*
X77375000Y-76200000D03*
X81375000Y-76200000D03*
X83725000Y-76200000D03*
X87725000Y-76200000D03*
X90075000Y-76200000D03*
X94075000Y-76200000D03*
X96425000Y-76200000D03*
X100425000Y-76200000D03*
X77375000Y-78740000D03*
X81375000Y-78740000D03*
X83725000Y-78740000D03*
X87725000Y-78740000D03*
X90075000Y-78740000D03*
X94075000Y-78740000D03*
X96425000Y-78740000D03*
X100425000Y-78740000D03*
X51975000Y-78740000D03*
X55975000Y-78740000D03*
X58325000Y-78740000D03*
X62325000Y-78740000D03*
X64675000Y-78740000D03*
X68675000Y-78740000D03*
X71025000Y-78740000D03*
X75025000Y-78740000D03*
X51975000Y-76200000D03*
X55975000Y-76200000D03*
X58325000Y-76200000D03*
X62325000Y-76200000D03*
X64675000Y-76200000D03*
X68675000Y-76200000D03*
X71025000Y-76200000D03*
X75025000Y-76200000D03*
X51975000Y-73660000D03*
X55975000Y-73660000D03*
X58325000Y-73660000D03*
X62325000Y-73660000D03*
X64675000Y-73660000D03*
X68675000Y-73660000D03*
X71025000Y-73660000D03*
X75025000Y-73660000D03*
X51975000Y-71120000D03*
X55975000Y-71120000D03*
X58325000Y-71120000D03*
X62325000Y-71120000D03*
X64675000Y-71120000D03*
X68675000Y-71120000D03*
X71025000Y-71120000D03*
X75025000Y-71120000D03*
X51975000Y-68580000D03*
X55975000Y-68580000D03*
X58325000Y-68580000D03*
X62325000Y-68580000D03*
X64675000Y-68580000D03*
X68675000Y-68580000D03*
X71025000Y-68580000D03*
X75025000Y-68580000D03*
X51975000Y-66040000D03*
X55975000Y-66040000D03*
X58325000Y-66040000D03*
X62325000Y-66040000D03*
X64675000Y-66040000D03*
X68675000Y-66040000D03*
X71025000Y-66040000D03*
X75025000Y-66040000D03*
X51975000Y-63500000D03*
X55975000Y-63500000D03*
X58325000Y-63500000D03*
X62325000Y-63500000D03*
X64675000Y-63500000D03*
X68675000Y-63500000D03*
X71025000Y-63500000D03*
X75025000Y-63500000D03*
X51975000Y-60960000D03*
X55975000Y-60960000D03*
X58325000Y-60960000D03*
X62325000Y-60960000D03*
X64675000Y-60960000D03*
X68675000Y-60960000D03*
X71025000Y-60960000D03*
X75025000Y-60960000D03*
X51975000Y-58420000D03*
X55975000Y-58420000D03*
X58325000Y-58420000D03*
X62325000Y-58420000D03*
X64675000Y-58420000D03*
X68675000Y-58420000D03*
X71025000Y-58420000D03*
X75025000Y-58420000D03*
X51975000Y-55880000D03*
X55975000Y-55880000D03*
X58325000Y-55880000D03*
X62325000Y-55880000D03*
X64675000Y-55880000D03*
X68675000Y-55880000D03*
X71025000Y-55880000D03*
X75025000Y-55880000D03*
X51975000Y-53340000D03*
X55975000Y-53340000D03*
X58325000Y-53340000D03*
X62325000Y-53340000D03*
X64675000Y-53340000D03*
X68675000Y-53340000D03*
X71025000Y-53340000D03*
X75025000Y-53340000D03*
X51975000Y-50800000D03*
X55975000Y-50800000D03*
X58325000Y-50800000D03*
X62325000Y-50800000D03*
X64675000Y-50800000D03*
X68675000Y-50800000D03*
X71025000Y-50800000D03*
X75025000Y-50800000D03*
X51975000Y-48260000D03*
X55975000Y-48260000D03*
X58325000Y-48260000D03*
X62325000Y-48260000D03*
X64675000Y-48260000D03*
X68675000Y-48260000D03*
X71025000Y-48260000D03*
X75025000Y-48260000D03*
X51975000Y-45720000D03*
X55975000Y-45720000D03*
X58325000Y-45720000D03*
X62325000Y-45720000D03*
X64675000Y-45720000D03*
X68675000Y-45720000D03*
X71025000Y-45720000D03*
X75025000Y-45720000D03*
X51975000Y-43180000D03*
X55975000Y-43180000D03*
X58325000Y-43180000D03*
X62325000Y-43180000D03*
X64675000Y-43180000D03*
X68675000Y-43180000D03*
X71025000Y-43180000D03*
X75025000Y-43180000D03*
M02*
