G04 #@! TF.FileFunction,Copper,L2,Bot,Signal*
%FSLAX46Y46*%
G04 Gerber Fmt 4.6, Leading zero omitted, Abs format (unit mm)*
G04 Created by KiCad (PCBNEW 4.0.0-rc1-stable) date 09/10/2015 1:57:45 PM*
%MOMM*%
G01*
G04 APERTURE LIST*
%ADD10C,0.150000*%
%ADD11R,3.898900X3.898900*%
%ADD12C,0.762000*%
%ADD13C,0.177800*%
G04 APERTURE END LIST*
D10*
D11*
X76200000Y-83566000D03*
D12*
X103950000Y-42450000D03*
X77614780Y-42397520D03*
X84074000Y-43180000D03*
X106500000Y-42600000D03*
X90424000Y-43180000D03*
X109250000Y-42950000D03*
X96750000Y-43600000D03*
X111760000Y-43180000D03*
X77614780Y-44947520D03*
X103950000Y-45000000D03*
X106500000Y-45150000D03*
X84074000Y-45730000D03*
X109250000Y-45500000D03*
X90424000Y-45730000D03*
X111760000Y-45730000D03*
X96750000Y-46150000D03*
X77614780Y-47447520D03*
X103950000Y-47500000D03*
X106500000Y-47650000D03*
X84074000Y-48230000D03*
X109250000Y-48000000D03*
X90424000Y-48230000D03*
X111760000Y-48230000D03*
X96750000Y-48650000D03*
X103950000Y-50050000D03*
X77614780Y-49997520D03*
X84074000Y-50780000D03*
X106500000Y-50200000D03*
X90424000Y-50780000D03*
X109250000Y-50550000D03*
X96750000Y-51200000D03*
X111760000Y-50780000D03*
X77614780Y-52547520D03*
X103950000Y-52600000D03*
X106500000Y-52750000D03*
X84074000Y-53330000D03*
X109250000Y-53100000D03*
X90424000Y-53330000D03*
X111760000Y-53330000D03*
X96750000Y-53750000D03*
X103950000Y-55150000D03*
X77614780Y-55097520D03*
X84074000Y-55880000D03*
X106500000Y-55300000D03*
X90424000Y-55880000D03*
X109250000Y-55650000D03*
X96750000Y-56300000D03*
X111760000Y-55880000D03*
X103950000Y-57650000D03*
X77614780Y-57597520D03*
X84074000Y-58380000D03*
X106500000Y-57800000D03*
X90424000Y-58380000D03*
X109250000Y-58150000D03*
X96750000Y-58800000D03*
X111760000Y-58380000D03*
X77614780Y-60147520D03*
X103950000Y-60200000D03*
X106500000Y-60350000D03*
X84074000Y-60930000D03*
X109250000Y-60700000D03*
X90424000Y-60930000D03*
X111760000Y-60930000D03*
X96750000Y-61350000D03*
X77614780Y-62647520D03*
X103950000Y-62700000D03*
X106500000Y-62850000D03*
X84074000Y-63430000D03*
X109250000Y-63200000D03*
X90424000Y-63430000D03*
X111760000Y-63430000D03*
X96750000Y-63850000D03*
X103950000Y-65300000D03*
X77614780Y-65247520D03*
X84074000Y-66030000D03*
X106500000Y-65450000D03*
X90424000Y-66030000D03*
X109250000Y-65800000D03*
X96750000Y-66450000D03*
X111760000Y-66030000D03*
X77614780Y-67797520D03*
X103950000Y-67850000D03*
X106500000Y-68000000D03*
X84074000Y-68580000D03*
X109250000Y-68350000D03*
X90424000Y-68580000D03*
X111760000Y-68580000D03*
X96750000Y-69000000D03*
X103950000Y-70400000D03*
X77614780Y-70347520D03*
X84074000Y-71130000D03*
X106500000Y-70550000D03*
X90424000Y-71130000D03*
X109250000Y-70900000D03*
X96750000Y-71550000D03*
X111760000Y-71130000D03*
X77614780Y-72897520D03*
X103950000Y-72950000D03*
X106500000Y-73100000D03*
X84074000Y-73680000D03*
X109250000Y-73450000D03*
X90424000Y-73680000D03*
X111760000Y-73680000D03*
X96750000Y-74100000D03*
X103950000Y-75450000D03*
X77614780Y-75397520D03*
X106500000Y-75600000D03*
X84074000Y-76180000D03*
X109250000Y-75950000D03*
X90424000Y-76180000D03*
X111760000Y-76180000D03*
X96750000Y-76600000D03*
X103950000Y-78000000D03*
X77614780Y-77947520D03*
X84074000Y-78730000D03*
X106500000Y-78150000D03*
X90424000Y-78730000D03*
X109250000Y-78500000D03*
X96750000Y-79150000D03*
X111760000Y-78730000D03*
X52400000Y-79100000D03*
X40690000Y-78780000D03*
X58724000Y-78780000D03*
X43150000Y-78450000D03*
X65074000Y-78780000D03*
X65074000Y-78780000D03*
X45750000Y-78200000D03*
X71424000Y-78780000D03*
X71424000Y-78780000D03*
X48250000Y-78050000D03*
X71424000Y-78780000D03*
X52400000Y-76550000D03*
X40690000Y-76230000D03*
X58724000Y-76230000D03*
X43150000Y-75900000D03*
X65074000Y-76230000D03*
X65074000Y-76230000D03*
X45750000Y-75650000D03*
X48250000Y-75500000D03*
X71424000Y-76230000D03*
X71424000Y-76230000D03*
X71424000Y-76230000D03*
X40690000Y-73680000D03*
X52400000Y-74000000D03*
X43150000Y-73350000D03*
X58724000Y-73680000D03*
X65074000Y-73680000D03*
X45750000Y-73100000D03*
X65074000Y-73680000D03*
X71424000Y-73680000D03*
X71424000Y-73680000D03*
X71424000Y-73680000D03*
X48250000Y-72950000D03*
X40640000Y-71130000D03*
X52350000Y-71450000D03*
X43100000Y-70800000D03*
X58674000Y-71130000D03*
X65024000Y-71130000D03*
X45700000Y-70550000D03*
X65024000Y-71130000D03*
X71374000Y-71130000D03*
X71374000Y-71130000D03*
X71374000Y-71130000D03*
X48200000Y-70400000D03*
X52350000Y-68900000D03*
X40640000Y-68580000D03*
X58674000Y-68580000D03*
X43100000Y-68250000D03*
X65024000Y-68580000D03*
X65024000Y-68580000D03*
X45700000Y-68000000D03*
X48200000Y-67850000D03*
X71374000Y-68580000D03*
X71374000Y-68580000D03*
X71374000Y-68580000D03*
X52350000Y-66350000D03*
X40640000Y-66030000D03*
X58674000Y-66030000D03*
X43100000Y-65700000D03*
X65024000Y-66030000D03*
X65024000Y-66030000D03*
X45700000Y-65450000D03*
X71374000Y-66030000D03*
X71374000Y-66030000D03*
X48200000Y-65300000D03*
X71374000Y-66030000D03*
X40640000Y-63480000D03*
X52350000Y-63800000D03*
X43100000Y-63150000D03*
X58674000Y-63480000D03*
X65024000Y-63480000D03*
X45700000Y-62900000D03*
X65024000Y-63480000D03*
X71374000Y-63480000D03*
X71374000Y-63480000D03*
X71374000Y-63480000D03*
X48200000Y-62750000D03*
X40690000Y-60980000D03*
X52400000Y-61300000D03*
X43150000Y-60650000D03*
X58724000Y-60980000D03*
X65074000Y-60980000D03*
X45750000Y-60400000D03*
X65074000Y-60980000D03*
X71424000Y-60980000D03*
X48250000Y-60250000D03*
X71424000Y-60980000D03*
X71424000Y-60980000D03*
X52400000Y-58750000D03*
X40690000Y-58430000D03*
X58724000Y-58430000D03*
X43150000Y-58100000D03*
X65074000Y-58430000D03*
X65074000Y-58430000D03*
X45750000Y-57850000D03*
X71424000Y-58430000D03*
X71424000Y-58430000D03*
X48250000Y-57700000D03*
X71424000Y-58430000D03*
X52400000Y-56200000D03*
X40690000Y-55880000D03*
X58724000Y-55880000D03*
X43150000Y-55550000D03*
X65074000Y-55880000D03*
X65074000Y-55880000D03*
X45750000Y-55300000D03*
X71424000Y-55880000D03*
X71424000Y-55880000D03*
X48250000Y-55150000D03*
X71424000Y-55880000D03*
X40690000Y-53330000D03*
X52400000Y-53650000D03*
X43150000Y-53000000D03*
X58724000Y-53330000D03*
X65074000Y-53330000D03*
X45750000Y-52750000D03*
X65074000Y-53330000D03*
X71424000Y-53330000D03*
X71424000Y-53330000D03*
X71424000Y-53330000D03*
X48250000Y-52600000D03*
X52350000Y-51150000D03*
X40640000Y-50830000D03*
X58674000Y-50830000D03*
X43100000Y-50500000D03*
X65024000Y-50830000D03*
X65024000Y-50830000D03*
X45700000Y-50250000D03*
X71374000Y-50830000D03*
X71374000Y-50830000D03*
X48200000Y-50100000D03*
X71374000Y-50830000D03*
X40640000Y-48280000D03*
X52350000Y-48600000D03*
X43100000Y-47950000D03*
X58674000Y-48280000D03*
X45700000Y-47700000D03*
X65024000Y-48280000D03*
X65024000Y-48280000D03*
X71374000Y-48280000D03*
X71374000Y-48280000D03*
X71374000Y-48280000D03*
X48200000Y-47550000D03*
X40640000Y-45730000D03*
X52350000Y-46050000D03*
X43100000Y-45400000D03*
X58674000Y-45730000D03*
X65024000Y-45730000D03*
X45700000Y-45150000D03*
X65024000Y-45730000D03*
X71374000Y-45730000D03*
X71374000Y-45730000D03*
X71374000Y-45730000D03*
X48200000Y-45000000D03*
X52350000Y-43500000D03*
X40640000Y-43180000D03*
X58674000Y-43180000D03*
X43100000Y-42850000D03*
X65024000Y-43180000D03*
X65024000Y-43180000D03*
X45700000Y-42600000D03*
X71374000Y-43180000D03*
X71374000Y-43180000D03*
X48200000Y-42450000D03*
X71374000Y-43180000D03*
D13*
X77565780Y-42348520D02*
X77614780Y-42397520D01*
X77565780Y-42348520D02*
X77591180Y-42062800D01*
X77591180Y-42062800D02*
X77616180Y-42087800D01*
X77616180Y-42087800D02*
X103966180Y-42087800D01*
X103966180Y-42087800D02*
X103950000Y-42450000D01*
X106450000Y-43100000D02*
X106500000Y-43050000D01*
X106500000Y-43050000D02*
X106500000Y-42600000D01*
X103050000Y-43100000D02*
X103150000Y-43100000D01*
X103050000Y-42650000D02*
X103050000Y-43100000D01*
X102900000Y-42500000D02*
X103050000Y-42650000D01*
X84256598Y-42500000D02*
X102900000Y-42500000D01*
X84200000Y-42443402D02*
X84256598Y-42500000D01*
X84200000Y-43054000D02*
X84200000Y-42443402D01*
X84074000Y-43180000D02*
X84200000Y-43054000D01*
X103150000Y-43100000D02*
X106450000Y-43100000D01*
X109200000Y-43500000D02*
X109250000Y-43450000D01*
X90400000Y-43156000D02*
X90424000Y-43180000D01*
X90400000Y-43156000D02*
X90400000Y-42855602D01*
X90400000Y-42855602D02*
X90494398Y-42950000D01*
X90494398Y-42950000D02*
X102450000Y-42950000D01*
X102450000Y-42950000D02*
X102450000Y-43050000D01*
X102450000Y-43050000D02*
X102450000Y-43450000D01*
X102450000Y-43450000D02*
X102500000Y-43500000D01*
X109250000Y-43450000D02*
X109250000Y-42950000D01*
X102500000Y-43500000D02*
X109200000Y-43500000D01*
X111750000Y-43190000D02*
X111760000Y-43180000D01*
X111750000Y-43190000D02*
X111750000Y-43950000D01*
X111750000Y-43950000D02*
X96750000Y-43950000D01*
X96750000Y-43950000D02*
X96750000Y-43600000D01*
X103966180Y-44637800D02*
X103950000Y-45000000D01*
X77616180Y-44637800D02*
X103966180Y-44637800D01*
X77591180Y-44612800D02*
X77616180Y-44637800D01*
X77565780Y-44898520D02*
X77591180Y-44612800D01*
X77565780Y-44898520D02*
X77614780Y-44947520D01*
X103150000Y-45650000D02*
X106450000Y-45650000D01*
X84074000Y-45730000D02*
X84200000Y-45604000D01*
X84200000Y-45604000D02*
X84200000Y-44993402D01*
X84200000Y-44993402D02*
X84256598Y-45050000D01*
X84256598Y-45050000D02*
X102900000Y-45050000D01*
X102900000Y-45050000D02*
X103050000Y-45200000D01*
X103050000Y-45200000D02*
X103050000Y-45650000D01*
X103050000Y-45650000D02*
X103150000Y-45650000D01*
X106500000Y-45600000D02*
X106500000Y-45150000D01*
X106450000Y-45650000D02*
X106500000Y-45600000D01*
X102500000Y-46050000D02*
X109200000Y-46050000D01*
X109250000Y-46000000D02*
X109250000Y-45500000D01*
X102450000Y-46000000D02*
X102500000Y-46050000D01*
X102450000Y-45600000D02*
X102450000Y-46000000D01*
X102450000Y-45500000D02*
X102450000Y-45600000D01*
X90494398Y-45500000D02*
X102450000Y-45500000D01*
X90400000Y-45405602D02*
X90494398Y-45500000D01*
X90400000Y-45706000D02*
X90400000Y-45405602D01*
X90400000Y-45706000D02*
X90424000Y-45730000D01*
X109200000Y-46050000D02*
X109250000Y-46000000D01*
X96750000Y-46500000D02*
X96750000Y-46150000D01*
X111750000Y-46500000D02*
X96750000Y-46500000D01*
X111750000Y-45740000D02*
X111750000Y-46500000D01*
X111750000Y-45740000D02*
X111760000Y-45730000D01*
X103966180Y-47137800D02*
X103950000Y-47500000D01*
X77616180Y-47137800D02*
X103966180Y-47137800D01*
X77591180Y-47112800D02*
X77616180Y-47137800D01*
X77565780Y-47398520D02*
X77591180Y-47112800D01*
X77565780Y-47398520D02*
X77614780Y-47447520D01*
X103150000Y-48150000D02*
X106450000Y-48150000D01*
X84074000Y-48230000D02*
X84200000Y-48104000D01*
X84200000Y-48104000D02*
X84200000Y-47493402D01*
X84200000Y-47493402D02*
X84256598Y-47550000D01*
X84256598Y-47550000D02*
X102900000Y-47550000D01*
X102900000Y-47550000D02*
X103050000Y-47700000D01*
X103050000Y-47700000D02*
X103050000Y-48150000D01*
X103050000Y-48150000D02*
X103150000Y-48150000D01*
X106500000Y-48100000D02*
X106500000Y-47650000D01*
X106450000Y-48150000D02*
X106500000Y-48100000D01*
X102500000Y-48550000D02*
X109200000Y-48550000D01*
X109250000Y-48500000D02*
X109250000Y-48000000D01*
X102450000Y-48500000D02*
X102500000Y-48550000D01*
X102450000Y-48100000D02*
X102450000Y-48500000D01*
X102450000Y-48000000D02*
X102450000Y-48100000D01*
X90494398Y-48000000D02*
X102450000Y-48000000D01*
X90400000Y-47905602D02*
X90494398Y-48000000D01*
X90400000Y-48206000D02*
X90400000Y-47905602D01*
X90400000Y-48206000D02*
X90424000Y-48230000D01*
X109200000Y-48550000D02*
X109250000Y-48500000D01*
X96750000Y-49000000D02*
X96750000Y-48650000D01*
X111750000Y-49000000D02*
X96750000Y-49000000D01*
X111750000Y-48240000D02*
X111750000Y-49000000D01*
X111750000Y-48240000D02*
X111760000Y-48230000D01*
X77565780Y-49948520D02*
X77614780Y-49997520D01*
X77565780Y-49948520D02*
X77591180Y-49662800D01*
X77591180Y-49662800D02*
X77616180Y-49687800D01*
X77616180Y-49687800D02*
X103966180Y-49687800D01*
X103966180Y-49687800D02*
X103950000Y-50050000D01*
X106450000Y-50700000D02*
X106500000Y-50650000D01*
X106500000Y-50650000D02*
X106500000Y-50200000D01*
X103050000Y-50700000D02*
X103150000Y-50700000D01*
X103050000Y-50250000D02*
X103050000Y-50700000D01*
X102900000Y-50100000D02*
X103050000Y-50250000D01*
X84256598Y-50100000D02*
X102900000Y-50100000D01*
X84200000Y-50043402D02*
X84256598Y-50100000D01*
X84200000Y-50654000D02*
X84200000Y-50043402D01*
X84074000Y-50780000D02*
X84200000Y-50654000D01*
X103150000Y-50700000D02*
X106450000Y-50700000D01*
X109200000Y-51100000D02*
X109250000Y-51050000D01*
X90400000Y-50756000D02*
X90424000Y-50780000D01*
X90400000Y-50756000D02*
X90400000Y-50455602D01*
X90400000Y-50455602D02*
X90494398Y-50550000D01*
X90494398Y-50550000D02*
X102450000Y-50550000D01*
X102450000Y-50550000D02*
X102450000Y-50650000D01*
X102450000Y-50650000D02*
X102450000Y-51050000D01*
X102450000Y-51050000D02*
X102500000Y-51100000D01*
X109250000Y-51050000D02*
X109250000Y-50550000D01*
X102500000Y-51100000D02*
X109200000Y-51100000D01*
X111750000Y-50790000D02*
X111760000Y-50780000D01*
X111750000Y-50790000D02*
X111750000Y-51550000D01*
X111750000Y-51550000D02*
X96750000Y-51550000D01*
X96750000Y-51550000D02*
X96750000Y-51200000D01*
X103966180Y-52237800D02*
X103950000Y-52600000D01*
X77616180Y-52237800D02*
X103966180Y-52237800D01*
X77591180Y-52212800D02*
X77616180Y-52237800D01*
X77565780Y-52498520D02*
X77591180Y-52212800D01*
X77565780Y-52498520D02*
X77614780Y-52547520D01*
X103150000Y-53250000D02*
X106450000Y-53250000D01*
X84074000Y-53330000D02*
X84200000Y-53204000D01*
X84200000Y-53204000D02*
X84200000Y-52593402D01*
X84200000Y-52593402D02*
X84256598Y-52650000D01*
X84256598Y-52650000D02*
X102900000Y-52650000D01*
X102900000Y-52650000D02*
X103050000Y-52800000D01*
X103050000Y-52800000D02*
X103050000Y-53250000D01*
X103050000Y-53250000D02*
X103150000Y-53250000D01*
X106500000Y-53200000D02*
X106500000Y-52750000D01*
X106450000Y-53250000D02*
X106500000Y-53200000D01*
X102500000Y-53650000D02*
X109200000Y-53650000D01*
X109250000Y-53600000D02*
X109250000Y-53100000D01*
X102450000Y-53600000D02*
X102500000Y-53650000D01*
X102450000Y-53200000D02*
X102450000Y-53600000D01*
X102450000Y-53100000D02*
X102450000Y-53200000D01*
X90494398Y-53100000D02*
X102450000Y-53100000D01*
X90400000Y-53005602D02*
X90494398Y-53100000D01*
X90400000Y-53306000D02*
X90400000Y-53005602D01*
X90400000Y-53306000D02*
X90424000Y-53330000D01*
X109200000Y-53650000D02*
X109250000Y-53600000D01*
X96750000Y-54100000D02*
X96750000Y-53750000D01*
X111750000Y-54100000D02*
X96750000Y-54100000D01*
X111750000Y-53340000D02*
X111750000Y-54100000D01*
X111750000Y-53340000D02*
X111760000Y-53330000D01*
X77565780Y-55048520D02*
X77614780Y-55097520D01*
X77565780Y-55048520D02*
X77591180Y-54762800D01*
X77591180Y-54762800D02*
X77616180Y-54787800D01*
X77616180Y-54787800D02*
X103966180Y-54787800D01*
X103966180Y-54787800D02*
X103950000Y-55150000D01*
X106450000Y-55800000D02*
X106500000Y-55750000D01*
X106500000Y-55750000D02*
X106500000Y-55300000D01*
X103050000Y-55800000D02*
X103150000Y-55800000D01*
X103050000Y-55350000D02*
X103050000Y-55800000D01*
X102900000Y-55200000D02*
X103050000Y-55350000D01*
X84256598Y-55200000D02*
X102900000Y-55200000D01*
X84200000Y-55143402D02*
X84256598Y-55200000D01*
X84200000Y-55754000D02*
X84200000Y-55143402D01*
X84074000Y-55880000D02*
X84200000Y-55754000D01*
X103150000Y-55800000D02*
X106450000Y-55800000D01*
X109200000Y-56200000D02*
X109250000Y-56150000D01*
X90400000Y-55856000D02*
X90424000Y-55880000D01*
X90400000Y-55856000D02*
X90400000Y-55555602D01*
X90400000Y-55555602D02*
X90494398Y-55650000D01*
X90494398Y-55650000D02*
X102450000Y-55650000D01*
X102450000Y-55650000D02*
X102450000Y-55750000D01*
X102450000Y-55750000D02*
X102450000Y-56150000D01*
X102450000Y-56150000D02*
X102500000Y-56200000D01*
X109250000Y-56150000D02*
X109250000Y-55650000D01*
X102500000Y-56200000D02*
X109200000Y-56200000D01*
X111750000Y-55890000D02*
X111760000Y-55880000D01*
X111750000Y-55890000D02*
X111750000Y-56650000D01*
X111750000Y-56650000D02*
X96750000Y-56650000D01*
X96750000Y-56650000D02*
X96750000Y-56300000D01*
X77565780Y-57548520D02*
X77614780Y-57597520D01*
X77565780Y-57548520D02*
X77591180Y-57262800D01*
X77591180Y-57262800D02*
X77616180Y-57287800D01*
X77616180Y-57287800D02*
X103966180Y-57287800D01*
X103966180Y-57287800D02*
X103950000Y-57650000D01*
X106450000Y-58300000D02*
X106500000Y-58250000D01*
X106500000Y-58250000D02*
X106500000Y-57800000D01*
X103050000Y-58300000D02*
X103150000Y-58300000D01*
X103050000Y-57850000D02*
X103050000Y-58300000D01*
X102900000Y-57700000D02*
X103050000Y-57850000D01*
X84256598Y-57700000D02*
X102900000Y-57700000D01*
X84200000Y-57643402D02*
X84256598Y-57700000D01*
X84200000Y-58254000D02*
X84200000Y-57643402D01*
X84074000Y-58380000D02*
X84200000Y-58254000D01*
X103150000Y-58300000D02*
X106450000Y-58300000D01*
X109200000Y-58700000D02*
X109250000Y-58650000D01*
X90400000Y-58356000D02*
X90424000Y-58380000D01*
X90400000Y-58356000D02*
X90400000Y-58055602D01*
X90400000Y-58055602D02*
X90494398Y-58150000D01*
X90494398Y-58150000D02*
X102450000Y-58150000D01*
X102450000Y-58150000D02*
X102450000Y-58250000D01*
X102450000Y-58250000D02*
X102450000Y-58650000D01*
X102450000Y-58650000D02*
X102500000Y-58700000D01*
X109250000Y-58650000D02*
X109250000Y-58150000D01*
X102500000Y-58700000D02*
X109200000Y-58700000D01*
X111750000Y-58390000D02*
X111760000Y-58380000D01*
X111750000Y-58390000D02*
X111750000Y-59150000D01*
X111750000Y-59150000D02*
X96750000Y-59150000D01*
X96750000Y-59150000D02*
X96750000Y-58800000D01*
X103966180Y-59837800D02*
X103950000Y-60200000D01*
X77616180Y-59837800D02*
X103966180Y-59837800D01*
X77591180Y-59812800D02*
X77616180Y-59837800D01*
X77565780Y-60098520D02*
X77591180Y-59812800D01*
X77565780Y-60098520D02*
X77614780Y-60147520D01*
X103150000Y-60850000D02*
X106450000Y-60850000D01*
X84074000Y-60930000D02*
X84200000Y-60804000D01*
X84200000Y-60804000D02*
X84200000Y-60193402D01*
X84200000Y-60193402D02*
X84256598Y-60250000D01*
X84256598Y-60250000D02*
X102900000Y-60250000D01*
X102900000Y-60250000D02*
X103050000Y-60400000D01*
X103050000Y-60400000D02*
X103050000Y-60850000D01*
X103050000Y-60850000D02*
X103150000Y-60850000D01*
X106500000Y-60800000D02*
X106500000Y-60350000D01*
X106450000Y-60850000D02*
X106500000Y-60800000D01*
X102500000Y-61250000D02*
X109200000Y-61250000D01*
X109250000Y-61200000D02*
X109250000Y-60700000D01*
X102450000Y-61200000D02*
X102500000Y-61250000D01*
X102450000Y-60800000D02*
X102450000Y-61200000D01*
X102450000Y-60700000D02*
X102450000Y-60800000D01*
X90494398Y-60700000D02*
X102450000Y-60700000D01*
X90400000Y-60605602D02*
X90494398Y-60700000D01*
X90400000Y-60906000D02*
X90400000Y-60605602D01*
X90400000Y-60906000D02*
X90424000Y-60930000D01*
X109200000Y-61250000D02*
X109250000Y-61200000D01*
X96750000Y-61700000D02*
X96750000Y-61350000D01*
X111750000Y-61700000D02*
X96750000Y-61700000D01*
X111750000Y-60940000D02*
X111750000Y-61700000D01*
X111750000Y-60940000D02*
X111760000Y-60930000D01*
X103966180Y-62337800D02*
X103950000Y-62700000D01*
X77616180Y-62337800D02*
X103966180Y-62337800D01*
X77591180Y-62312800D02*
X77616180Y-62337800D01*
X77565780Y-62598520D02*
X77591180Y-62312800D01*
X77565780Y-62598520D02*
X77614780Y-62647520D01*
X103150000Y-63350000D02*
X106450000Y-63350000D01*
X84074000Y-63430000D02*
X84200000Y-63304000D01*
X84200000Y-63304000D02*
X84200000Y-62693402D01*
X84200000Y-62693402D02*
X84256598Y-62750000D01*
X84256598Y-62750000D02*
X102900000Y-62750000D01*
X102900000Y-62750000D02*
X103050000Y-62900000D01*
X103050000Y-62900000D02*
X103050000Y-63350000D01*
X103050000Y-63350000D02*
X103150000Y-63350000D01*
X106500000Y-63300000D02*
X106500000Y-62850000D01*
X106450000Y-63350000D02*
X106500000Y-63300000D01*
X102500000Y-63750000D02*
X109200000Y-63750000D01*
X109250000Y-63700000D02*
X109250000Y-63200000D01*
X102450000Y-63700000D02*
X102500000Y-63750000D01*
X102450000Y-63300000D02*
X102450000Y-63700000D01*
X102450000Y-63200000D02*
X102450000Y-63300000D01*
X90494398Y-63200000D02*
X102450000Y-63200000D01*
X90400000Y-63105602D02*
X90494398Y-63200000D01*
X90400000Y-63406000D02*
X90400000Y-63105602D01*
X90400000Y-63406000D02*
X90424000Y-63430000D01*
X109200000Y-63750000D02*
X109250000Y-63700000D01*
X96750000Y-64200000D02*
X96750000Y-63850000D01*
X111750000Y-64200000D02*
X96750000Y-64200000D01*
X111750000Y-63440000D02*
X111750000Y-64200000D01*
X111750000Y-63440000D02*
X111760000Y-63430000D01*
X77565780Y-65198520D02*
X77614780Y-65247520D01*
X77565780Y-65198520D02*
X77591180Y-64912800D01*
X77591180Y-64912800D02*
X77616180Y-64937800D01*
X77616180Y-64937800D02*
X103966180Y-64937800D01*
X103966180Y-64937800D02*
X103950000Y-65300000D01*
X106450000Y-65950000D02*
X106500000Y-65900000D01*
X106500000Y-65900000D02*
X106500000Y-65450000D01*
X103050000Y-65950000D02*
X103150000Y-65950000D01*
X103050000Y-65500000D02*
X103050000Y-65950000D01*
X102900000Y-65350000D02*
X103050000Y-65500000D01*
X84256598Y-65350000D02*
X102900000Y-65350000D01*
X84200000Y-65293402D02*
X84256598Y-65350000D01*
X84200000Y-65904000D02*
X84200000Y-65293402D01*
X84074000Y-66030000D02*
X84200000Y-65904000D01*
X103150000Y-65950000D02*
X106450000Y-65950000D01*
X109200000Y-66350000D02*
X109250000Y-66300000D01*
X90400000Y-66006000D02*
X90424000Y-66030000D01*
X90400000Y-66006000D02*
X90400000Y-65705602D01*
X90400000Y-65705602D02*
X90494398Y-65800000D01*
X90494398Y-65800000D02*
X102450000Y-65800000D01*
X102450000Y-65800000D02*
X102450000Y-65900000D01*
X102450000Y-65900000D02*
X102450000Y-66300000D01*
X102450000Y-66300000D02*
X102500000Y-66350000D01*
X109250000Y-66300000D02*
X109250000Y-65800000D01*
X102500000Y-66350000D02*
X109200000Y-66350000D01*
X111750000Y-66040000D02*
X111760000Y-66030000D01*
X111750000Y-66040000D02*
X111750000Y-66800000D01*
X111750000Y-66800000D02*
X96750000Y-66800000D01*
X96750000Y-66800000D02*
X96750000Y-66450000D01*
X103966180Y-67487800D02*
X103950000Y-67850000D01*
X77616180Y-67487800D02*
X103966180Y-67487800D01*
X77591180Y-67462800D02*
X77616180Y-67487800D01*
X77565780Y-67748520D02*
X77591180Y-67462800D01*
X77565780Y-67748520D02*
X77614780Y-67797520D01*
X103150000Y-68500000D02*
X106450000Y-68500000D01*
X84074000Y-68580000D02*
X84200000Y-68454000D01*
X84200000Y-68454000D02*
X84200000Y-67843402D01*
X84200000Y-67843402D02*
X84256598Y-67900000D01*
X84256598Y-67900000D02*
X102900000Y-67900000D01*
X102900000Y-67900000D02*
X103050000Y-68050000D01*
X103050000Y-68050000D02*
X103050000Y-68500000D01*
X103050000Y-68500000D02*
X103150000Y-68500000D01*
X106500000Y-68450000D02*
X106500000Y-68000000D01*
X106450000Y-68500000D02*
X106500000Y-68450000D01*
X102500000Y-68900000D02*
X109200000Y-68900000D01*
X109250000Y-68850000D02*
X109250000Y-68350000D01*
X102450000Y-68850000D02*
X102500000Y-68900000D01*
X102450000Y-68450000D02*
X102450000Y-68850000D01*
X102450000Y-68350000D02*
X102450000Y-68450000D01*
X90494398Y-68350000D02*
X102450000Y-68350000D01*
X90400000Y-68255602D02*
X90494398Y-68350000D01*
X90400000Y-68556000D02*
X90400000Y-68255602D01*
X90400000Y-68556000D02*
X90424000Y-68580000D01*
X109200000Y-68900000D02*
X109250000Y-68850000D01*
X96750000Y-69350000D02*
X96750000Y-69000000D01*
X111750000Y-69350000D02*
X96750000Y-69350000D01*
X111750000Y-68590000D02*
X111750000Y-69350000D01*
X111750000Y-68590000D02*
X111760000Y-68580000D01*
X77565780Y-70298520D02*
X77614780Y-70347520D01*
X77565780Y-70298520D02*
X77591180Y-70012800D01*
X77591180Y-70012800D02*
X77616180Y-70037800D01*
X77616180Y-70037800D02*
X103966180Y-70037800D01*
X103966180Y-70037800D02*
X103950000Y-70400000D01*
X106450000Y-71050000D02*
X106500000Y-71000000D01*
X106500000Y-71000000D02*
X106500000Y-70550000D01*
X103050000Y-71050000D02*
X103150000Y-71050000D01*
X103050000Y-70600000D02*
X103050000Y-71050000D01*
X102900000Y-70450000D02*
X103050000Y-70600000D01*
X84256598Y-70450000D02*
X102900000Y-70450000D01*
X84200000Y-70393402D02*
X84256598Y-70450000D01*
X84200000Y-71004000D02*
X84200000Y-70393402D01*
X84074000Y-71130000D02*
X84200000Y-71004000D01*
X103150000Y-71050000D02*
X106450000Y-71050000D01*
X109200000Y-71450000D02*
X109250000Y-71400000D01*
X90400000Y-71106000D02*
X90424000Y-71130000D01*
X90400000Y-71106000D02*
X90400000Y-70805602D01*
X90400000Y-70805602D02*
X90494398Y-70900000D01*
X90494398Y-70900000D02*
X102450000Y-70900000D01*
X102450000Y-70900000D02*
X102450000Y-71000000D01*
X102450000Y-71000000D02*
X102450000Y-71400000D01*
X102450000Y-71400000D02*
X102500000Y-71450000D01*
X109250000Y-71400000D02*
X109250000Y-70900000D01*
X102500000Y-71450000D02*
X109200000Y-71450000D01*
X111750000Y-71140000D02*
X111760000Y-71130000D01*
X111750000Y-71140000D02*
X111750000Y-71900000D01*
X111750000Y-71900000D02*
X96750000Y-71900000D01*
X96750000Y-71900000D02*
X96750000Y-71550000D01*
X103966180Y-72587800D02*
X103950000Y-72950000D01*
X77616180Y-72587800D02*
X103966180Y-72587800D01*
X77591180Y-72562800D02*
X77616180Y-72587800D01*
X77565780Y-72848520D02*
X77591180Y-72562800D01*
X77565780Y-72848520D02*
X77614780Y-72897520D01*
X103150000Y-73600000D02*
X106450000Y-73600000D01*
X84074000Y-73680000D02*
X84200000Y-73554000D01*
X84200000Y-73554000D02*
X84200000Y-72943402D01*
X84200000Y-72943402D02*
X84256598Y-73000000D01*
X84256598Y-73000000D02*
X102900000Y-73000000D01*
X102900000Y-73000000D02*
X103050000Y-73150000D01*
X103050000Y-73150000D02*
X103050000Y-73600000D01*
X103050000Y-73600000D02*
X103150000Y-73600000D01*
X106500000Y-73550000D02*
X106500000Y-73100000D01*
X106450000Y-73600000D02*
X106500000Y-73550000D01*
X102500000Y-74000000D02*
X109200000Y-74000000D01*
X109250000Y-73950000D02*
X109250000Y-73450000D01*
X102450000Y-73950000D02*
X102500000Y-74000000D01*
X102450000Y-73550000D02*
X102450000Y-73950000D01*
X102450000Y-73450000D02*
X102450000Y-73550000D01*
X90494398Y-73450000D02*
X102450000Y-73450000D01*
X90400000Y-73355602D02*
X90494398Y-73450000D01*
X90400000Y-73656000D02*
X90400000Y-73355602D01*
X90400000Y-73656000D02*
X90424000Y-73680000D01*
X109200000Y-74000000D02*
X109250000Y-73950000D01*
X96750000Y-74450000D02*
X96750000Y-74100000D01*
X111750000Y-74450000D02*
X96750000Y-74450000D01*
X111750000Y-73690000D02*
X111750000Y-74450000D01*
X111750000Y-73690000D02*
X111760000Y-73680000D01*
X77565780Y-75348520D02*
X77614780Y-75397520D01*
X77565780Y-75348520D02*
X77591180Y-75062800D01*
X77591180Y-75062800D02*
X77616180Y-75087800D01*
X77616180Y-75087800D02*
X103966180Y-75087800D01*
X103966180Y-75087800D02*
X103950000Y-75450000D01*
X103150000Y-76100000D02*
X106450000Y-76100000D01*
X84074000Y-76180000D02*
X84200000Y-76054000D01*
X84200000Y-76054000D02*
X84200000Y-75443402D01*
X84200000Y-75443402D02*
X84256598Y-75500000D01*
X84256598Y-75500000D02*
X102900000Y-75500000D01*
X102900000Y-75500000D02*
X103050000Y-75650000D01*
X103050000Y-75650000D02*
X103050000Y-76100000D01*
X103050000Y-76100000D02*
X103150000Y-76100000D01*
X106500000Y-76050000D02*
X106500000Y-75600000D01*
X106450000Y-76100000D02*
X106500000Y-76050000D01*
X102500000Y-76500000D02*
X109200000Y-76500000D01*
X109250000Y-76450000D02*
X109250000Y-75950000D01*
X102450000Y-76450000D02*
X102500000Y-76500000D01*
X102450000Y-76050000D02*
X102450000Y-76450000D01*
X102450000Y-75950000D02*
X102450000Y-76050000D01*
X90494398Y-75950000D02*
X102450000Y-75950000D01*
X90400000Y-75855602D02*
X90494398Y-75950000D01*
X90400000Y-76156000D02*
X90400000Y-75855602D01*
X90400000Y-76156000D02*
X90424000Y-76180000D01*
X109200000Y-76500000D02*
X109250000Y-76450000D01*
X96750000Y-76950000D02*
X96750000Y-76600000D01*
X111750000Y-76950000D02*
X96750000Y-76950000D01*
X111750000Y-76190000D02*
X111750000Y-76950000D01*
X111750000Y-76190000D02*
X111760000Y-76180000D01*
X77565780Y-77898520D02*
X77614780Y-77947520D01*
X77565780Y-77898520D02*
X77591180Y-77612800D01*
X77591180Y-77612800D02*
X77616180Y-77637800D01*
X77616180Y-77637800D02*
X103966180Y-77637800D01*
X103966180Y-77637800D02*
X103950000Y-78000000D01*
X106450000Y-78650000D02*
X106500000Y-78600000D01*
X106500000Y-78600000D02*
X106500000Y-78150000D01*
X103050000Y-78650000D02*
X103150000Y-78650000D01*
X103050000Y-78200000D02*
X103050000Y-78650000D01*
X102900000Y-78050000D02*
X103050000Y-78200000D01*
X84256598Y-78050000D02*
X102900000Y-78050000D01*
X84200000Y-77993402D02*
X84256598Y-78050000D01*
X84200000Y-78604000D02*
X84200000Y-77993402D01*
X84074000Y-78730000D02*
X84200000Y-78604000D01*
X103150000Y-78650000D02*
X106450000Y-78650000D01*
X109200000Y-79050000D02*
X109250000Y-79000000D01*
X90400000Y-78706000D02*
X90424000Y-78730000D01*
X90400000Y-78706000D02*
X90400000Y-78405602D01*
X90400000Y-78405602D02*
X90494398Y-78500000D01*
X90494398Y-78500000D02*
X102450000Y-78500000D01*
X102450000Y-78500000D02*
X102450000Y-78600000D01*
X102450000Y-78600000D02*
X102450000Y-79000000D01*
X102450000Y-79000000D02*
X102500000Y-79050000D01*
X109250000Y-79000000D02*
X109250000Y-78500000D01*
X102500000Y-79050000D02*
X109200000Y-79050000D01*
X111750000Y-78740000D02*
X111760000Y-78730000D01*
X111750000Y-78740000D02*
X111750000Y-79500000D01*
X111750000Y-79500000D02*
X96750000Y-79500000D01*
X96750000Y-79500000D02*
X96750000Y-79150000D01*
X40700000Y-78790000D02*
X40690000Y-78780000D01*
X40700000Y-78790000D02*
X40700000Y-79500000D01*
X40700000Y-79500000D02*
X52400000Y-79500000D01*
X52400000Y-79500000D02*
X52400000Y-79100000D01*
X43100000Y-78500000D02*
X43150000Y-78450000D01*
X49650000Y-79100000D02*
X43100000Y-79100000D01*
X49650000Y-78361204D02*
X49650000Y-79100000D01*
X58750000Y-78361204D02*
X49650000Y-78361204D01*
X58750000Y-78754000D02*
X58750000Y-78361204D01*
X58724000Y-78780000D02*
X58750000Y-78754000D01*
X43100000Y-79100000D02*
X43100000Y-78500000D01*
X45750000Y-78700000D02*
X49050000Y-78700000D01*
X65050000Y-78756000D02*
X65074000Y-78780000D01*
X65050000Y-78756000D02*
X65050000Y-78005602D01*
X65050000Y-78005602D02*
X49050000Y-78005602D01*
X49050000Y-78005602D02*
X49050000Y-78700000D01*
X45750000Y-78700000D02*
X45750000Y-78200000D01*
X71450000Y-78754000D02*
X71424000Y-78780000D01*
X71450000Y-78754000D02*
X71450000Y-77650000D01*
X71450000Y-77650000D02*
X48300000Y-77650000D01*
X48300000Y-77650000D02*
X48250000Y-77700000D01*
X48250000Y-77700000D02*
X48250000Y-78050000D01*
X40700000Y-76240000D02*
X40690000Y-76230000D01*
X40700000Y-76240000D02*
X40700000Y-76950000D01*
X40700000Y-76950000D02*
X52400000Y-76950000D01*
X52400000Y-76950000D02*
X52400000Y-76550000D01*
X43100000Y-75950000D02*
X43150000Y-75900000D01*
X49650000Y-76550000D02*
X43100000Y-76550000D01*
X49650000Y-75811204D02*
X49650000Y-76550000D01*
X58750000Y-75811204D02*
X49650000Y-75811204D01*
X58750000Y-76204000D02*
X58750000Y-75811204D01*
X58724000Y-76230000D02*
X58750000Y-76204000D01*
X43100000Y-76550000D02*
X43100000Y-75950000D01*
X45750000Y-76150000D02*
X49050000Y-76150000D01*
X65050000Y-76206000D02*
X65074000Y-76230000D01*
X65050000Y-76206000D02*
X65050000Y-75455602D01*
X65050000Y-75455602D02*
X49050000Y-75455602D01*
X49050000Y-75455602D02*
X49050000Y-76150000D01*
X45750000Y-76150000D02*
X45750000Y-75650000D01*
X71450000Y-76204000D02*
X71424000Y-76230000D01*
X71450000Y-76204000D02*
X71450000Y-75100000D01*
X71450000Y-75100000D02*
X48300000Y-75100000D01*
X48300000Y-75100000D02*
X48250000Y-75150000D01*
X48250000Y-75150000D02*
X48250000Y-75500000D01*
X52400000Y-74400000D02*
X52400000Y-74000000D01*
X40700000Y-74400000D02*
X52400000Y-74400000D01*
X40700000Y-73690000D02*
X40700000Y-74400000D01*
X40700000Y-73690000D02*
X40690000Y-73680000D01*
X43100000Y-74000000D02*
X43100000Y-73400000D01*
X58724000Y-73680000D02*
X58750000Y-73654000D01*
X58750000Y-73654000D02*
X58750000Y-73261204D01*
X58750000Y-73261204D02*
X49650000Y-73261204D01*
X49650000Y-73261204D02*
X49650000Y-74000000D01*
X49650000Y-74000000D02*
X43100000Y-74000000D01*
X43100000Y-73400000D02*
X43150000Y-73350000D01*
X45750000Y-73600000D02*
X45750000Y-73100000D01*
X49050000Y-72905602D02*
X49050000Y-73600000D01*
X65050000Y-72905602D02*
X49050000Y-72905602D01*
X65050000Y-73656000D02*
X65050000Y-72905602D01*
X65050000Y-73656000D02*
X65074000Y-73680000D01*
X45750000Y-73600000D02*
X49050000Y-73600000D01*
X48250000Y-72600000D02*
X48250000Y-72950000D01*
X48300000Y-72550000D02*
X48250000Y-72600000D01*
X71450000Y-72550000D02*
X48300000Y-72550000D01*
X71450000Y-73654000D02*
X71450000Y-72550000D01*
X71450000Y-73654000D02*
X71424000Y-73680000D01*
X52350000Y-71850000D02*
X52350000Y-71450000D01*
X40650000Y-71850000D02*
X52350000Y-71850000D01*
X40650000Y-71140000D02*
X40650000Y-71850000D01*
X40650000Y-71140000D02*
X40640000Y-71130000D01*
X43050000Y-71450000D02*
X43050000Y-70850000D01*
X58674000Y-71130000D02*
X58700000Y-71104000D01*
X58700000Y-71104000D02*
X58700000Y-70711204D01*
X58700000Y-70711204D02*
X49600000Y-70711204D01*
X49600000Y-70711204D02*
X49600000Y-71450000D01*
X49600000Y-71450000D02*
X43050000Y-71450000D01*
X43050000Y-70850000D02*
X43100000Y-70800000D01*
X45700000Y-71050000D02*
X45700000Y-70550000D01*
X49000000Y-70355602D02*
X49000000Y-71050000D01*
X65000000Y-70355602D02*
X49000000Y-70355602D01*
X65000000Y-71106000D02*
X65000000Y-70355602D01*
X65000000Y-71106000D02*
X65024000Y-71130000D01*
X45700000Y-71050000D02*
X49000000Y-71050000D01*
X48200000Y-70050000D02*
X48200000Y-70400000D01*
X48250000Y-70000000D02*
X48200000Y-70050000D01*
X71400000Y-70000000D02*
X48250000Y-70000000D01*
X71400000Y-71104000D02*
X71400000Y-70000000D01*
X71400000Y-71104000D02*
X71374000Y-71130000D01*
X40650000Y-68590000D02*
X40640000Y-68580000D01*
X40650000Y-68590000D02*
X40650000Y-69300000D01*
X40650000Y-69300000D02*
X52350000Y-69300000D01*
X52350000Y-69300000D02*
X52350000Y-68900000D01*
X43050000Y-68300000D02*
X43100000Y-68250000D01*
X49600000Y-68900000D02*
X43050000Y-68900000D01*
X49600000Y-68161204D02*
X49600000Y-68900000D01*
X58700000Y-68161204D02*
X49600000Y-68161204D01*
X58700000Y-68554000D02*
X58700000Y-68161204D01*
X58674000Y-68580000D02*
X58700000Y-68554000D01*
X43050000Y-68900000D02*
X43050000Y-68300000D01*
X45700000Y-68500000D02*
X49000000Y-68500000D01*
X65000000Y-68556000D02*
X65024000Y-68580000D01*
X65000000Y-68556000D02*
X65000000Y-67805602D01*
X65000000Y-67805602D02*
X49000000Y-67805602D01*
X49000000Y-67805602D02*
X49000000Y-68500000D01*
X45700000Y-68500000D02*
X45700000Y-68000000D01*
X71400000Y-68554000D02*
X71374000Y-68580000D01*
X71400000Y-68554000D02*
X71400000Y-67450000D01*
X71400000Y-67450000D02*
X48250000Y-67450000D01*
X48250000Y-67450000D02*
X48200000Y-67500000D01*
X48200000Y-67500000D02*
X48200000Y-67850000D01*
X40650000Y-66040000D02*
X40640000Y-66030000D01*
X40650000Y-66040000D02*
X40650000Y-66750000D01*
X40650000Y-66750000D02*
X52350000Y-66750000D01*
X52350000Y-66750000D02*
X52350000Y-66350000D01*
X43050000Y-65750000D02*
X43100000Y-65700000D01*
X49600000Y-66350000D02*
X43050000Y-66350000D01*
X49600000Y-65611204D02*
X49600000Y-66350000D01*
X58700000Y-65611204D02*
X49600000Y-65611204D01*
X58700000Y-66004000D02*
X58700000Y-65611204D01*
X58674000Y-66030000D02*
X58700000Y-66004000D01*
X43050000Y-66350000D02*
X43050000Y-65750000D01*
X45700000Y-65950000D02*
X49000000Y-65950000D01*
X65000000Y-66006000D02*
X65024000Y-66030000D01*
X65000000Y-66006000D02*
X65000000Y-65255602D01*
X65000000Y-65255602D02*
X49000000Y-65255602D01*
X49000000Y-65255602D02*
X49000000Y-65950000D01*
X45700000Y-65950000D02*
X45700000Y-65450000D01*
X71400000Y-66004000D02*
X71374000Y-66030000D01*
X71400000Y-66004000D02*
X71400000Y-64900000D01*
X71400000Y-64900000D02*
X48250000Y-64900000D01*
X48250000Y-64900000D02*
X48200000Y-64950000D01*
X48200000Y-64950000D02*
X48200000Y-65300000D01*
X52350000Y-64200000D02*
X52350000Y-63800000D01*
X40650000Y-64200000D02*
X52350000Y-64200000D01*
X40650000Y-63490000D02*
X40650000Y-64200000D01*
X40650000Y-63490000D02*
X40640000Y-63480000D01*
X43050000Y-63800000D02*
X43050000Y-63200000D01*
X58674000Y-63480000D02*
X58700000Y-63454000D01*
X58700000Y-63454000D02*
X58700000Y-63061204D01*
X58700000Y-63061204D02*
X49600000Y-63061204D01*
X49600000Y-63061204D02*
X49600000Y-63800000D01*
X49600000Y-63800000D02*
X43050000Y-63800000D01*
X43050000Y-63200000D02*
X43100000Y-63150000D01*
X45700000Y-63400000D02*
X45700000Y-62900000D01*
X49000000Y-62705602D02*
X49000000Y-63400000D01*
X65000000Y-62705602D02*
X49000000Y-62705602D01*
X65000000Y-63456000D02*
X65000000Y-62705602D01*
X65000000Y-63456000D02*
X65024000Y-63480000D01*
X45700000Y-63400000D02*
X49000000Y-63400000D01*
X48200000Y-62400000D02*
X48200000Y-62750000D01*
X48250000Y-62350000D02*
X48200000Y-62400000D01*
X71400000Y-62350000D02*
X48250000Y-62350000D01*
X71400000Y-63454000D02*
X71400000Y-62350000D01*
X71400000Y-63454000D02*
X71374000Y-63480000D01*
X52400000Y-61700000D02*
X52400000Y-61300000D01*
X40700000Y-61700000D02*
X52400000Y-61700000D01*
X40700000Y-60990000D02*
X40700000Y-61700000D01*
X40700000Y-60990000D02*
X40690000Y-60980000D01*
X43100000Y-61300000D02*
X43100000Y-60700000D01*
X58724000Y-60980000D02*
X58750000Y-60954000D01*
X58750000Y-60954000D02*
X58750000Y-60561204D01*
X58750000Y-60561204D02*
X49650000Y-60561204D01*
X49650000Y-60561204D02*
X49650000Y-61300000D01*
X49650000Y-61300000D02*
X43100000Y-61300000D01*
X43100000Y-60700000D02*
X43150000Y-60650000D01*
X45750000Y-60900000D02*
X45750000Y-60400000D01*
X49050000Y-60205602D02*
X49050000Y-60900000D01*
X65050000Y-60205602D02*
X49050000Y-60205602D01*
X65050000Y-60956000D02*
X65050000Y-60205602D01*
X65050000Y-60956000D02*
X65074000Y-60980000D01*
X45750000Y-60900000D02*
X49050000Y-60900000D01*
X48250000Y-59900000D02*
X48250000Y-60250000D01*
X48300000Y-59850000D02*
X48250000Y-59900000D01*
X71450000Y-59850000D02*
X48300000Y-59850000D01*
X71450000Y-60954000D02*
X71450000Y-59850000D01*
X71450000Y-60954000D02*
X71424000Y-60980000D01*
X40700000Y-58440000D02*
X40690000Y-58430000D01*
X40700000Y-58440000D02*
X40700000Y-59150000D01*
X40700000Y-59150000D02*
X52400000Y-59150000D01*
X52400000Y-59150000D02*
X52400000Y-58750000D01*
X43100000Y-58150000D02*
X43150000Y-58100000D01*
X49650000Y-58750000D02*
X43100000Y-58750000D01*
X49650000Y-58011204D02*
X49650000Y-58750000D01*
X58750000Y-58011204D02*
X49650000Y-58011204D01*
X58750000Y-58404000D02*
X58750000Y-58011204D01*
X58724000Y-58430000D02*
X58750000Y-58404000D01*
X43100000Y-58750000D02*
X43100000Y-58150000D01*
X45750000Y-58350000D02*
X49050000Y-58350000D01*
X65050000Y-58406000D02*
X65074000Y-58430000D01*
X65050000Y-58406000D02*
X65050000Y-57655602D01*
X65050000Y-57655602D02*
X49050000Y-57655602D01*
X49050000Y-57655602D02*
X49050000Y-58350000D01*
X45750000Y-58350000D02*
X45750000Y-57850000D01*
X71450000Y-58404000D02*
X71424000Y-58430000D01*
X71450000Y-58404000D02*
X71450000Y-57300000D01*
X71450000Y-57300000D02*
X48300000Y-57300000D01*
X48300000Y-57300000D02*
X48250000Y-57350000D01*
X48250000Y-57350000D02*
X48250000Y-57700000D01*
X40700000Y-55890000D02*
X40690000Y-55880000D01*
X40700000Y-55890000D02*
X40700000Y-56600000D01*
X40700000Y-56600000D02*
X52400000Y-56600000D01*
X52400000Y-56600000D02*
X52400000Y-56200000D01*
X43100000Y-55600000D02*
X43150000Y-55550000D01*
X49650000Y-56200000D02*
X43100000Y-56200000D01*
X49650000Y-55461204D02*
X49650000Y-56200000D01*
X58750000Y-55461204D02*
X49650000Y-55461204D01*
X58750000Y-55854000D02*
X58750000Y-55461204D01*
X58724000Y-55880000D02*
X58750000Y-55854000D01*
X43100000Y-56200000D02*
X43100000Y-55600000D01*
X45750000Y-55800000D02*
X49050000Y-55800000D01*
X65050000Y-55856000D02*
X65074000Y-55880000D01*
X65050000Y-55856000D02*
X65050000Y-55105602D01*
X65050000Y-55105602D02*
X49050000Y-55105602D01*
X49050000Y-55105602D02*
X49050000Y-55800000D01*
X45750000Y-55800000D02*
X45750000Y-55300000D01*
X71450000Y-55854000D02*
X71424000Y-55880000D01*
X71450000Y-55854000D02*
X71450000Y-54750000D01*
X71450000Y-54750000D02*
X48300000Y-54750000D01*
X48300000Y-54750000D02*
X48250000Y-54800000D01*
X48250000Y-54800000D02*
X48250000Y-55150000D01*
X52400000Y-54050000D02*
X52400000Y-53650000D01*
X40700000Y-54050000D02*
X52400000Y-54050000D01*
X40700000Y-53340000D02*
X40700000Y-54050000D01*
X40700000Y-53340000D02*
X40690000Y-53330000D01*
X43100000Y-53650000D02*
X43100000Y-53050000D01*
X58724000Y-53330000D02*
X58750000Y-53304000D01*
X58750000Y-53304000D02*
X58750000Y-52911204D01*
X58750000Y-52911204D02*
X49650000Y-52911204D01*
X49650000Y-52911204D02*
X49650000Y-53650000D01*
X49650000Y-53650000D02*
X43100000Y-53650000D01*
X43100000Y-53050000D02*
X43150000Y-53000000D01*
X45750000Y-53250000D02*
X45750000Y-52750000D01*
X49050000Y-52555602D02*
X49050000Y-53250000D01*
X65050000Y-52555602D02*
X49050000Y-52555602D01*
X65050000Y-53306000D02*
X65050000Y-52555602D01*
X65050000Y-53306000D02*
X65074000Y-53330000D01*
X45750000Y-53250000D02*
X49050000Y-53250000D01*
X48250000Y-52250000D02*
X48250000Y-52600000D01*
X48300000Y-52200000D02*
X48250000Y-52250000D01*
X71450000Y-52200000D02*
X48300000Y-52200000D01*
X71450000Y-53304000D02*
X71450000Y-52200000D01*
X71450000Y-53304000D02*
X71424000Y-53330000D01*
X40650000Y-50840000D02*
X40640000Y-50830000D01*
X40650000Y-50840000D02*
X40650000Y-51550000D01*
X40650000Y-51550000D02*
X52350000Y-51550000D01*
X52350000Y-51550000D02*
X52350000Y-51150000D01*
X43050000Y-50550000D02*
X43100000Y-50500000D01*
X49600000Y-51150000D02*
X43050000Y-51150000D01*
X49600000Y-50411204D02*
X49600000Y-51150000D01*
X58700000Y-50411204D02*
X49600000Y-50411204D01*
X58700000Y-50804000D02*
X58700000Y-50411204D01*
X58674000Y-50830000D02*
X58700000Y-50804000D01*
X43050000Y-51150000D02*
X43050000Y-50550000D01*
X45700000Y-50750000D02*
X49000000Y-50750000D01*
X65000000Y-50806000D02*
X65024000Y-50830000D01*
X65000000Y-50806000D02*
X65000000Y-50055602D01*
X65000000Y-50055602D02*
X49000000Y-50055602D01*
X49000000Y-50055602D02*
X49000000Y-50750000D01*
X45700000Y-50750000D02*
X45700000Y-50250000D01*
X71400000Y-50804000D02*
X71374000Y-50830000D01*
X71400000Y-50804000D02*
X71400000Y-49700000D01*
X71400000Y-49700000D02*
X48250000Y-49700000D01*
X48250000Y-49700000D02*
X48200000Y-49750000D01*
X48200000Y-49750000D02*
X48200000Y-50100000D01*
X52350000Y-49000000D02*
X52350000Y-48600000D01*
X40650000Y-49000000D02*
X52350000Y-49000000D01*
X40650000Y-48290000D02*
X40650000Y-49000000D01*
X40650000Y-48290000D02*
X40640000Y-48280000D01*
X43050000Y-48600000D02*
X43050000Y-48000000D01*
X58674000Y-48280000D02*
X58700000Y-48254000D01*
X58700000Y-48254000D02*
X58700000Y-47861204D01*
X58700000Y-47861204D02*
X49600000Y-47861204D01*
X49600000Y-47861204D02*
X49600000Y-48600000D01*
X49600000Y-48600000D02*
X43050000Y-48600000D01*
X43050000Y-48000000D02*
X43100000Y-47950000D01*
X45700000Y-48200000D02*
X45700000Y-47700000D01*
X49000000Y-47505602D02*
X49000000Y-48200000D01*
X65000000Y-47505602D02*
X49000000Y-47505602D01*
X65000000Y-48256000D02*
X65000000Y-47505602D01*
X65000000Y-48256000D02*
X65024000Y-48280000D01*
X45700000Y-48200000D02*
X49000000Y-48200000D01*
X48200000Y-47200000D02*
X48200000Y-47550000D01*
X48250000Y-47150000D02*
X48200000Y-47200000D01*
X71400000Y-47150000D02*
X48250000Y-47150000D01*
X71400000Y-48254000D02*
X71400000Y-47150000D01*
X71400000Y-48254000D02*
X71374000Y-48280000D01*
X52350000Y-46450000D02*
X52350000Y-46050000D01*
X40650000Y-46450000D02*
X52350000Y-46450000D01*
X40650000Y-45740000D02*
X40650000Y-46450000D01*
X40650000Y-45740000D02*
X40640000Y-45730000D01*
X43050000Y-46050000D02*
X43050000Y-45450000D01*
X58674000Y-45730000D02*
X58700000Y-45704000D01*
X58700000Y-45704000D02*
X58700000Y-45311204D01*
X58700000Y-45311204D02*
X49600000Y-45311204D01*
X49600000Y-45311204D02*
X49600000Y-46050000D01*
X49600000Y-46050000D02*
X43050000Y-46050000D01*
X43050000Y-45450000D02*
X43100000Y-45400000D01*
X45700000Y-45650000D02*
X45700000Y-45150000D01*
X49000000Y-44955602D02*
X49000000Y-45650000D01*
X65000000Y-44955602D02*
X49000000Y-44955602D01*
X65000000Y-45706000D02*
X65000000Y-44955602D01*
X65000000Y-45706000D02*
X65024000Y-45730000D01*
X45700000Y-45650000D02*
X49000000Y-45650000D01*
X48200000Y-44650000D02*
X48200000Y-45000000D01*
X48250000Y-44600000D02*
X48200000Y-44650000D01*
X71400000Y-44600000D02*
X48250000Y-44600000D01*
X71400000Y-45704000D02*
X71400000Y-44600000D01*
X71400000Y-45704000D02*
X71374000Y-45730000D01*
X40650000Y-43190000D02*
X40640000Y-43180000D01*
X40650000Y-43190000D02*
X40650000Y-43900000D01*
X40650000Y-43900000D02*
X52350000Y-43900000D01*
X52350000Y-43900000D02*
X52350000Y-43500000D01*
X43050000Y-42900000D02*
X43100000Y-42850000D01*
X49600000Y-43500000D02*
X43050000Y-43500000D01*
X49600000Y-42761204D02*
X49600000Y-43500000D01*
X58700000Y-42761204D02*
X49600000Y-42761204D01*
X58700000Y-43154000D02*
X58700000Y-42761204D01*
X58674000Y-43180000D02*
X58700000Y-43154000D01*
X43050000Y-43500000D02*
X43050000Y-42900000D01*
X45700000Y-43100000D02*
X49000000Y-43100000D01*
X65000000Y-43156000D02*
X65024000Y-43180000D01*
X65000000Y-43156000D02*
X65000000Y-42405602D01*
X65000000Y-42405602D02*
X49000000Y-42405602D01*
X49000000Y-42405602D02*
X49000000Y-43100000D01*
X45700000Y-43100000D02*
X45700000Y-42600000D01*
X71400000Y-43154000D02*
X71374000Y-43180000D01*
X71400000Y-43154000D02*
X71400000Y-42050000D01*
X71400000Y-42050000D02*
X48250000Y-42050000D01*
X48250000Y-42050000D02*
X48200000Y-42100000D01*
X48200000Y-42100000D02*
X48200000Y-42450000D01*
M02*
