M48
;DRILL file {KiCad 4.0.0-rc1-stable} date 09/10/2015 1:44:37 PM
;FORMAT={-:-/ absolute / inch / decimal}
FMAT,2
INCH,TZ
T1C0.015
T2C0.040
%
G90
G05
M72
T1
X1.6Y-1.7
X1.6Y-1.8004
X1.6Y-1.9008
X1.6Y-2.0012
X1.6Y-2.4992
X1.6Y-2.5996
X1.6Y-2.7
X1.6Y-2.8004
X1.602Y-2.0996
X1.602Y-2.2
X1.602Y-2.3004
X1.602Y-2.4008
X1.602Y-2.9008
X1.602Y-3.0012
X1.602Y-3.1016
X1.6969Y-1.687
X1.6969Y-1.7874
X1.6969Y-1.8878
X1.6969Y-1.9882
X1.6969Y-2.4862
X1.6969Y-2.5866
X1.6969Y-2.687
X1.6969Y-2.7874
X1.6988Y-2.0866
X1.6988Y-2.187
X1.6988Y-2.2874
X1.6988Y-2.3878
X1.6988Y-2.8878
X1.6988Y-2.9882
X1.6988Y-3.0886
X1.7992Y-1.6772
X1.7992Y-1.7776
X1.7992Y-1.878
X1.7992Y-1.9783
X1.7992Y-2.4764
X1.7992Y-2.5768
X1.7992Y-2.6772
X1.7992Y-2.7776
X1.8012Y-2.0768
X1.8012Y-2.1772
X1.8012Y-2.2776
X1.8012Y-2.378
X1.8012Y-2.878
X1.8012Y-2.9783
X1.8012Y-3.0787
X1.8976Y-1.6713
X1.8976Y-1.7717
X1.8976Y-1.872
X1.8976Y-1.9724
X1.8976Y-2.4705
X1.8976Y-2.5709
X1.8976Y-2.6713
X1.8976Y-2.7717
X1.8996Y-2.0709
X1.8996Y-2.1713
X1.8996Y-2.2717
X1.8996Y-2.372
X1.8996Y-2.872
X1.8996Y-2.9724
X1.8996Y-3.0728
X2.061Y-1.7126
X2.061Y-1.813
X2.061Y-1.9134
X2.061Y-2.0138
X2.061Y-2.5118
X2.061Y-2.6122
X2.061Y-2.7126
X2.061Y-2.813
X2.063Y-2.1122
X2.063Y-2.2126
X2.063Y-2.313
X2.063Y-2.4134
X2.063Y-2.9134
X2.063Y-3.0138
X2.063Y-3.1142
X2.31Y-1.7
X2.31Y-1.8004
X2.31Y-1.9008
X2.31Y-2.0012
X2.31Y-2.4992
X2.31Y-2.5996
X2.31Y-2.7
X2.31Y-2.8004
X2.312Y-2.0996
X2.312Y-2.2
X2.312Y-2.3004
X2.312Y-2.4008
X2.312Y-2.9008
X2.312Y-3.0012
X2.312Y-3.1016
X2.56Y-1.7
X2.56Y-1.7
X2.56Y-1.8004
X2.56Y-1.8004
X2.56Y-1.9008
X2.56Y-1.9008
X2.56Y-2.0012
X2.56Y-2.0012
X2.56Y-2.4992
X2.56Y-2.4992
X2.56Y-2.5996
X2.56Y-2.5996
X2.56Y-2.7
X2.56Y-2.7
X2.56Y-2.8004
X2.56Y-2.8004
X2.562Y-2.0996
X2.562Y-2.0996
X2.562Y-2.2
X2.562Y-2.2
X2.562Y-2.3004
X2.562Y-2.3004
X2.562Y-2.4008
X2.562Y-2.4008
X2.562Y-2.9008
X2.562Y-2.9008
X2.562Y-3.0012
X2.562Y-3.0012
X2.562Y-3.1016
X2.562Y-3.1016
X2.81Y-1.7
X2.81Y-1.7
X2.81Y-1.7
X2.81Y-1.8004
X2.81Y-1.8004
X2.81Y-1.8004
X2.81Y-1.9008
X2.81Y-1.9008
X2.81Y-1.9008
X2.81Y-2.0012
X2.81Y-2.0012
X2.81Y-2.0012
X2.81Y-2.4992
X2.81Y-2.4992
X2.81Y-2.4992
X2.81Y-2.5996
X2.81Y-2.5996
X2.81Y-2.5996
X2.81Y-2.7
X2.81Y-2.7
X2.81Y-2.7
X2.81Y-2.8004
X2.81Y-2.8004
X2.81Y-2.8004
X2.812Y-2.0996
X2.812Y-2.0996
X2.812Y-2.0996
X2.812Y-2.2
X2.812Y-2.2
X2.812Y-2.2
X2.812Y-2.3004
X2.812Y-2.3004
X2.812Y-2.3004
X2.812Y-2.4008
X2.812Y-2.4008
X2.812Y-2.4008
X2.812Y-2.9008
X2.812Y-2.9008
X2.812Y-2.9008
X2.812Y-3.0012
X2.812Y-3.0012
X2.812Y-3.0012
X2.812Y-3.1016
X2.812Y-3.1016
X2.812Y-3.1016
X3.0557Y-1.6692
X3.0557Y-1.7696
X3.0557Y-1.868
X3.0557Y-1.9684
X3.0557Y-2.0688
X3.0557Y-2.1692
X3.0557Y-2.2676
X3.0557Y-2.368
X3.0557Y-2.4664
X3.0557Y-2.5688
X3.0557Y-2.6692
X3.0557Y-2.7696
X3.0557Y-2.87
X3.0557Y-2.9684
X3.0557Y-3.0688
X3.31Y-1.7
X3.31Y-1.8004
X3.31Y-1.8988
X3.31Y-1.9992
X3.31Y-2.0996
X3.31Y-2.2
X3.31Y-2.2984
X3.31Y-2.3988
X3.31Y-2.4972
X3.31Y-2.5996
X3.31Y-2.7
X3.31Y-2.8004
X3.31Y-2.9008
X3.31Y-2.9992
X3.31Y-3.0996
X3.56Y-1.7
X3.56Y-1.8004
X3.56Y-1.8988
X3.56Y-1.9992
X3.56Y-2.0996
X3.56Y-2.2
X3.56Y-2.2984
X3.56Y-2.3988
X3.56Y-2.4972
X3.56Y-2.5996
X3.56Y-2.7
X3.56Y-2.8004
X3.56Y-2.9008
X3.56Y-2.9992
X3.56Y-3.0996
X3.8091Y-1.7165
X3.8091Y-1.8169
X3.8091Y-1.9154
X3.8091Y-2.0157
X3.8091Y-2.1161
X3.8091Y-2.2165
X3.8091Y-2.315
X3.8091Y-2.4154
X3.8091Y-2.5138
X3.8091Y-2.6161
X3.8091Y-2.7165
X3.8091Y-2.8169
X3.8091Y-2.9173
X3.8091Y-3.0157
X3.8091Y-3.1161
X4.0925Y-1.6713
X4.0925Y-1.7717
X4.0925Y-1.8701
X4.0925Y-1.9705
X4.0925Y-2.0709
X4.0925Y-2.1713
X4.0925Y-2.2697
X4.0925Y-2.3701
X4.0925Y-2.4685
X4.0925Y-2.5709
X4.0925Y-2.6713
X4.0925Y-2.7717
X4.0925Y-2.872
X4.0925Y-2.9705
X4.0925Y-3.0709
X4.1929Y-1.6772
X4.1929Y-1.7776
X4.1929Y-1.876
X4.1929Y-1.9764
X4.1929Y-2.0768
X4.1929Y-2.1772
X4.1929Y-2.2756
X4.1929Y-2.376
X4.1929Y-2.4744
X4.1929Y-2.5768
X4.1929Y-2.6772
X4.1929Y-2.7776
X4.1929Y-2.878
X4.1929Y-2.9764
X4.1929Y-3.0768
X4.3012Y-1.6909
X4.3012Y-1.7913
X4.3012Y-1.8898
X4.3012Y-1.9902
X4.3012Y-2.0906
X4.3012Y-2.1909
X4.3012Y-2.2894
X4.3012Y-2.3898
X4.3012Y-2.4882
X4.3012Y-2.5906
X4.3012Y-2.6909
X4.3012Y-2.7913
X4.3012Y-2.8917
X4.3012Y-2.9902
X4.3012Y-3.0906
X4.4Y-1.7
X4.4Y-1.8004
X4.4Y-1.8988
X4.4Y-1.9992
X4.4Y-2.0996
X4.4Y-2.2
X4.4Y-2.2984
X4.4Y-2.3988
X4.4Y-2.4972
X4.4Y-2.5996
X4.4Y-2.7
X4.4Y-2.8004
X4.4Y-2.9008
X4.4Y-2.9992
X4.4Y-3.0996
T2
X3.Y-3.29
T0
M30
