M48
;DRILL file {KiCad 4.0.1-stable} date 2017-04-12 12:46:04 PM
;FORMAT={2:4/ absolute / inch / suppress leading zeros}
FMAT,2
INCH,TZ
T1C0.015
T2C0.039
%
G90
G05
M72
T1
X16000Y-17000
X16000Y-18004
X16000Y-19008
X16000Y-20012
X16000Y-24992
X16000Y-25996
X16000Y-27000
X16000Y-28004
X16020Y-20996
X16020Y-22000
X16020Y-23004
X16020Y-24008
X16020Y-29008
X16020Y-30012
X16020Y-31016
X16969Y-16870
X16969Y-17874
X16969Y-18878
X16969Y-19882
X16969Y-24862
X16969Y-25866
X16969Y-26870
X16969Y-27874
X16988Y-20866
X16988Y-21870
X16988Y-22874
X16988Y-23878
X16988Y-28878
X16988Y-29882
X16988Y-30886
X17992Y-16772
X17992Y-17776
X17992Y-18780
X17992Y-19783
X17992Y-24764
X17992Y-25768
X17992Y-26772
X17992Y-27776
X18012Y-20768
X18012Y-21772
X18012Y-22776
X18012Y-23780
X18012Y-28780
X18012Y-29783
X18012Y-30787
X18976Y-16713
X18976Y-17717
X18976Y-18720
X18976Y-19724
X18976Y-24705
X18976Y-25709
X18976Y-26713
X18976Y-27717
X18996Y-20709
X18996Y-21713
X18996Y-22717
X18996Y-23720
X18996Y-28720
X18996Y-29724
X18996Y-30728
X20610Y-17126
X20610Y-18130
X20610Y-19134
X20610Y-20138
X20610Y-25118
X20610Y-26122
X20610Y-27126
X20610Y-28130
X20630Y-21122
X20630Y-22126
X20630Y-23130
X20630Y-24134
X20630Y-29134
X20630Y-30138
X20630Y-31142
X23100Y-17000
X23100Y-18004
X23100Y-19008
X23100Y-20012
X23100Y-24992
X23100Y-25996
X23100Y-27000
X23100Y-28004
X23120Y-20996
X23120Y-22000
X23120Y-23004
X23120Y-24008
X23120Y-29008
X23120Y-30012
X23120Y-31016
X25600Y-17000
X25600Y-17000
X25600Y-18004
X25600Y-18004
X25600Y-19008
X25600Y-19008
X25600Y-20012
X25600Y-20012
X25600Y-24992
X25600Y-24992
X25600Y-25996
X25600Y-25996
X25600Y-27000
X25600Y-27000
X25600Y-28004
X25600Y-28004
X25620Y-20996
X25620Y-20996
X25620Y-22000
X25620Y-22000
X25620Y-23004
X25620Y-23004
X25620Y-24008
X25620Y-24008
X25620Y-29008
X25620Y-29008
X25620Y-30012
X25620Y-30012
X25620Y-31016
X25620Y-31016
X28100Y-17000
X28100Y-17000
X28100Y-17000
X28100Y-18004
X28100Y-18004
X28100Y-18004
X28100Y-19008
X28100Y-19008
X28100Y-19008
X28100Y-20012
X28100Y-20012
X28100Y-20012
X28100Y-24992
X28100Y-24992
X28100Y-24992
X28100Y-25996
X28100Y-25996
X28100Y-25996
X28100Y-27000
X28100Y-27000
X28100Y-27000
X28100Y-28004
X28100Y-28004
X28100Y-28004
X28120Y-20996
X28120Y-20996
X28120Y-20996
X28120Y-22000
X28120Y-22000
X28120Y-22000
X28120Y-23004
X28120Y-23004
X28120Y-23004
X28120Y-24008
X28120Y-24008
X28120Y-24008
X28120Y-29008
X28120Y-29008
X28120Y-29008
X28120Y-30012
X28120Y-30012
X28120Y-30012
X28120Y-31016
X28120Y-31016
X28120Y-31016
X30557Y-16692
X30557Y-17696
X30557Y-18680
X30557Y-19684
X30557Y-20688
X30557Y-21692
X30557Y-22676
X30557Y-23680
X30557Y-24664
X30557Y-25688
X30557Y-26692
X30557Y-27696
X30557Y-28700
X30557Y-29684
X30557Y-30688
X33100Y-17000
X33100Y-18004
X33100Y-18988
X33100Y-19992
X33100Y-20996
X33100Y-22000
X33100Y-22984
X33100Y-23988
X33100Y-24972
X33100Y-25996
X33100Y-27000
X33100Y-28004
X33100Y-29008
X33100Y-29992
X33100Y-30996
X35600Y-17000
X35600Y-18004
X35600Y-18988
X35600Y-19992
X35600Y-20996
X35600Y-22000
X35600Y-22984
X35600Y-23988
X35600Y-24972
X35600Y-25996
X35600Y-27000
X35600Y-28004
X35600Y-29008
X35600Y-29992
X35600Y-30996
X38091Y-17165
X38091Y-18169
X38091Y-19154
X38091Y-20157
X38091Y-21161
X38091Y-22165
X38091Y-23150
X38091Y-24154
X38091Y-25138
X38091Y-26161
X38091Y-27165
X38091Y-28169
X38091Y-29173
X38091Y-30157
X38091Y-31161
X40925Y-16713
X40925Y-17717
X40925Y-18701
X40925Y-19705
X40925Y-20709
X40925Y-21713
X40925Y-22697
X40925Y-23701
X40925Y-24685
X40925Y-25709
X40925Y-26713
X40925Y-27717
X40925Y-28720
X40925Y-29705
X40925Y-30709
X41929Y-16772
X41929Y-17776
X41929Y-18760
X41929Y-19764
X41929Y-20768
X41929Y-21772
X41929Y-22756
X41929Y-23760
X41929Y-24744
X41929Y-25768
X41929Y-26772
X41929Y-27776
X41929Y-28780
X41929Y-29764
X41929Y-30768
X43012Y-16909
X43012Y-17913
X43012Y-18898
X43012Y-19902
X43012Y-20906
X43012Y-21909
X43012Y-22894
X43012Y-23898
X43012Y-24882
X43012Y-25906
X43012Y-26909
X43012Y-27913
X43012Y-28917
X43012Y-29902
X43012Y-30906
X44000Y-17000
X44000Y-18004
X44000Y-18988
X44000Y-19992
X44000Y-20996
X44000Y-22000
X44000Y-22984
X44000Y-23988
X44000Y-24972
X44000Y-25996
X44000Y-27000
X44000Y-28004
X44000Y-29008
X44000Y-29992
X44000Y-30996
T2
X30000Y-15400
X30000Y-32400
T0
M30
